<?xml version="1.0" encoding="UTF-8" standalone="no"?>
<svg
   xmlns:dc="http://purl.org/dc/elements/1.1/"
   xmlns:cc="http://creativecommons.org/ns#"
   xmlns:rdf="http://www.w3.org/1999/02/22-rdf-syntax-ns#"
   xmlns:svg="http://www.w3.org/2000/svg"
   xmlns="http://www.w3.org/2000/svg"
   xmlns:sodipodi="http://sodipodi.sourceforge.net/DTD/sodipodi-0.dtd"
   xmlns:inkscape="http://www.inkscape.org/namespaces/inkscape"
   fill="#000000"
   height="24"
   viewBox="0 0 24 24"
   width="24"
   version="1.1"
   id="svg6"
   sodipodi:docname="ic_verified_user_black_24px_with_notification.svg"
   inkscape:version="0.92.1 r">
  <metadata
     id="metadata12">
    <rdf:RDF>
      <cc:Work
         rdf:about="">
        <dc:format>image/svg+xml</dc:format>
        <dc:type
           rdf:resource="http://purl.org/dc/dcmitype/StillImage" />
        <dc:title></dc:title>
      </cc:Work>
    </rdf:RDF>
  </metadata>
  <defs
     id="defs10" />
  <sodipodi:namedview
     pagecolor="#ffffff"
     bordercolor="#666666"
     borderopacity="1"
     objecttolerance="10"
     gridtolerance="10"
     guidetolerance="10"
     inkscape:pageopacity="0"
     inkscape:pageshadow="2"
     inkscape:window-width="1600"
     inkscape:window-height="842"
     id="namedview8"
     showgrid="false"
     inkscape:zoom="9.8333333"
     inkscape:cx="-19.322034"
     inkscape:cy="12"
     inkscape:window-x="0"
     inkscape:window-y="29"
     inkscape:window-maximized="1"
     inkscape:current-layer="svg6" />
  <path
     d="M0 0h24v24H0z"
     fill="none"
     id="path2" />
  <path
     d="M 12 1 L 10.375 1.7226562 A 6.2377381 6.2377381 0 0 1 11.564453 5.3730469 A 6.2377381 6.2377381 0 0 1 5.3261719 11.611328 A 6.2377381 6.2377381 0 0 1 3.0078125 11.158203 C 3.0802611 16.64804 6.8893005 21.752038 12 23 C 17.16 21.74 21 16.55 21 11 L 21 5 L 12 1 z M 16.589844 7.5800781 L 18 9 L 10 17 L 6 13 L 7.4101562 11.589844 L 10 14.169922 L 16.589844 7.5800781 z "
     id="path4" />
  <circle
     r="4.9901905"
     cy="5.3728104"
     cx="5.3271904"
     style="fill:#ff0000;fill-opacity:1;stroke:none;stroke-width:2.43000579;stroke-opacity:1"
     id="path12471-2-3-6" />
</svg>
