<svg xmlns="http://www.w3.org/2000/svg" xmlns:xlink="http://www.w3.org/1999/xlink" viewBox="0 0 199.82897 189.73381"><defs><style>.a{fill:url(#a);}.b{fill:url(#b);}.c{fill:url(#c);}.d{fill:url(#d);}.e{fill:url(#e);}.f{fill:url(#f);}.g{opacity:0.4;fill:url(#g);}.g,.q,.t,.w{isolation:isolate;}.h{fill:url(#h);}.i{fill:url(#i);}.j{fill:url(#j);}.k{fill:url(#k);}.l{fill:url(#l);}.m{fill:url(#m);}.n{fill:url(#n);}.o{fill:url(#o);}.p{fill:url(#p);}.q,.w{opacity:0.2;}.q{fill:url(#q);}.r{fill:url(#r);}.s{fill:url(#s);}.t{opacity:0.25;fill:url(#t);}.u{fill:url(#u);}.v{fill:url(#v);}.w{fill:url(#w);}.x{fill:url(#x);}</style><linearGradient id="a" x1="112.8468" y1="107.17198" x2="104.83059" y2="116.52428" gradientTransform="matrix(1, 0, 0, -1, -8.08535, 204.86669)" gradientUnits="userSpaceOnUse"><stop offset="0" stop-color="#003370"/><stop offset="1" stop-color="#003370"/></linearGradient><linearGradient id="b" x1="181.84566" y1="103.1392" x2="181.84566" y2="38.8606" gradientTransform="matrix(1, 0, 0, -1, 0, 218)" gradientUnits="userSpaceOnUse"><stop offset="0" stop-color="#003370"/><stop offset="0.0704" stop-color="#003f7d"/><stop offset="0.2165" stop-color="#005192"/><stop offset="0.3608" stop-color="#005c9e"/><stop offset="0.5" stop-color="#0060a2"/><stop offset="0.6392" stop-color="#005c9e"/><stop offset="0.7835" stop-color="#005192"/><stop offset="0.9296" stop-color="#003f7d"/><stop offset="1" stop-color="#003370"/></linearGradient><linearGradient id="c" x1="39.02275" y1="33.97836" x2="59.87965" y2="71.11386" gradientTransform="matrix(1, 0, 0, -1, 0, 218)" gradientUnits="userSpaceOnUse"><stop offset="0" stop-color="#00215e"/><stop offset="0.0859" stop-color="#00316f"/><stop offset="0.2267" stop-color="#004583"/><stop offset="0.3658" stop-color="#005090"/><stop offset="0.5" stop-color="#005494"/><stop offset="0.6342" stop-color="#005090"/><stop offset="0.7733" stop-color="#004583"/><stop offset="0.9141" stop-color="#00316f"/><stop offset="1" stop-color="#00215e"/></linearGradient><linearGradient id="d" x1="98.55572" y1="160.05572" x2="64.03352" y2="200.33202" gradientTransform="matrix(1, 0, 0, -1, 0, 218)" gradientUnits="userSpaceOnUse"><stop offset="0" stop-color="#000747"/><stop offset="0.0284" stop-color="#000f4f"/><stop offset="0.1353" stop-color="#002867"/><stop offset="0.2468" stop-color="#003a79"/><stop offset="0.3647" stop-color="#004583"/><stop offset="0.5" stop-color="#004887"/><stop offset="0.6177" stop-color="#003f7d"/><stop offset="0.8125" stop-color="#002665"/><stop offset="1" stop-color="#000747"/></linearGradient><linearGradient id="e" x1="166.88924" y1="29.56829" x2="140.21944" y2="115.48309" xlink:href="#d"/><linearGradient id="f" x1="47.53767" y1="103.1396" x2="47.53767" y2="38.8624" xlink:href="#b"/><linearGradient id="g" x1="82.904" y1="166.213" x2="108.138" y2="166.213" gradientTransform="matrix(1, 0, 0, -1, 0, 218)" xlink:href="#a"/><linearGradient id="h" x1="116.2321" y1="139.5288" x2="116.2321" y2="200.1567" gradientTransform="matrix(1, 0, 0, -1, 0, 218)" gradientUnits="userSpaceOnUse"><stop offset="0" stop-color="#00215e"/><stop offset="0.5" stop-color="#005494"/><stop offset="0.6934" stop-color="#005291"/><stop offset="0.8038" stop-color="#004a89"/><stop offset="0.8932" stop-color="#003d7b"/><stop offset="0.971" stop-color="#002a68"/><stop offset="1" stop-color="#00215e"/></linearGradient><linearGradient id="i" x1="60.85396" y1="21.86043" x2="171.61296" y2="189.28092" gradientTransform="matrix(1, 0, 0, -1, 0, 218)" gradientUnits="userSpaceOnUse"><stop offset="0" stop-color="#0066a7"/><stop offset="0.0824" stop-color="#007ebf"/><stop offset="0.1675" stop-color="#0093d4"/><stop offset="0.2527" stop-color="#00a4e4"/><stop offset="0.337" stop-color="#00b0f0"/><stop offset="0.42" stop-color="#00b7f7"/><stop offset="0.5" stop-color="#00b9f9"/><stop offset="0.58" stop-color="#00b7f7"/><stop offset="0.663" stop-color="#00b0f0"/><stop offset="0.7473" stop-color="#00a4e4"/><stop offset="0.8325" stop-color="#0093d4"/><stop offset="0.9176" stop-color="#007ebf"/><stop offset="1" stop-color="#0066a7"/></linearGradient><linearGradient id="j" x1="50.89952" y1="18.50321" x2="94.76862" y2="57.7813" gradientTransform="matrix(1, 0, 0, -1, 0, 218)" gradientUnits="userSpaceOnUse"><stop offset="0" stop-color="#005a9c"/><stop offset="0.0822" stop-color="#006cae"/><stop offset="0.1808" stop-color="#0079bd"/><stop offset="0.3007" stop-color="#0081c5"/><stop offset="0.5" stop-color="#0083c8"/><stop offset="0.6993" stop-color="#0081c5"/><stop offset="0.8192" stop-color="#0079bd"/><stop offset="0.9178" stop-color="#006cae"/><stop offset="1" stop-color="#005a9c"/></linearGradient><linearGradient id="k" x1="46.97501" y1="190.43045" x2="148.84181" y2="20.65273" gradientTransform="matrix(1, 0, 0, -1, 0, 218)" gradientUnits="userSpaceOnUse"><stop offset="0" stop-color="#005a9c"/><stop offset="0.0176" stop-color="#005fa0"/><stop offset="0.1407" stop-color="#0079ba"/><stop offset="0.2631" stop-color="#008dcc"/><stop offset="0.3837" stop-color="#0098d7"/><stop offset="0.5" stop-color="#009cdb"/><stop offset="0.6163" stop-color="#0098d7"/><stop offset="0.7369" stop-color="#008dcc"/><stop offset="0.8593" stop-color="#0079ba"/><stop offset="0.9824" stop-color="#005fa0"/><stop offset="1" stop-color="#005a9c"/></linearGradient><linearGradient id="l" x1="157.16129" y1="21.68546" x2="91.66079" y2="104.18608" gradientTransform="matrix(1, 0, 0, -1, 0, 218)" gradientUnits="userSpaceOnUse"><stop offset="0" stop-color="#005a9c"/><stop offset="0.0257" stop-color="#005fa0"/><stop offset="0.2053" stop-color="#0079ba"/><stop offset="0.384" stop-color="#008dcc"/><stop offset="0.5599" stop-color="#0098d7"/><stop offset="0.7296" stop-color="#009cdb"/><stop offset="0.7925" stop-color="#0098d7"/><stop offset="0.8577" stop-color="#008dcc"/><stop offset="0.9239" stop-color="#0079ba"/><stop offset="0.9905" stop-color="#005fa0"/><stop offset="1" stop-color="#005a9c"/></linearGradient><linearGradient id="m" x1="62.51431" y1="148.83517" x2="49.76131" y2="194.74576" xlink:href="#j"/><linearGradient id="n" x1="206.9424" y1="117.875" x2="8.2442" y2="117.875" gradientTransform="matrix(1, 0, 0, -1, 0, 218)" gradientUnits="userSpaceOnUse"><stop offset="0" stop-color="#0066a7"/><stop offset="0.0128" stop-color="#006aab"/><stop offset="0.1121" stop-color="#0084c7"/><stop offset="0.2115" stop-color="#09d"/><stop offset="0.3099" stop-color="#00a7ed"/><stop offset="0.4066" stop-color="#00b0f6"/><stop offset="0.5" stop-color="#00b3f9"/><stop offset="0.5934" stop-color="#00b0f6"/><stop offset="0.6901" stop-color="#00a7ed"/><stop offset="0.7885" stop-color="#09d"/><stop offset="0.8879" stop-color="#0084c7"/><stop offset="0.9872" stop-color="#006aab"/><stop offset="1" stop-color="#0066a7"/></linearGradient><linearGradient id="o" x1="149.98441" y1="120.77599" x2="206.77631" y2="117.71539" gradientTransform="matrix(1, 0, 0, -1, 0, 218)" gradientUnits="userSpaceOnUse"><stop offset="0" stop-color="#004e8d"/><stop offset="0.0061" stop-color="#00508e"/><stop offset="0.0912" stop-color="#0062a2"/><stop offset="0.1876" stop-color="#006eb1"/><stop offset="0.3049" stop-color="#0076b9"/><stop offset="0.5" stop-color="#0078bc"/><stop offset="0.6951" stop-color="#0076b9"/><stop offset="0.8124" stop-color="#006eb1"/><stop offset="0.9088" stop-color="#0062a2"/><stop offset="0.9939" stop-color="#00508e"/><stop offset="1" stop-color="#004e8d"/></linearGradient><linearGradient id="p" x1="8.08983" y1="120.68" x2="110.55443" y2="120.68" gradientTransform="matrix(1, 0, 0, -1, 0, 218)" gradientUnits="userSpaceOnUse"><stop offset="0" stop-color="#0066a7"/><stop offset="0.0225" stop-color="#006aab"/><stop offset="0.1971" stop-color="#0084c7"/><stop offset="0.3718" stop-color="#09d"/><stop offset="0.5447" stop-color="#00a7ed"/><stop offset="0.7147" stop-color="#00b0f6"/><stop offset="0.8788" stop-color="#00b3f9"/><stop offset="0.9015" stop-color="#00b0f6"/><stop offset="0.9249" stop-color="#00a7ed"/><stop offset="0.9487" stop-color="#09d"/><stop offset="0.9728" stop-color="#0084c7"/><stop offset="0.9969" stop-color="#006aab"/><stop offset="1" stop-color="#0066a7"/></linearGradient><linearGradient id="q" x1="80.14779" y1="147.196" x2="41.63909" y2="152.6113" gradientTransform="matrix(1, 0, 0, -1, 0, 218)" xlink:href="#a"/><linearGradient id="r" x1="119.33114" y1="114.2596" x2="10.50724" y2="129.56311" gradientTransform="matrix(1, 0, 0, -1, 0, 218)" gradientUnits="userSpaceOnUse"><stop offset="0" stop-color="#0066a7"/><stop offset="0.0382" stop-color="#0073b4"/><stop offset="0.1177" stop-color="#0087c7"/><stop offset="0.2081" stop-color="#0095d5"/><stop offset="0.3177" stop-color="#009dde"/><stop offset="0.5" stop-color="#00a0e0"/><stop offset="0.6823" stop-color="#009dde"/><stop offset="0.7919" stop-color="#0095d5"/><stop offset="0.8823" stop-color="#0087c7"/><stop offset="0.9618" stop-color="#0073b4"/><stop offset="1" stop-color="#0066a7"/></linearGradient><linearGradient id="s" x1="169.76813" y1="189.60261" x2="118.01803" y2="100.47742" gradientTransform="matrix(1, 0, 0, -1, 0, 218)" gradientUnits="userSpaceOnUse"><stop offset="0" stop-color="#0066a7"/><stop offset="0.1238" stop-color="#007ebf"/><stop offset="0.2516" stop-color="#0093d4"/><stop offset="0.3797" stop-color="#00a4e4"/><stop offset="0.5064" stop-color="#00b0f0"/><stop offset="0.631" stop-color="#00b7f7"/><stop offset="0.7513" stop-color="#00b9f9"/><stop offset="0.7911" stop-color="#00b7f7"/><stop offset="0.8324" stop-color="#00b0f0"/><stop offset="0.8743" stop-color="#00a4e4"/><stop offset="0.9167" stop-color="#0093d4"/><stop offset="0.959" stop-color="#007ebf"/><stop offset="1" stop-color="#0066a7"/></linearGradient><linearGradient id="t" x1="176.27334" y1="144.77156" x2="157.43144" y2="109.41286" gradientTransform="matrix(1, 0, 0, -1, 0, 218)" xlink:href="#a"/><linearGradient id="u" x1="168.06975" y1="187.64579" x2="116.15545" y2="90.22349" xlink:href="#r"/><linearGradient id="v" x1="172.09779" y1="185.45115" x2="119.7264" y2="87.17115" xlink:href="#r"/><linearGradient id="w" x1="87.57318" y1="73.70309" x2="101.00618" y2="37.31129" gradientTransform="matrix(1, 0, 0, -1, 0, 218)" xlink:href="#a"/><linearGradient id="x" x1="113.082" y1="111.1318" x2="128.89589" y2="12.6776" gradientTransform="matrix(1, 0, 0, -1, 0, 218)" gradientUnits="userSpaceOnUse"><stop offset="0" stop-color="#004e8d"/><stop offset="0.0244" stop-color="#005a99"/><stop offset="0.0888" stop-color="#0074b3"/><stop offset="0.1599" stop-color="#0087c7"/><stop offset="0.2403" stop-color="#0095d5"/><stop offset="0.3378" stop-color="#009edd"/><stop offset="0.5" stop-color="#00a0e0"/><stop offset="0.6718" stop-color="#009dde"/><stop offset="0.7751" stop-color="#0095d5"/><stop offset="0.8603" stop-color="#0087c7"/><stop offset="0.9351" stop-color="#0073b4"/><stop offset="1" stop-color="#005a9c"/></linearGradient></defs><title>jami</title><polygon class="a" points="94.198 90.758 106.526 90.334 100.361 101.98 94.198 90.758"/><path class="b" d="M155.777,106.82c45.553,7.381,52.088,18.775,52.088,18.775a11.78934,11.78934,0,0,1,0,2.107,3.76948,3.76948,0,0,1-.371,1.141c-.262.602-4.766,10.004-34.201,16.201Z" transform="translate(-8.08535 -13.13331)"/><path class="c" d="M40.986,143.514c-10.369,27.344-5.049,36.055-4.692,36.596a2.69027,2.69027,0,0,0,.755.932,12.17118,12.17118,0,0,0,2.143-.377s18.623-.936,40.443-31.941Z" transform="translate(-8.08535 -13.13331)"/><path class="d" d="M109.02,38.875C84.038,11.5,71.957,13.07,71.258,13.186a3.3393,3.3393,0,0,0-1.158.311c-.832.426-1.77,3.182-1.77,3.182S63.047,31.796,84.197,72.47Z" transform="translate(-8.08535 -13.13331)"/><path class="e" d="M130.812,144.072c33.871,38.717,45.762,36.561,45.762,36.561a15.253,15.253,0,0,0,2.332.41,2.70335,2.70335,0,0,0,.752-.934c.482-.73,10.053-16.422-22.443-72.979Z" transform="translate(-8.08535 -13.13331)"/><path class="f" d="M86.99,150.014c-69.822-2.939-78.172-20.346-78.529-21.17a2.52442,2.52442,0,0,1-.371-1.141c.145-1.238,2.695-3.439,2.695-3.439s18.578-11.404,49.362-17.545Z" transform="translate(-8.08535 -13.13331)"/><path class="g" d="M107.084,36.783a290.31879,290.31879,0,0,0-24.18,30.008h1.784c5.405-6.887,18.892-23.848,23.45-28.838Z" transform="translate(-8.08535 -13.13331)"/><path class="h" d="M135.287,68.23c18.262-43.152,11.109-53.051,11.109-53.051a8.10579,8.10579,0,0,0-.541-1.684,4.56212,4.56212,0,0,0-1.159-.309c-.884-.148-19.868-2.605-60.008,53.604Z" transform="translate(-8.08535 -13.13331)"/><path class="i" d="M107.643,176.496c-24.74,26.969-36.709,25.414-37.406,25.299a11.93183,11.93183,0,0,1-2.927-1.459L37.049,181.041c12.742-2.709,28.422-17.855,44.926-37.119Z" transform="translate(-8.08535 -13.13331)"/><path class="j" d="M108.662,177.518c-24.74,26.967-36.708,25.412-37.404,25.297a11.905,11.905,0,0,1-2.928-1.459L37.049,181.042c12.742-2.709,29.441-16.834,45.945-36.098Z" transform="translate(-8.08535 -13.13331)"/><path class="k" d="M42.471,72.678c-10.99-28.297-5.519-37.258-5.156-37.807a11.89986,11.89986,0,0,1,2.524-2.08L70.1,13.496C67.473,25.85,74.159,44.943,84.424,67.037Z" transform="translate(-8.08535 -13.13331)"/><path class="l" d="M106.226,106.365a337.68919,337.68919,0,0,0-45.417,3.326c.451.945,7.535,12.602,12.601,20.4,48.579,74.805,71.339,71.863,72.308,71.701a11.88556,11.88556,0,0,0,2.928-1.457l30.262-19.293C158.289,176.66,129.629,143.062,106.226,106.365Z" transform="translate(-8.08535 -13.13331)"/><path class="m" d="M41.451,73.699C30.461,45.4,35.932,36.439,36.294,35.89a11.99056,11.99056,0,0,1,2.524-2.08L70.1,13.496C67.473,25.85,73.138,45.965,83.403,68.057Z" transform="translate(-8.08535 -13.13331)"/><path class="n" d="M155.75,110.549c23.613,3.406,43.152,8.193,52.115,17.154V91.777a11.93547,11.93547,0,0,0-.371-3.25c-.26-.594-4.66-9.783-33.17-15.98Z" transform="translate(-8.08535 -13.13331)"/><path class="o" d="M155.75,109.178c23.613,3.406,43.152,9.564,52.115,18.525V90.406a11.93547,11.93547,0,0,0-.371-3.25c-.26-.594-4.66-9.783-33.17-15.98Z" transform="translate(-8.08535 -13.13331)"/><path class="p" d="M134.332,67.619c-5.318-.258-16.663-.682-26.354-.682-89.197,0-99.124,20.689-99.517,21.59a11.93576,11.93576,0,0,0-.371,3.25v35.926c8.678-8.678,27.775-13.406,50.98-16.885a334.95971,334.95971,0,0,1,45.263-3.424q4.1565-.0435,8.315,0C112.648,107.395,139.65,67.877,134.332,67.619Z" transform="translate(-8.08535 -13.13331)"/><path class="q" d="M83.417,64.846c-18.644.945-32.06,2.318-43.277,5.354l.536,1.471c1.021-.166,2.295-.514,3.332-.67a322.36323,322.36323,0,0,1,40.416-3.963Z" transform="translate(-8.08535 -13.13331)"/><path class="r" d="M134.332,66.248c-5.318-.258-16.663-.682-26.354-.682-89.197,0-99.124,20.689-99.517,21.59a11.93576,11.93576,0,0,0-.371,3.25v37.297c8.678-8.678,27.775-14.775,50.98-18.256a334.95966,334.95966,0,0,1,45.263-3.424q4.1565-.0435,8.315.002S139.65,66.506,134.332,66.248Z" transform="translate(-8.08535 -13.13331)"/><path class="s" d="M107.973,109.08c24.314-36.527,42.305-74.785,37.883-95.584l30.262,19.293a11.93233,11.93233,0,0,1,2.521,2.082c.541.818,12.486,20.414-36.095,95.221-3.575,5.504-6.885,11.99-8.103,12.592C126.151,134.578,107.973,109.08,107.973,109.08Z" transform="translate(-8.08535 -13.13331)"/><path class="t" d="M175.205,71.334A263.73666,263.73666,0,0,1,155.75,110.48l2.229.424c9.654-16.59,15.203-28.775,18.984-39.131Z" transform="translate(-8.08535 -13.13331)"/><path class="u" d="M143.564,131.111c48.582-74.807,36.637-94.4,36.094-95.221a11.9699,11.9699,0,0,0-2.521-2.08L145.856,13.496c4.395,20.678-12.936,60.498-37.042,96.871,8.118,12.357,16.496,24.436,25.324,34.678C135.896,143.201,140.305,136.129,143.564,131.111Z" transform="translate(-8.08535 -13.13331)"/><path class="v" d="M133.258,146.396a2.00642,2.00642,0,0,0,.43-.375,334.71282,334.71282,0,0,1-25.719-34.373c-.14.209-.276.422-.416.633C107.553,112.281,124.473,139.004,133.258,146.396Z" transform="translate(-8.08535 -13.13331)"/><path class="w" d="M107.977,178.262c-.398-.457-18.246-21.541-26.364-33.9l-1.325,1.51a300.15187,300.15187,0,0,0,26.666,33.479Z" transform="translate(-8.08535 -13.13331)"/><path class="x" d="M133.688,146.021a334.71428,334.71428,0,0,1-25.719-34.373q-1.3935-2.124-2.763-4.262a337.725,337.725,0,0,0-45.418,3.324c.451.947,7.536,12.602,12.601,20.4,48.58,74.807,71.339,71.865,72.308,71.703a11.91237,11.91237,0,0,0,2.927-1.459l31.283-20.312C166.104,178.32,149.809,164.723,133.688,146.021Z" transform="translate(-8.08535 -13.13331)"/></svg>