<?xml version="1.0" encoding="utf-8"?>
<!-- Generator: Adobe Illustrator 16.0.4, SVG Export Plug-In . SVG Version: 6.00 Build 0)  -->
<!DOCTYPE svg PUBLIC "-//W3C//DTD SVG 1.1//EN" "http://www.w3.org/Graphics/SVG/1.1/DTD/svg11.dtd">
<svg version="1.1" id="Calque_1" xmlns="http://www.w3.org/2000/svg" xmlns:xlink="http://www.w3.org/1999/xlink" x="0px" y="0px"
	 width="590.4px" height="216px" viewBox="0 0 590.4 216" enable-background="new 0 0 590.4 216" xml:space="preserve">
<g>
	<g>
		<linearGradient id="SVGID_1_" gradientUnits="userSpaceOnUse" x1="113.3765" y1="110.8271" x2="105.3603" y2="101.4748">
			<stop  offset="0" style="stop-color:#0B5463"/>
			<stop  offset="1" style="stop-color:#0B5463"/>
		</linearGradient>
		<polygon fill="url(#SVGID_1_)" points="102.813,103.89 115.141,103.466 108.976,115.113 		"/>
		<linearGradient id="SVGID_2_" gradientUnits="userSpaceOnUse" x1="182.3755" y1="114.8604" x2="182.3755" y2="179.1397">
			<stop  offset="0" style="stop-color:#0B5463"/>
			<stop  offset="0.0704" style="stop-color:#0B6070"/>
			<stop  offset="0.2165" style="stop-color:#0B7285"/>
			<stop  offset="0.3608" style="stop-color:#0A7D91"/>
			<stop  offset="0.5" style="stop-color:#0A8195"/>
			<stop  offset="0.6392" style="stop-color:#0A7D91"/>
			<stop  offset="0.7835" style="stop-color:#0B7285"/>
			<stop  offset="0.9296" style="stop-color:#0B6070"/>
			<stop  offset="1" style="stop-color:#0B5463"/>
		</linearGradient>
		<path fill="url(#SVGID_2_)" d="M156.307,106.82c45.553,7.381,52.088,18.776,52.088,18.776c0-0.002,0.111,1.145,0,2.107
			c-0.055,0.482-0.242,0.842-0.371,1.141c-0.262,0.602-4.766,10.004-34.201,16.201L156.307,106.82z"/>
		<linearGradient id="SVGID_3_" gradientUnits="userSpaceOnUse" x1="39.5532" y1="184.0215" x2="60.4101" y2="146.8862">
			<stop  offset="0" style="stop-color:#014251"/>
			<stop  offset="0.0859" style="stop-color:#025262"/>
			<stop  offset="0.2267" style="stop-color:#046676"/>
			<stop  offset="0.3658" style="stop-color:#057183"/>
			<stop  offset="0.5" style="stop-color:#057587"/>
			<stop  offset="0.6342" style="stop-color:#057183"/>
			<stop  offset="0.7733" style="stop-color:#046676"/>
			<stop  offset="0.9141" style="stop-color:#025262"/>
			<stop  offset="1" style="stop-color:#014251"/>
		</linearGradient>
		<path fill="url(#SVGID_3_)" d="M41.516,143.514c-10.369,27.344-5.049,36.055-4.692,36.596c0.181,0.271,0.349,0.668,0.755,0.932
			c0.157,0.104,2.143-0.377,2.143-0.377s18.623-0.936,40.443-31.941L41.516,143.514z"/>
		<linearGradient id="SVGID_4_" gradientUnits="userSpaceOnUse" x1="99.0859" y1="57.9434" x2="64.5631" y2="17.6663">
			<stop  offset="0" style="stop-color:#0D283A"/>
			<stop  offset="0.0284" style="stop-color:#0C3042"/>
			<stop  offset="0.1353" style="stop-color:#0B495A"/>
			<stop  offset="0.2468" style="stop-color:#0A5B6C"/>
			<stop  offset="0.3647" style="stop-color:#0A6676"/>
			<stop  offset="0.5" style="stop-color:#0A697A"/>
			<stop  offset="0.6177" style="stop-color:#0A6070"/>
			<stop  offset="0.8125" style="stop-color:#0B4758"/>
			<stop  offset="1" style="stop-color:#0D283A"/>
		</linearGradient>
		<path fill="url(#SVGID_4_)" d="M109.549,38.875C84.568,11.5,72.487,13.07,71.788,13.185c-0.35,0.059-0.69,0.072-1.158,0.311
			c-0.832,0.426-1.77,3.182-1.77,3.182s-5.283,15.117,15.867,55.791L109.549,38.875z"/>
		<linearGradient id="SVGID_5_" gradientUnits="userSpaceOnUse" x1="167.4194" y1="188.4316" x2="140.7492" y2="102.5157">
			<stop  offset="0" style="stop-color:#0D283A"/>
			<stop  offset="0.0284" style="stop-color:#0C3042"/>
			<stop  offset="0.1353" style="stop-color:#0B495A"/>
			<stop  offset="0.2468" style="stop-color:#0A5B6C"/>
			<stop  offset="0.3647" style="stop-color:#0A6676"/>
			<stop  offset="0.5" style="stop-color:#0A697A"/>
			<stop  offset="0.6177" style="stop-color:#0A6070"/>
			<stop  offset="0.8125" style="stop-color:#0B4758"/>
			<stop  offset="1" style="stop-color:#0D283A"/>
		</linearGradient>
		<path fill="url(#SVGID_5_)" d="M131.342,144.072c33.871,38.717,45.762,36.561,45.762,36.561s2.182,0.508,2.332,0.41
			c0.404-0.266,0.572-0.662,0.752-0.934c0.482-0.73,10.053-16.422-22.443-72.979L131.342,144.072z"/>
		<linearGradient id="SVGID_6_" gradientUnits="userSpaceOnUse" x1="48.0679" y1="114.8604" x2="48.0679" y2="179.1383">
			<stop  offset="0" style="stop-color:#0B5463"/>
			<stop  offset="0.0704" style="stop-color:#0B6070"/>
			<stop  offset="0.2165" style="stop-color:#0B7285"/>
			<stop  offset="0.3608" style="stop-color:#0A7D91"/>
			<stop  offset="0.5" style="stop-color:#0A8195"/>
			<stop  offset="0.6392" style="stop-color:#0A7D91"/>
			<stop  offset="0.7835" style="stop-color:#0B7285"/>
			<stop  offset="0.9296" style="stop-color:#0B6070"/>
			<stop  offset="1" style="stop-color:#0B5463"/>
		</linearGradient>
		<path fill="url(#SVGID_6_)" d="M87.52,150.014c-69.822-2.939-78.172-20.346-78.529-21.17c-0.109-0.25-0.417-0.746-0.371-1.141
			c0.145-1.238,2.695-3.439,2.695-3.439s18.578-11.405,49.362-17.545L87.52,150.014z"/>
		<linearGradient id="SVGID_7_" gradientUnits="userSpaceOnUse" x1="83.4341" y1="51.7866" x2="108.6685" y2="51.7866">
			<stop  offset="0" style="stop-color:#0B5463"/>
			<stop  offset="1" style="stop-color:#0B5463"/>
		</linearGradient>
		<path opacity="0.4" fill="url(#SVGID_7_)" d="M107.614,36.783c-6.985,7.438-15.034,17.199-24.18,30.008h1.784
			c5.405-6.887,18.892-23.848,23.45-28.838L107.614,36.783z"/>
		<linearGradient id="SVGID_8_" gradientUnits="userSpaceOnUse" x1="116.7622" y1="78.4707" x2="116.7622" y2="17.8428">
			<stop  offset="0" style="stop-color:#014251"/>
			<stop  offset="0.5" style="stop-color:#057587"/>
			<stop  offset="0.6934" style="stop-color:#057384"/>
			<stop  offset="0.8038" style="stop-color:#056B7C"/>
			<stop  offset="0.8932" style="stop-color:#035E6E"/>
			<stop  offset="0.971" style="stop-color:#024B5B"/>
			<stop  offset="1" style="stop-color:#014251"/>
		</linearGradient>
		<path fill="url(#SVGID_8_)" d="M135.817,68.23c18.262-43.152,11.109-53.051,11.109-53.051s-0.377-1.594-0.541-1.684
			c-0.309-0.168-0.918-0.268-1.159-0.309c-0.884-0.148-19.868-2.605-60.008,53.604L135.817,68.23z"/>
		<linearGradient id="SVGID_9_" gradientUnits="userSpaceOnUse" x1="61.3843" y1="196.1396" x2="172.1433" y2="28.7191">
			<stop  offset="0" style="stop-color:#0B879A"/>
			<stop  offset="0.0824" style="stop-color:#379FB2"/>
			<stop  offset="0.1675" style="stop-color:#5CB4C7"/>
			<stop  offset="0.2527" style="stop-color:#79C5D7"/>
			<stop  offset="0.337" style="stop-color:#8DD1E3"/>
			<stop  offset="0.42" style="stop-color:#9AD8EA"/>
			<stop  offset="0.5" style="stop-color:#9EDAEC"/>
			<stop  offset="0.58" style="stop-color:#9AD8EA"/>
			<stop  offset="0.663" style="stop-color:#8DD1E3"/>
			<stop  offset="0.7473" style="stop-color:#79C5D7"/>
			<stop  offset="0.8325" style="stop-color:#5CB4C7"/>
			<stop  offset="0.9176" style="stop-color:#379FB2"/>
			<stop  offset="1" style="stop-color:#0B879A"/>
		</linearGradient>
		<path fill="url(#SVGID_9_)" d="M108.172,176.496c-24.74,26.969-36.709,25.414-37.406,25.299c-0.967-0.162-2.927-1.459-2.927-1.459
			l-30.261-19.295c12.742-2.709,28.422-17.855,44.926-37.119L108.172,176.496z"/>
		<linearGradient id="SVGID_10_" gradientUnits="userSpaceOnUse" x1="51.4297" y1="199.4971" x2="95.2988" y2="160.219">
			<stop  offset="0" style="stop-color:#057B8F"/>
			<stop  offset="0.0822" style="stop-color:#038DA1"/>
			<stop  offset="0.1808" style="stop-color:#029AB0"/>
			<stop  offset="0.3007" style="stop-color:#01A2B8"/>
			<stop  offset="0.5" style="stop-color:#01A4BB"/>
			<stop  offset="0.6993" style="stop-color:#01A2B8"/>
			<stop  offset="0.8192" style="stop-color:#029AB0"/>
			<stop  offset="0.9178" style="stop-color:#038DA1"/>
			<stop  offset="1" style="stop-color:#057B8F"/>
		</linearGradient>
		<path fill="url(#SVGID_10_)" d="M109.192,177.518c-24.74,26.967-36.708,25.412-37.404,25.297
			c-0.969-0.162-2.928-1.459-2.928-1.459l-31.281-20.314c12.742-2.709,29.441-16.834,45.945-36.098L109.192,177.518z"/>
		<linearGradient id="SVGID_11_" gradientUnits="userSpaceOnUse" x1="47.5049" y1="27.5693" x2="149.3716" y2="197.347">
			<stop  offset="0" style="stop-color:#057B8F"/>
			<stop  offset="0.0176" style="stop-color:#0A8093"/>
			<stop  offset="0.1407" style="stop-color:#279AAD"/>
			<stop  offset="0.2631" style="stop-color:#3BAEBF"/>
			<stop  offset="0.3837" style="stop-color:#48B9CA"/>
			<stop  offset="0.5" style="stop-color:#4CBDCE"/>
			<stop  offset="0.6163" style="stop-color:#48B9CA"/>
			<stop  offset="0.7369" style="stop-color:#3BAEBF"/>
			<stop  offset="0.8593" style="stop-color:#279AAD"/>
			<stop  offset="0.9824" style="stop-color:#0A8093"/>
			<stop  offset="1" style="stop-color:#057B8F"/>
		</linearGradient>
		<path fill="url(#SVGID_11_)" d="M43,72.677c-10.99-28.297-5.519-37.258-5.156-37.807c0.541-0.818,2.524-2.08,2.524-2.08
			l30.261-19.295c-2.627,12.354,4.059,31.447,14.324,53.541L43,72.677z"/>
		<linearGradient id="SVGID_12_" gradientUnits="userSpaceOnUse" x1="157.6904" y1="196.3164" x2="92.19" y2="113.8158">
			<stop  offset="0" style="stop-color:#057B8F"/>
			<stop  offset="0.0257" style="stop-color:#0A8093"/>
			<stop  offset="0.2053" style="stop-color:#279AAD"/>
			<stop  offset="0.384" style="stop-color:#3BAEBF"/>
			<stop  offset="0.5599" style="stop-color:#48B9CA"/>
			<stop  offset="0.7296" style="stop-color:#4CBDCE"/>
			<stop  offset="0.7925" style="stop-color:#48B9CA"/>
			<stop  offset="0.8577" style="stop-color:#3BAEBF"/>
			<stop  offset="0.9239" style="stop-color:#279AAD"/>
			<stop  offset="0.9905" style="stop-color:#0A8093"/>
			<stop  offset="1" style="stop-color:#057B8F"/>
		</linearGradient>
		<path fill="url(#SVGID_12_)" d="M106.755,106.365c-15.667,0.17-31.37,1.221-45.417,3.326c0.451,0.945,7.535,12.602,12.601,20.401
			c48.579,74.805,71.339,71.863,72.308,71.701c0.967-0.16,2.928-1.457,2.928-1.457l30.262-19.293
			C158.819,176.66,130.159,143.062,106.755,106.365z"/>
		<linearGradient id="SVGID_13_" gradientUnits="userSpaceOnUse" x1="63.0439" y1="69.1636" x2="50.291" y2="23.253">
			<stop  offset="0" style="stop-color:#057B8F"/>
			<stop  offset="0.0822" style="stop-color:#038DA1"/>
			<stop  offset="0.1808" style="stop-color:#029AB0"/>
			<stop  offset="0.3007" style="stop-color:#01A2B8"/>
			<stop  offset="0.5" style="stop-color:#01A4BB"/>
			<stop  offset="0.6993" style="stop-color:#01A2B8"/>
			<stop  offset="0.8192" style="stop-color:#029AB0"/>
			<stop  offset="0.9178" style="stop-color:#038DA1"/>
			<stop  offset="1" style="stop-color:#057B8F"/>
		</linearGradient>
		<path fill="url(#SVGID_13_)" d="M41.981,73.699c-10.99-28.299-5.519-37.26-5.157-37.809c0.542-0.816,2.524-2.08,2.524-2.08
			l31.281-20.314c-2.627,12.354,3.038,32.469,13.303,54.561L41.981,73.699z"/>
		<linearGradient id="SVGID_14_" gradientUnits="userSpaceOnUse" x1="207.4727" y1="100.1245" x2="8.7745" y2="100.1245">
			<stop  offset="0" style="stop-color:#0B879A"/>
			<stop  offset="0.0128" style="stop-color:#118B9E"/>
			<stop  offset="0.1121" style="stop-color:#36A5BA"/>
			<stop  offset="0.2115" style="stop-color:#53BAD0"/>
			<stop  offset="0.3099" style="stop-color:#67C8E0"/>
			<stop  offset="0.4066" style="stop-color:#74D1E9"/>
			<stop  offset="0.5" style="stop-color:#78D4EC"/>
			<stop  offset="0.5934" style="stop-color:#74D1E9"/>
			<stop  offset="0.6901" style="stop-color:#67C8E0"/>
			<stop  offset="0.7885" style="stop-color:#53BAD0"/>
			<stop  offset="0.8879" style="stop-color:#36A5BA"/>
			<stop  offset="0.9872" style="stop-color:#118B9E"/>
			<stop  offset="1" style="stop-color:#0B879A"/>
		</linearGradient>
		<path fill="url(#SVGID_14_)" d="M156.28,110.548c23.613,3.406,43.152,8.194,52.115,17.155V91.777c0,0,0.02-2.35-0.371-3.25
			c-0.26-0.594-4.66-9.783-33.17-15.98L156.28,110.548z"/>
		<linearGradient id="SVGID_15_" gradientUnits="userSpaceOnUse" x1="150.5137" y1="97.2241" x2="207.3067" y2="100.2848">
			<stop  offset="0" style="stop-color:#096F80"/>
			<stop  offset="0.0061" style="stop-color:#097181"/>
			<stop  offset="0.0912" style="stop-color:#0B8395"/>
			<stop  offset="0.1876" style="stop-color:#0C8FA4"/>
			<stop  offset="0.3049" style="stop-color:#0D97AC"/>
			<stop  offset="0.5" style="stop-color:#0D99AF"/>
			<stop  offset="0.6951" style="stop-color:#0D97AC"/>
			<stop  offset="0.8124" style="stop-color:#0C8FA4"/>
			<stop  offset="0.9088" style="stop-color:#0B8395"/>
			<stop  offset="0.9939" style="stop-color:#097181"/>
			<stop  offset="1" style="stop-color:#096F80"/>
		</linearGradient>
		<path fill="url(#SVGID_15_)" d="M156.28,109.177c23.613,3.406,43.152,9.565,52.115,18.526V90.406c0,0,0.02-2.35-0.371-3.25
			c-0.26-0.594-4.66-9.783-33.17-15.98L156.28,109.177z"/>
		<linearGradient id="SVGID_16_" gradientUnits="userSpaceOnUse" x1="8.6196" y1="97.3203" x2="111.0846" y2="97.3203">
			<stop  offset="0" style="stop-color:#0B879A"/>
			<stop  offset="0.0225" style="stop-color:#118B9E"/>
			<stop  offset="0.1971" style="stop-color:#36A5BA"/>
			<stop  offset="0.3718" style="stop-color:#53BAD0"/>
			<stop  offset="0.5447" style="stop-color:#67C8E0"/>
			<stop  offset="0.7147" style="stop-color:#74D1E9"/>
			<stop  offset="0.8788" style="stop-color:#78D4EC"/>
			<stop  offset="0.9015" style="stop-color:#74D1E9"/>
			<stop  offset="0.9249" style="stop-color:#67C8E0"/>
			<stop  offset="0.9487" style="stop-color:#53BAD0"/>
			<stop  offset="0.9728" style="stop-color:#36A5BA"/>
			<stop  offset="0.9969" style="stop-color:#118B9E"/>
			<stop  offset="1" style="stop-color:#0B879A"/>
		</linearGradient>
		<path fill="url(#SVGID_16_)" d="M134.862,67.619c-5.318-0.258-16.663-0.682-26.354-0.682c-89.197,0-99.124,20.689-99.517,21.59
			c-0.391,0.9-0.371,3.25-0.371,3.25v35.926c8.678-8.678,27.775-13.407,50.98-16.885c14.048-2.105,29.596-3.254,45.263-3.424
			c2.771-0.029,5.546-0.029,8.315,0C113.178,107.394,140.18,67.876,134.862,67.619z"/>
		<linearGradient id="SVGID_17_" gradientUnits="userSpaceOnUse" x1="80.6782" y1="70.8027" x2="42.1695" y2="65.3874">
			<stop  offset="0" style="stop-color:#0B5463"/>
			<stop  offset="1" style="stop-color:#0B5463"/>
		</linearGradient>
		<path opacity="0.2" fill="url(#SVGID_17_)" d="M83.947,64.845c-18.644,0.945-32.06,2.318-43.277,5.354l0.536,1.471
			c1.021-0.166,2.295-0.514,3.332-0.67c12.669-1.9,26.317-3.637,40.416-3.963L83.947,64.845z"/>
		<linearGradient id="SVGID_18_" gradientUnits="userSpaceOnUse" x1="119.8608" y1="103.7402" x2="11.037" y2="88.4367">
			<stop  offset="0" style="stop-color:#0B879A"/>
			<stop  offset="0.0382" style="stop-color:#1694A7"/>
			<stop  offset="0.1177" style="stop-color:#26A8BA"/>
			<stop  offset="0.2081" style="stop-color:#32B6C8"/>
			<stop  offset="0.3177" style="stop-color:#39BED1"/>
			<stop  offset="0.5" style="stop-color:#3BC1D3"/>
			<stop  offset="0.6823" style="stop-color:#39BED1"/>
			<stop  offset="0.7919" style="stop-color:#32B6C8"/>
			<stop  offset="0.8823" style="stop-color:#26A8BA"/>
			<stop  offset="0.9618" style="stop-color:#1694A7"/>
			<stop  offset="1" style="stop-color:#0B879A"/>
		</linearGradient>
		<path fill="url(#SVGID_18_)" d="M134.862,66.248c-5.318-0.258-16.663-0.682-26.354-0.682c-89.197,0-99.124,20.689-99.517,21.59
			c-0.391,0.9-0.371,3.25-0.371,3.25v37.297c8.678-8.678,27.775-14.776,50.98-18.256c14.048-2.105,29.596-3.254,45.263-3.424
			c2.771-0.029,5.546-0.029,8.315,0.002C113.178,106.025,140.18,66.505,134.862,66.248z"/>
		<linearGradient id="SVGID_19_" gradientUnits="userSpaceOnUse" x1="170.2969" y1="28.396" x2="118.5465" y2="117.5216">
			<stop  offset="0" style="stop-color:#0B879A"/>
			<stop  offset="0.1238" style="stop-color:#379FB2"/>
			<stop  offset="0.2516" style="stop-color:#5CB4C7"/>
			<stop  offset="0.3797" style="stop-color:#79C5D7"/>
			<stop  offset="0.5064" style="stop-color:#8DD1E3"/>
			<stop  offset="0.631" style="stop-color:#9AD8EA"/>
			<stop  offset="0.7513" style="stop-color:#9EDAEC"/>
			<stop  offset="0.7911" style="stop-color:#9AD8EA"/>
			<stop  offset="0.8324" style="stop-color:#8DD1E3"/>
			<stop  offset="0.8743" style="stop-color:#79C5D7"/>
			<stop  offset="0.9167" style="stop-color:#5CB4C7"/>
			<stop  offset="0.959" style="stop-color:#379FB2"/>
			<stop  offset="1" style="stop-color:#0B879A"/>
		</linearGradient>
		<path fill="url(#SVGID_19_)" d="M108.502,109.08c24.314-36.527,42.305-74.785,37.883-95.584l30.262,19.293
			c0,0,1.98,1.264,2.521,2.082s12.486,20.414-36.095,95.221c-3.575,5.504-6.885,11.99-8.103,12.592
			C126.681,134.578,108.502,109.08,108.502,109.08z"/>
		<linearGradient id="SVGID_20_" gradientUnits="userSpaceOnUse" x1="176.8037" y1="73.2285" x2="157.9616" y2="108.5876">
			<stop  offset="0" style="stop-color:#0B5463"/>
			<stop  offset="1" style="stop-color:#0B5463"/>
		</linearGradient>
		<path opacity="0.25" fill="url(#SVGID_20_)" d="M175.735,71.333c-5.281,12.918-11.025,25.32-19.455,39.146l2.229,0.424
			c9.654-16.59,15.203-28.775,18.984-39.131L175.735,71.333z"/>
		<linearGradient id="SVGID_21_" gradientUnits="userSpaceOnUse" x1="168.5996" y1="30.3535" x2="116.6851" y2="127.7762">
			<stop  offset="0" style="stop-color:#0B879A"/>
			<stop  offset="0.0382" style="stop-color:#1694A7"/>
			<stop  offset="0.1177" style="stop-color:#26A8BA"/>
			<stop  offset="0.2081" style="stop-color:#32B6C8"/>
			<stop  offset="0.3177" style="stop-color:#39BED1"/>
			<stop  offset="0.5" style="stop-color:#3BC1D3"/>
			<stop  offset="0.6823" style="stop-color:#39BED1"/>
			<stop  offset="0.7919" style="stop-color:#32B6C8"/>
			<stop  offset="0.8823" style="stop-color:#26A8BA"/>
			<stop  offset="0.9618" style="stop-color:#1694A7"/>
			<stop  offset="1" style="stop-color:#0B879A"/>
		</linearGradient>
		<path fill="url(#SVGID_21_)" d="M144.094,131.111c48.582-74.807,36.637-94.401,36.094-95.221c-0.541-0.816-2.521-2.08-2.521-2.08
			l-31.281-20.314c4.395,20.678-12.936,60.498-37.042,96.871c8.118,12.358,16.496,24.436,25.324,34.678
			C136.426,143.201,140.834,136.129,144.094,131.111z"/>
		<linearGradient id="SVGID_22_" gradientUnits="userSpaceOnUse" x1="172.627" y1="32.5488" x2="120.2556" y2="130.8288">
			<stop  offset="0" style="stop-color:#0B879A"/>
			<stop  offset="0.0382" style="stop-color:#1694A7"/>
			<stop  offset="0.1177" style="stop-color:#26A8BA"/>
			<stop  offset="0.2081" style="stop-color:#32B6C8"/>
			<stop  offset="0.3177" style="stop-color:#39BED1"/>
			<stop  offset="0.5" style="stop-color:#3BC1D3"/>
			<stop  offset="0.6823" style="stop-color:#39BED1"/>
			<stop  offset="0.7919" style="stop-color:#32B6C8"/>
			<stop  offset="0.8823" style="stop-color:#26A8BA"/>
			<stop  offset="0.9618" style="stop-color:#1694A7"/>
			<stop  offset="1" style="stop-color:#0B879A"/>
		</linearGradient>
		<path fill="url(#SVGID_22_)" d="M133.788,146.396c0.107-0.055,0.26-0.195,0.43-0.375c-8.828-10.242-17.602-22.016-25.719-34.374
			c-0.14,0.209-0.276,0.422-0.416,0.633C108.083,112.281,125.002,139.004,133.788,146.396z"/>
		<linearGradient id="SVGID_23_" gradientUnits="userSpaceOnUse" x1="88.1035" y1="144.2988" x2="101.5361" y2="180.6898">
			<stop  offset="0" style="stop-color:#0B5463"/>
			<stop  offset="1" style="stop-color:#0B5463"/>
		</linearGradient>
		<path opacity="0.2" fill="url(#SVGID_23_)" d="M108.506,178.262c-0.398-0.457-18.246-21.541-26.364-33.9l-1.325,1.51
			c10.186,14.547,19.059,25.395,26.666,33.479L108.506,178.262z"/>
		<linearGradient id="SVGID_24_" gradientUnits="userSpaceOnUse" x1="113.6113" y1="106.8687" x2="129.425" y2="205.3219">
			<stop  offset="0" style="stop-color:#096F80"/>
			<stop  offset="0.0244" style="stop-color:#107B8C"/>
			<stop  offset="0.0888" style="stop-color:#2095A6"/>
			<stop  offset="0.1599" style="stop-color:#2CA8BA"/>
			<stop  offset="0.2403" style="stop-color:#34B6C8"/>
			<stop  offset="0.3378" style="stop-color:#39BFD0"/>
			<stop  offset="0.5" style="stop-color:#3BC1D3"/>
			<stop  offset="0.6718" style="stop-color:#39BED1"/>
			<stop  offset="0.7751" style="stop-color:#33B6C8"/>
			<stop  offset="0.8603" style="stop-color:#28A8BA"/>
			<stop  offset="0.9351" style="stop-color:#1894A7"/>
			<stop  offset="1" style="stop-color:#057B8F"/>
		</linearGradient>
		<path fill="url(#SVGID_24_)" d="M134.217,146.021c-8.828-10.242-17.602-22.016-25.719-34.374
			c-0.929-1.416-1.853-2.834-2.763-4.262c-15.667,0.17-31.37,1.219-45.418,3.324c0.451,0.947,7.536,12.602,12.601,20.401
			c48.58,74.807,71.339,71.865,72.308,71.703c0.968-0.162,2.927-1.459,2.927-1.459l31.283-20.312
			C166.633,178.32,150.338,164.723,134.217,146.021z"/>
	</g>
	<g>
		<path fill="#535E5E" d="M343.781,154.282h22.16l-33.586-46.504l2.139-0.639c4.254-1.265,7.982-3.055,11.08-5.32
			c3.074-2.248,5.531-4.83,7.293-7.666c1.795-2.877,3.125-5.902,3.955-8.993c0.832-3.106,1.254-6.431,1.254-9.878
			c0-4.01-0.484-7.669-1.447-10.873c-0.945-3.176-2.166-5.828-3.621-7.88c-1.453-2.038-3.299-3.849-5.498-5.38
			c-2.252-1.566-4.438-2.762-6.498-3.557c-2.09-0.805-4.533-1.46-7.26-1.945c-2.752-0.492-5.131-0.804-7.061-0.934
			c-1.963-0.131-4.135-0.195-6.449-0.195h-46.498v109.764h16.861v-43.788h21.546L343.781,154.282z M290.606,95.221V59.71h23.753
			c17.242,0,25.982,5.853,25.982,17.397c0,3.053-0.607,5.762-1.812,8.047c-1.199,2.288-2.758,4.109-4.627,5.412
			c-1.812,1.27-4.141,2.271-6.91,2.976c-2.66,0.683-5.287,1.138-7.807,1.356c-2.465,0.215-5.344,0.322-8.559,0.322H290.606z"/>
		<g>
			<polygon fill="#535E5E" points="378.113,44.518 378.113,62.887 396.881,62.887 396.881,52.147 396.881,44.518 			"/>
			<rect x="379.307" y="78.931" fill="#535E5E" width="16.381" height="75.351"/>
		</g>
		<path fill="#535E5E" d="M461.748,93.69c2.494,0.852,4.33,1.846,5.615,3.04c1.285,1.192,2.297,2.726,3.018,4.558
			c0.689,1.75,1.098,3.199,1.252,4.435c0.139,1.169,0.209,2.528,0.209,4.05v44.51h16.383v-44.749c0-3.496-0.182-6.689-0.541-9.494
			c-0.35-2.707-1.137-5.615-2.328-8.641c-1.16-2.93-2.73-5.377-4.68-7.275c-1.949-1.9-4.705-3.521-8.188-4.814
			c-3.518-1.307-7.771-1.967-12.641-1.967c-9.119,0-19.148,2.309-29.814,6.865l-1.373,0.584l-2.93-5.86h-11.107v75.351h16.379
			V97.319l1.014-0.391c7.73-2.971,14.875-4.475,21.238-4.475C456.48,92.454,459.338,92.866,461.748,93.69z"/>
		<path fill="#535E5E" d="M570.332,187.288c2.246-2.07,4.096-4.26,5.494-6.51c1.41-2.268,2.59-4.779,3.498-7.461
			c0.92-2.703,1.564-5.346,1.92-7.857c0.357-2.537,0.541-5.201,0.541-7.924V78.931h-11.994l-1.371,3.942l-1.555-0.646
			c-7.77-3.243-15.076-4.886-21.723-4.886c-3.576,0-7.248,0.401-10.912,1.197c-3.631,0.785-7.418,2.182-11.252,4.15
			c-3.811,1.955-7.219,4.412-10.141,7.306c-2.877,2.854-5.271,6.629-7.113,11.226c-1.852,4.606-2.789,9.863-2.789,15.624
			c0,5.572,0.799,10.664,2.373,15.131c1.566,4.443,3.666,8.156,6.242,11.033c2.6,2.9,5.709,5.369,9.248,7.342
			c3.559,1.982,7.264,3.41,11.02,4.25c9.816,2.186,20.922,1.555,31.471-2.211l2.115-0.756v2.963c0,2.865-0.182,5.523-0.537,7.902
			c-0.365,2.445-1.17,5.014-2.396,7.627c-1.252,2.682-2.967,4.961-5.094,6.775c-2.115,1.799-5.016,3.291-8.613,4.438
			c-3.561,1.129-7.803,1.703-12.604,1.703c-6.861,0-13.92-1.176-20.996-3.498l-1.848-0.674l-4.852,12.545l1.545,0.668
			c8.832,3.439,18.32,5.195,28.141,5.195c5.01,0,9.65-0.432,13.785-1.279c4.113-0.844,7.688-2.002,10.629-3.447
			C565.484,191.118,568.1,189.345,570.332,187.288z M564.355,138.841c-5.449,1.959-10.975,2.955-16.432,2.955
			c-8.879,0-15.84-2.502-20.682-7.432c-4.834-4.916-7.287-11.268-7.287-18.869c0-7.321,2.432-13.26,7.229-17.661
			c4.76-4.361,11.119-6.574,18.914-6.574c5.053,0,11.164,1.037,18.168,3.084l1.139,0.333v43.787L564.355,138.841z"/>
	</g>
</g>
</svg>
