<?xml version="1.0" encoding="utf-8"?>
<!-- Generator: Adobe Illustrator 21.1.0, SVG Export Plug-In . SVG Version: 6.00 Build 0)  -->
<svg version="1.1" id="Calque_1" xmlns="http://www.w3.org/2000/svg" xmlns:xlink="http://www.w3.org/1999/xlink" x="0px" y="0px"
	 viewBox="0 0 400 200" style="enable-background:new 0 0 400 200;" xml:space="preserve">
<style type="text/css">
	.st0{fill:#000747;}
	.st1{fill:url(#SVGID_1_);}
	.st2{fill:url(#SVGID_2_);}
	.st3{fill:url(#SVGID_3_);}
	.st4{fill:url(#SVGID_4_);}
	.st5{fill:url(#SVGID_5_);}
	.st6{fill:url(#SVGID_6_);}
	.st7{opacity:0.4;fill:url(#SVGID_7_);enable-background:new    ;}
	.st8{fill:url(#SVGID_8_);}
	.st9{fill:url(#SVGID_9_);}
	.st10{fill:url(#SVGID_10_);}
	.st11{fill:url(#SVGID_11_);}
	.st12{fill:url(#SVGID_12_);}
	.st13{fill:url(#SVGID_13_);}
	.st14{fill:url(#SVGID_14_);}
	.st15{fill:url(#SVGID_15_);}
	.st16{fill:url(#SVGID_16_);}
	.st17{opacity:0.2;fill:url(#SVGID_17_);enable-background:new    ;}
	.st18{fill:url(#SVGID_18_);}
	.st19{fill:url(#SVGID_19_);}
	.st20{opacity:0.25;fill:url(#SVGID_20_);enable-background:new    ;}
	.st21{fill:url(#SVGID_21_);}
	.st22{fill:url(#SVGID_22_);}
	.st23{opacity:0.2;fill:url(#SVGID_23_);enable-background:new    ;}
	.st24{fill:url(#SVGID_24_);}
</style>
<g>
	<path class="st0" d="M182.9,142.2c-1.5,0-2.8-0.3-4.1-0.8s-2.2-1-2.7-1.6l-0.8-0.8l2.8-9.1c0.6,0.5,1.7,0.8,3.1,0.8
		c1.9,0,3-1,3.4-3.1l8.4-47.5h13.7l-8.7,49.3c-0.7,3.9-2.2,7-4.5,9.2C191.2,141,187.7,142.2,182.9,142.2z M194.4,67
		c0-3.4,0.8-6,2.3-7.5c1.5-1.6,3.9-2.4,7.1-2.4c4.5,0,6.8,2,6.8,6c0,3.4-0.8,5.9-2.3,7.4c-1.6,1.6-4,2.3-7.2,2.3
		C196.7,72.8,194.4,70.9,194.4,67z"/>
	<path class="st0" d="M247.1,106.6c0,1.4,0.7,2.1,2.1,2.1c1.4,0,2.6-0.3,3.6-0.8l-0.4,9.1c-2.6,2.1-5.5,3.1-8.7,3.1
		c-5.9,0-9.2-2.2-9.8-6.5c-2.7,4.3-6.6,6.5-11.9,6.5c-8.8,0-13.2-3.8-13.2-11.4c0-1.3,0.1-2.7,0.4-4.3l1.7-9.4
		c0.9-4.8,2.8-8.7,5.9-11.6s7.1-4.3,12.1-4.3s8.4,1.2,10.1,3.5l0.4-2.4h12.3l-4.5,25.4C247.2,105.9,247.1,106.2,247.1,106.6z
		 M223.2,102.7c-0.1,0.5-0.2,1.2-0.2,2c0,0.9,0.4,1.7,1.2,2.5s2.2,1.3,4.1,1.3c1.9,0,3.6-0.8,5-2.3l2.4-13.6c-0.6-1.3-2-2-4.2-2
		c-4.1,0-6.6,2-7.3,6L223.2,102.7z"/>
	<path class="st0" d="M318.8,108.7c1.2,0,2.3-0.3,3.3-0.8l-0.4,9.1c-0.3,0.3-0.7,0.5-1,0.8c-2.3,1.6-4.8,2.4-7.6,2.4
		c-7.3,0-11-3.1-11-9.2c0-1.1,0.1-2.2,0.3-3.5l1.7-9.9c0.2-1,0.2-1.9,0.2-2.9c0-2.6-1.4-3.9-4.2-3.9c-2.8,0-5,1.1-6.7,3.3L289,119
		h-13.7l3.8-21.5c0.2-1,0.2-1.9,0.2-2.9c0-2.6-1.5-3.9-4.4-3.9c-2.3,0-4.3,0.9-6,2.7l-4.5,25.6h-13.7l6.9-38.8h12.7l-0.9,4.8
		c3.2-4,7.3-6,12.3-6c7,0,11,2.3,11.9,6.9c3.2-4.6,7.5-6.9,13-6.9c5.4,0,8.9,1.2,10.5,3.6c1.1,1.7,1.6,3.5,1.6,5.5s-0.1,3.8-0.4,5.4
		l-2,12c-0.1,0.3-0.1,0.6-0.1,0.9C316.4,108,317.2,108.7,318.8,108.7z"/>
	<path class="st0" d="M338.5,108.7c1.2,0,2.3-0.3,3.3-0.8l-0.4,9.1c-2.5,2.1-5.4,3.1-8.6,3.1c-4.9,0-8.1-1.1-9.5-3.4
		c-1-1.5-1.5-3.1-1.5-4.8s0.1-3.2,0.3-4.5l4.8-27.3h13.7l-4.5,25.4c-0.1,0.3-0.1,0.6-0.1,0.9C336.1,108,336.9,108.7,338.5,108.7z
		 M328.6,67.1c0-3.4,0.8-6,2.3-7.5c1.5-1.6,3.9-2.4,7.1-2.4c4.5,0,6.8,2,6.8,6c0,3.4-0.8,5.9-2.3,7.4c-1.5,1.6-3.9,2.3-7.2,2.3
		C330.8,72.9,328.6,70.9,328.6,67.1z"/>
	<path class="st0" d="M323.9,115.1c0,0-2.1,2.7-5.8,4.1c-3.6,1.4,4.2-7.7,4.2-7.7l0.9,0.9L323.9,115.1z"/>
</g>
<g>
	
		<linearGradient id="SVGID_1_" gradientUnits="userSpaceOnUse" x1="98.8605" y1="491.1522" x2="94.2712" y2="485.798" gradientTransform="matrix(1 0 0 1 -8.0854 -395.1333)">
		<stop  offset="0" style="stop-color:#2B3B6A"/>
		<stop  offset="1" style="stop-color:#2B3B6A"/>
	</linearGradient>
	<polygon class="st1" points="84.7,92 91.8,91.8 88.3,98.5 	"/>
	
		<linearGradient id="SVGID_2_" gradientUnits="userSpaceOnUse" x1="138.3617" y1="493.461" x2="138.3617" y2="530.2604" gradientTransform="matrix(1 0 0 1 -8.0854 -395.1333)">
		<stop  offset="0" style="stop-color:#2B3B6A"/>
		<stop  offset="7.040000e-02" style="stop-color:#2D4576"/>
		<stop  offset="0.2165" style="stop-color:#2E5589"/>
		<stop  offset="0.3608" style="stop-color:#2B5E97"/>
		<stop  offset="0.5" style="stop-color:#29629C"/>
		<stop  offset="0.6392" style="stop-color:#2B5E97"/>
		<stop  offset="0.7835" style="stop-color:#2E5589"/>
		<stop  offset="0.9296" style="stop-color:#2D4576"/>
		<stop  offset="1" style="stop-color:#2B3B6A"/>
	</linearGradient>
	<path class="st2" d="M115.4,93.7c26.1,4.2,29.8,10.7,29.8,10.7c0,0.4,0,0.8,0,1.2c0,0.2-0.1,0.4-0.2,0.7c-0.1,0.3-2.7,5.7-19.6,9.3
		L115.4,93.7z"/>
	
		<linearGradient id="SVGID_3_" gradientUnits="userSpaceOnUse" x1="56.5963" y1="533.0555" x2="68.5368" y2="511.7955" gradientTransform="matrix(1 0 0 1 -8.0854 -395.1333)">
		<stop  offset="0" style="stop-color:#252B59"/>
		<stop  offset="8.590000e-02" style="stop-color:#2B3A69"/>
		<stop  offset="0.2267" style="stop-color:#2E4A7C"/>
		<stop  offset="0.3658" style="stop-color:#2E5487"/>
		<stop  offset="0.5" style="stop-color:#2D578C"/>
		<stop  offset="0.6342" style="stop-color:#2E5487"/>
		<stop  offset="0.7733" style="stop-color:#2E4A7C"/>
		<stop  offset="0.9141" style="stop-color:#2B3A69"/>
		<stop  offset="1" style="stop-color:#252B59"/>
	</linearGradient>
	<path class="st3" d="M49.6,114.7c-5.9,15.7-2.9,20.6-2.7,21c0.1,0.2,0.2,0.4,0.4,0.5c0.4,0,0.8-0.1,1.2-0.2c0,0,10.7-0.5,23.2-18.3
		L49.6,114.7z"/>
	
		<linearGradient id="SVGID_4_" gradientUnits="userSpaceOnUse" x1="90.6789" y1="460.8763" x2="70.9149" y2="437.8182" gradientTransform="matrix(1 0 0 1 -8.0854 -395.1333)">
		<stop  offset="0" style="stop-color:#181844"/>
		<stop  offset="2.840000e-02" style="stop-color:#1E1E4C"/>
		<stop  offset="0.1353" style="stop-color:#283261"/>
		<stop  offset="0.2468" style="stop-color:#2D4172"/>
		<stop  offset="0.3647" style="stop-color:#2E4A7C"/>
		<stop  offset="0.5" style="stop-color:#2E4D7F"/>
		<stop  offset="0.6177" style="stop-color:#2D4576"/>
		<stop  offset="0.8125" style="stop-color:#273160"/>
		<stop  offset="1" style="stop-color:#181844"/>
	</linearGradient>
	<path class="st4" d="M88.6,54.8C74.3,39.2,67.4,40.1,67,40.1c-0.2,0-0.5,0.1-0.7,0.2c-0.5,0.2-1,1.8-1,1.8s-3,8.7,9.1,31.9
		L88.6,54.8z"/>
	
		<linearGradient id="SVGID_5_" gradientUnits="userSpaceOnUse" x1="129.7998" y1="535.5803" x2="114.5313" y2="486.3941" gradientTransform="matrix(1 0 0 1 -8.0854 -395.1333)">
		<stop  offset="0" style="stop-color:#181844"/>
		<stop  offset="2.840000e-02" style="stop-color:#1E1E4C"/>
		<stop  offset="0.1353" style="stop-color:#283261"/>
		<stop  offset="0.2468" style="stop-color:#2D4172"/>
		<stop  offset="0.3647" style="stop-color:#2E4A7C"/>
		<stop  offset="0.5" style="stop-color:#2E4D7F"/>
		<stop  offset="0.6177" style="stop-color:#2D4576"/>
		<stop  offset="0.8125" style="stop-color:#273160"/>
		<stop  offset="1" style="stop-color:#181844"/>
	</linearGradient>
	<path class="st5" d="M101.1,115.1c19.4,22.2,26.2,20.9,26.2,20.9c0.4,0.1,0.9,0.2,1.3,0.2c0.2-0.1,0.3-0.3,0.4-0.5
		c0.3-0.4,5.8-9.4-12.8-41.8L101.1,115.1z"/>
	
		<linearGradient id="SVGID_6_" gradientUnits="userSpaceOnUse" x1="61.4724" y1="493.4608" x2="61.4724" y2="530.2594" gradientTransform="matrix(1 0 0 1 -8.0854 -395.1333)">
		<stop  offset="0" style="stop-color:#2B3B6A"/>
		<stop  offset="7.040000e-02" style="stop-color:#2D4576"/>
		<stop  offset="0.2165" style="stop-color:#2E5589"/>
		<stop  offset="0.3608" style="stop-color:#2B5E97"/>
		<stop  offset="0.5" style="stop-color:#29629C"/>
		<stop  offset="0.6392" style="stop-color:#2B5E97"/>
		<stop  offset="0.7835" style="stop-color:#2E5589"/>
		<stop  offset="0.9296" style="stop-color:#2D4576"/>
		<stop  offset="1" style="stop-color:#2B3B6A"/>
	</linearGradient>
	<path class="st6" d="M76,118.5c-40-1.7-44.8-11.6-45-12.1c-0.1-0.2-0.2-0.4-0.2-0.7c0.1-0.7,1.5-2,1.5-2s10.6-6.5,28.3-10L76,118.5
		z"/>
	
		<linearGradient id="SVGID_7_" gradientUnits="userSpaceOnUse" x1="81.7183" y1="457.3513" x2="96.1647" y2="457.3513" gradientTransform="matrix(1 0 0 1 -8.0854 -395.1333)">
		<stop  offset="0" style="stop-color:#2B3B6A"/>
		<stop  offset="1" style="stop-color:#2B3B6A"/>
	</linearGradient>
	<path class="st7" d="M87.5,53.6c-5,5.4-9.6,11.2-13.8,17.2h1c3.1-3.9,10.8-13.7,13.4-16.5L87.5,53.6z"/>
	
		<linearGradient id="SVGID_8_" gradientUnits="userSpaceOnUse" x1="100.7986" y1="472.628" x2="100.7986" y2="437.9185" gradientTransform="matrix(1 0 0 1 -8.0854 -395.1333)">
		<stop  offset="0" style="stop-color:#252B59"/>
		<stop  offset="0.5" style="stop-color:#2D578C"/>
		<stop  offset="0.6934" style="stop-color:#2D5588"/>
		<stop  offset="0.8038" style="stop-color:#2E4F80"/>
		<stop  offset="0.8932" style="stop-color:#2D4474"/>
		<stop  offset="0.971" style="stop-color:#283463"/>
		<stop  offset="1" style="stop-color:#252B59"/>
	</linearGradient>
	<path class="st8" d="M103.6,71.6c10.5-24.7,6.4-30.4,6.4-30.4c-0.1-0.3-0.2-0.7-0.3-1c-0.2-0.1-0.4-0.1-0.7-0.2
		c-0.5-0.1-11.4-1.5-34.4,30.7L103.6,71.6z"/>
	
		<linearGradient id="SVGID_9_" gradientUnits="userSpaceOnUse" x1="69.0946" y1="539.993" x2="132.5041" y2="444.1449" gradientTransform="matrix(1 0 0 1 -8.0854 -395.1333)">
		<stop  offset="0" style="stop-color:#2867A2"/>
		<stop  offset="8.239999e-02" style="stop-color:#177EBC"/>
		<stop  offset="0.1675" style="stop-color:#0E91D1"/>
		<stop  offset="0.2527" style="stop-color:#10A2E1"/>
		<stop  offset="0.337" style="stop-color:#18ACEA"/>
		<stop  offset="0.42" style="stop-color:#24B1ED"/>
		<stop  offset="0.5" style="stop-color:#28B1ED"/>
		<stop  offset="0.58" style="stop-color:#24B1ED"/>
		<stop  offset="0.663" style="stop-color:#18ACEA"/>
		<stop  offset="0.7473" style="stop-color:#10A2E1"/>
		<stop  offset="0.8325" style="stop-color:#0E91D1"/>
		<stop  offset="0.9176" style="stop-color:#177EBC"/>
		<stop  offset="1" style="stop-color:#2867A2"/>
	</linearGradient>
	<path class="st9" d="M87.8,133.6c-14.2,15.4-21,14.5-21.4,14.5c-0.6-0.2-1.2-0.5-1.7-0.8l-17.3-11c7.3-1.6,16.3-10.2,25.7-21.3
		L87.8,133.6z"/>
	
		<linearGradient id="SVGID_10_" gradientUnits="userSpaceOnUse" x1="63.3957" y1="541.915" x2="88.5107" y2="519.4283" gradientTransform="matrix(1 0 0 1 -8.0854 -395.1333)">
		<stop  offset="0" style="stop-color:#2C5D95"/>
		<stop  offset="8.220001e-02" style="stop-color:#246EAB"/>
		<stop  offset="0.1808" style="stop-color:#1B79B9"/>
		<stop  offset="0.3007" style="stop-color:#1080C2"/>
		<stop  offset="0.5" style="stop-color:#0E81C5"/>
		<stop  offset="0.6993" style="stop-color:#1080C2"/>
		<stop  offset="0.8192" style="stop-color:#1B79B9"/>
		<stop  offset="0.9178" style="stop-color:#246EAB"/>
		<stop  offset="1" style="stop-color:#2C5D95"/>
	</linearGradient>
	<path class="st10" d="M88.4,134.2c-14.2,15.4-21,14.5-21.4,14.5c-0.6-0.2-1.2-0.5-1.7-0.8l-17.9-11.6c7.3-1.6,16.9-9.6,26.3-20.7
		L88.4,134.2z"/>
	
		<linearGradient id="SVGID_11_" gradientUnits="userSpaceOnUse" x1="61.1489" y1="443.4868" x2="119.4676" y2="540.6844" gradientTransform="matrix(1 0 0 1 -8.0854 -395.1333)">
		<stop  offset="0" style="stop-color:#2C5D95"/>
		<stop  offset="1.760000e-02" style="stop-color:#2A6199"/>
		<stop  offset="0.1407" style="stop-color:#1C79B7"/>
		<stop  offset="0.2631" style="stop-color:#0A8CCA"/>
		<stop  offset="0.3837" style="stop-color:#0B97D4"/>
		<stop  offset="0.5" style="stop-color:#0E9AD8"/>
		<stop  offset="0.6163" style="stop-color:#0B97D4"/>
		<stop  offset="0.7369" style="stop-color:#0A8CCA"/>
		<stop  offset="0.8593" style="stop-color:#1C79B7"/>
		<stop  offset="0.9824" style="stop-color:#2A6199"/>
		<stop  offset="1" style="stop-color:#2C5D95"/>
	</linearGradient>
	<path class="st11" d="M50.5,74.2c-6.3-16.2-3.2-21.3-3-21.6c0.4-0.5,0.9-0.9,1.4-1.2l17.3-11c-1.5,7.1,2.3,18,8.2,30.7L50.5,74.2z"
		/>
	
		<linearGradient id="SVGID_12_" gradientUnits="userSpaceOnUse" x1="124.2305" y1="540.0932" x2="86.7315" y2="492.8617" gradientTransform="matrix(1 0 0 1 -8.0854 -395.1333)">
		<stop  offset="0" style="stop-color:#2C5D95"/>
		<stop  offset="2.570000e-02" style="stop-color:#2A6199"/>
		<stop  offset="0.2053" style="stop-color:#1C79B7"/>
		<stop  offset="0.384" style="stop-color:#0A8CCA"/>
		<stop  offset="0.5599" style="stop-color:#0B97D4"/>
		<stop  offset="0.7296" style="stop-color:#0E9AD8"/>
		<stop  offset="0.7925" style="stop-color:#0B97D4"/>
		<stop  offset="0.8577" style="stop-color:#0A8CCA"/>
		<stop  offset="0.9239" style="stop-color:#1C79B7"/>
		<stop  offset="0.9905" style="stop-color:#2A6199"/>
		<stop  offset="1" style="stop-color:#2C5D95"/>
	</linearGradient>
	<path class="st12" d="M87,93.5c-8.7,0-17.4,0.7-26,1.9c0.3,0.5,4.3,7.2,7.2,11.7c27.8,42.8,40.8,41.1,41.4,41
		c0.6-0.2,1.2-0.5,1.7-0.8l17.3-11C116.8,133.7,100.4,114.5,87,93.5z"/>
	
		<linearGradient id="SVGID_13_" gradientUnits="userSpaceOnUse" x1="70.0452" y1="467.3001" x2="62.7441" y2="441.0163" gradientTransform="matrix(1 0 0 1 -8.0854 -395.1333)">
		<stop  offset="0" style="stop-color:#2C5D95"/>
		<stop  offset="8.220001e-02" style="stop-color:#246EAB"/>
		<stop  offset="0.1808" style="stop-color:#1B79B9"/>
		<stop  offset="0.3007" style="stop-color:#1080C2"/>
		<stop  offset="0.5" style="stop-color:#0E81C5"/>
		<stop  offset="0.6993" style="stop-color:#1080C2"/>
		<stop  offset="0.8192" style="stop-color:#1B79B9"/>
		<stop  offset="0.9178" style="stop-color:#246EAB"/>
		<stop  offset="1" style="stop-color:#2C5D95"/>
	</linearGradient>
	<path class="st13" d="M49.9,74.8c-6.3-16.2-3.2-21.3-3-21.6c0.4-0.5,0.9-0.9,1.4-1.2l17.9-11.6c-1.5,7.1,1.7,18.6,7.6,31.2
		L49.9,74.8z"/>
	
		<linearGradient id="SVGID_14_" gradientUnits="userSpaceOnUse" x1="152.7302" y1="485.0247" x2="38.9756" y2="485.0247" gradientTransform="matrix(1 0 0 1 -8.0854 -395.1333)">
		<stop  offset="0" style="stop-color:#2867A2"/>
		<stop  offset="1.280000e-02" style="stop-color:#256BA7"/>
		<stop  offset="0.1121" style="stop-color:#0B83C3"/>
		<stop  offset="0.2115" style="stop-color:#1797D8"/>
		<stop  offset="0.3099" style="stop-color:#25A3E2"/>
		<stop  offset="0.4066" style="stop-color:#27ABE7"/>
		<stop  offset="0.5" style="stop-color:#2AAEEA"/>
		<stop  offset="0.5934" style="stop-color:#27ABE7"/>
		<stop  offset="0.6901" style="stop-color:#25A3E2"/>
		<stop  offset="0.7885" style="stop-color:#1797D8"/>
		<stop  offset="0.8879" style="stop-color:#0B83C3"/>
		<stop  offset="0.9872" style="stop-color:#256BA7"/>
		<stop  offset="1" style="stop-color:#2867A2"/>
	</linearGradient>
	<path class="st14" d="M115.3,95.9c13.5,1.9,24.7,4.7,29.8,9.8V85.1c0-0.6-0.1-1.3-0.2-1.9c-0.1-0.3-2.7-5.6-19-9.1L115.3,95.9z"/>
	
		<linearGradient id="SVGID_15_" gradientUnits="userSpaceOnUse" x1="120.1217" y1="483.364" x2="152.6351" y2="485.1161" gradientTransform="matrix(1 0 0 1 -8.0854 -395.1333)">
		<stop  offset="0" style="stop-color:#2E5284"/>
		<stop  offset="6.100000e-03" style="stop-color:#2E5486"/>
		<stop  offset="9.120000e-02" style="stop-color:#29649D"/>
		<stop  offset="0.1876" style="stop-color:#236FAD"/>
		<stop  offset="0.3049" style="stop-color:#1D77B6"/>
		<stop  offset="0.5" style="stop-color:#1C78B9"/>
		<stop  offset="0.6951" style="stop-color:#1D77B6"/>
		<stop  offset="0.8124" style="stop-color:#236FAD"/>
		<stop  offset="0.9088" style="stop-color:#29649D"/>
		<stop  offset="0.9939" style="stop-color:#2E5486"/>
		<stop  offset="1" style="stop-color:#2E5284"/>
	</linearGradient>
	<path class="st15" d="M115.3,95.1c13.5,1.9,24.7,5.5,29.8,10.6V84.3c0-0.6-0.1-1.3-0.2-1.9c-0.1-0.3-2.7-5.6-19-9.1L115.3,95.1z"/>
	
		<linearGradient id="SVGID_16_" gradientUnits="userSpaceOnUse" x1="38.8853" y1="483.4189" x2="97.5463" y2="483.4189" gradientTransform="matrix(1 0 0 1 -8.0854 -395.1333)">
		<stop  offset="0" style="stop-color:#2867A2"/>
		<stop  offset="2.250000e-02" style="stop-color:#256BA7"/>
		<stop  offset="0.1971" style="stop-color:#0B83C3"/>
		<stop  offset="0.3718" style="stop-color:#1797D8"/>
		<stop  offset="0.5447" style="stop-color:#25A3E2"/>
		<stop  offset="0.7147" style="stop-color:#27ABE7"/>
		<stop  offset="0.8788" style="stop-color:#2AAEEA"/>
		<stop  offset="0.9015" style="stop-color:#27ABE7"/>
		<stop  offset="0.9249" style="stop-color:#25A3E2"/>
		<stop  offset="0.9487" style="stop-color:#1797D8"/>
		<stop  offset="0.9728" style="stop-color:#0B83C3"/>
		<stop  offset="0.9969" style="stop-color:#256BA7"/>
		<stop  offset="1" style="stop-color:#2867A2"/>
	</linearGradient>
	<path class="st16" d="M103.1,71.3c-3-0.1-9.5-0.4-15.1-0.4c-51.1,0-56.7,11.8-57,12.4c-0.2,0.6-0.2,1.2-0.2,1.9v20.6
		c5-5,15.9-7.7,29.2-9.7c8.6-1.2,17.2-1.9,25.9-2c1.6,0,3.2,0,4.8,0C90.7,94.1,106.1,71.4,103.1,71.3z"/>
	
		<linearGradient id="SVGID_17_" gradientUnits="userSpaceOnUse" x1="80.1403" y1="468.2385" x2="58.0941" y2="465.1382" gradientTransform="matrix(1 0 0 1 -8.0854 -395.1333)">
		<stop  offset="0" style="stop-color:#2B3B6A"/>
		<stop  offset="1" style="stop-color:#2B3B6A"/>
	</linearGradient>
	<path class="st17" d="M73.9,69.7c-10.7,0.5-18.4,1.3-24.8,3.1l0.3,0.8c0.6-0.1,1.3-0.3,1.9-0.4c7.7-1.2,15.4-2,23.1-2.3L73.9,69.7z
		"/>
	
		<linearGradient id="SVGID_18_" gradientUnits="userSpaceOnUse" x1="102.5728" y1="487.0945" x2="40.2712" y2="478.3333" gradientTransform="matrix(1 0 0 1 -8.0854 -395.1333)">
		<stop  offset="0" style="stop-color:#2867A2"/>
		<stop  offset="3.820000e-02" style="stop-color:#2174B1"/>
		<stop  offset="0.1177" style="stop-color:#0B86C4"/>
		<stop  offset="0.2081" style="stop-color:#0A94D2"/>
		<stop  offset="0.3177" style="stop-color:#0C9BDB"/>
		<stop  offset="0.5" style="stop-color:#109EDE"/>
		<stop  offset="0.6823" style="stop-color:#0C9BDB"/>
		<stop  offset="0.7919" style="stop-color:#0A94D2"/>
		<stop  offset="0.8823" style="stop-color:#0B86C4"/>
		<stop  offset="0.9618" style="stop-color:#2174B1"/>
		<stop  offset="1" style="stop-color:#2867A2"/>
	</linearGradient>
	<path class="st18" d="M103.1,70.5c-3-0.1-9.5-0.4-15.1-0.4c-51.1,0-56.7,11.8-57,12.4c-0.2,0.6-0.2,1.2-0.2,1.9v21.4
		c5-5,15.9-8.5,29.2-10.5c8.6-1.2,17.2-1.9,25.9-2c1.6,0,3.2,0,4.8,0C93,93.3,106.1,70.6,103.1,70.5z"/>
	
		<linearGradient id="SVGID_19_" gradientUnits="userSpaceOnUse" x1="131.4479" y1="443.9607" x2="101.821" y2="494.9849" gradientTransform="matrix(1 0 0 1 -8.0854 -395.1333)">
		<stop  offset="0" style="stop-color:#2867A2"/>
		<stop  offset="0.1238" style="stop-color:#177EBC"/>
		<stop  offset="0.2516" style="stop-color:#0E91D1"/>
		<stop  offset="0.3797" style="stop-color:#10A2E1"/>
		<stop  offset="0.5064" style="stop-color:#18ACEA"/>
		<stop  offset="0.631" style="stop-color:#24B1ED"/>
		<stop  offset="0.7513" style="stop-color:#28B1ED"/>
		<stop  offset="0.7911" style="stop-color:#24B1ED"/>
		<stop  offset="0.8324" style="stop-color:#18ACEA"/>
		<stop  offset="0.8743" style="stop-color:#10A2E1"/>
		<stop  offset="0.9167" style="stop-color:#0E91D1"/>
		<stop  offset="0.959" style="stop-color:#177EBC"/>
		<stop  offset="1" style="stop-color:#2867A2"/>
	</linearGradient>
	<path class="st19" d="M88,95c13.9-20.9,24.2-42.8,21.7-54.7l17.3,11c0.5,0.3,1,0.7,1.4,1.2c0.3,0.5,7.1,11.7-20.7,54.5
		c-2,3.2-3.9,6.9-4.6,7.2c-4.1-4-12.6-15.6-14.7-18.5C88.1,95.3,88,95,88,95z"/>
	
		<linearGradient id="SVGID_20_" gradientUnits="userSpaceOnUse" x1="135.1721" y1="469.6265" x2="124.3852" y2="489.8693" gradientTransform="matrix(1 0 0 1 -8.0854 -395.1333)">
		<stop  offset="0" style="stop-color:#2B3B6A"/>
		<stop  offset="1" style="stop-color:#2B3B6A"/>
	</linearGradient>
	<path class="st20" d="M126.5,73.4c-3.1,7.8-6.8,15.3-11.1,22.4l1.3,0.2c5.5-9.5,8.7-16.5,10.9-22.4L126.5,73.4z"/>
	
		<linearGradient id="SVGID_21_" gradientUnits="userSpaceOnUse" x1="130.4756" y1="445.081" x2="100.7547" y2="500.8552" gradientTransform="matrix(1 0 0 1 -8.0854 -395.1333)">
		<stop  offset="0" style="stop-color:#2867A2"/>
		<stop  offset="3.820000e-02" style="stop-color:#2174B1"/>
		<stop  offset="0.1177" style="stop-color:#0B86C4"/>
		<stop  offset="0.2081" style="stop-color:#0A94D2"/>
		<stop  offset="0.3177" style="stop-color:#0C9BDB"/>
		<stop  offset="0.5" style="stop-color:#109EDE"/>
		<stop  offset="0.6823" style="stop-color:#0C9BDB"/>
		<stop  offset="0.7919" style="stop-color:#0A94D2"/>
		<stop  offset="0.8823" style="stop-color:#0B86C4"/>
		<stop  offset="0.9618" style="stop-color:#2174B1"/>
		<stop  offset="1" style="stop-color:#2867A2"/>
	</linearGradient>
	<path class="st21" d="M108.4,107.6c27.8-42.8,21-54,20.7-54.5c-0.4-0.5-0.9-0.9-1.4-1.2l-17.9-11.6c2.5,11.8-7.4,34.6-21.2,55.5
		c4.6,7.1,9.4,14,14.5,19.9C104,114.6,106.5,110.5,108.4,107.6z"/>
	
		<linearGradient id="SVGID_22_" gradientUnits="userSpaceOnUse" x1="132.7816" y1="446.3374" x2="102.7991" y2="502.6027" gradientTransform="matrix(1 0 0 1 -8.0854 -395.1333)">
		<stop  offset="0" style="stop-color:#2867A2"/>
		<stop  offset="3.820000e-02" style="stop-color:#2174B1"/>
		<stop  offset="0.1177" style="stop-color:#0B86C4"/>
		<stop  offset="0.2081" style="stop-color:#0A94D2"/>
		<stop  offset="0.3177" style="stop-color:#0C9BDB"/>
		<stop  offset="0.5" style="stop-color:#109EDE"/>
		<stop  offset="0.6823" style="stop-color:#0C9BDB"/>
		<stop  offset="0.7919" style="stop-color:#0A94D2"/>
		<stop  offset="0.8823" style="stop-color:#0B86C4"/>
		<stop  offset="0.9618" style="stop-color:#2174B1"/>
		<stop  offset="1" style="stop-color:#2867A2"/>
	</linearGradient>
	<path class="st22" d="M102.5,116.4c0.1-0.1,0.2-0.1,0.2-0.2c-5.3-6.2-10.2-12.8-14.7-19.7c-0.1,0.1-0.2,0.2-0.2,0.4
		C87.7,96.9,97.4,112.1,102.5,116.4z"/>
	
		<linearGradient id="SVGID_23_" gradientUnits="userSpaceOnUse" x1="84.3914" y1="510.3131" x2="92.0817" y2="531.1475" gradientTransform="matrix(1 0 0 1 -8.0854 -395.1333)">
		<stop  offset="0" style="stop-color:#2B3B6A"/>
		<stop  offset="1" style="stop-color:#2B3B6A"/>
	</linearGradient>
	<path class="st23" d="M88,134.6c-0.2-0.3-10.4-12.3-15.1-19.4l-0.8,0.9c4.6,6.7,9.7,13.1,15.3,19.2L88,134.6z"/>
	
		<linearGradient id="SVGID_24_" gradientUnits="userSpaceOnUse" x1="98.9951" y1="488.8852" x2="108.0486" y2="545.2502" gradientTransform="matrix(1 0 0 1 -8.0854 -395.1333)">
		<stop  offset="0" style="stop-color:#2E5284"/>
		<stop  offset="2.440000e-02" style="stop-color:#2C5C92"/>
		<stop  offset="8.880000e-02" style="stop-color:#2075B1"/>
		<stop  offset="0.1599" style="stop-color:#0B86C4"/>
		<stop  offset="0.2403" style="stop-color:#0A94D2"/>
		<stop  offset="0.3378" style="stop-color:#0E9CDA"/>
		<stop  offset="0.5" style="stop-color:#109EDE"/>
		<stop  offset="0.6718" style="stop-color:#0C9BDB"/>
		<stop  offset="0.7751" style="stop-color:#0A94D2"/>
		<stop  offset="0.8603" style="stop-color:#0B86C4"/>
		<stop  offset="0.9351" style="stop-color:#2174B1"/>
		<stop  offset="1" style="stop-color:#2C5D95"/>
	</linearGradient>
	<path class="st24" d="M102.7,116.2c-5.3-6.2-10.2-12.8-14.7-19.7c-0.5-0.8-1.1-1.6-1.6-2.4c-8.7,0-17.4,0.7-26,1.9
		c0.3,0.5,4.3,7.2,7.2,11.7c27.8,42.8,40.8,41.1,41.4,41c0.6-0.2,1.2-0.5,1.7-0.8l17.9-11.6C121.3,134.7,111.9,126.9,102.7,116.2z"
		/>
</g>
</svg>
