<?xml version="1.0" encoding="utf-8"?>
<!-- Generator: Adobe Illustrator 21.1.0, SVG Export Plug-In . SVG Version: 6.00 Build 0)  -->
<svg version="1.1" id="Calque_1" xmlns="http://www.w3.org/2000/svg" xmlns:xlink="http://www.w3.org/1999/xlink" x="0px" y="0px"
	 viewBox="0 0 400 144" style="enable-background:new 0 0 400 144;" xml:space="preserve">
<style type="text/css">
	.st0{fill:#000747;}
	.st1{fill:url(#SVGID_1_);}
	.st2{fill:url(#SVGID_2_);}
	.st3{fill:url(#SVGID_3_);}
	.st4{fill:url(#SVGID_4_);}
	.st5{fill:url(#SVGID_5_);}
	.st6{fill:url(#SVGID_6_);}
	.st7{opacity:0.4;fill:url(#SVGID_7_);enable-background:new    ;}
	.st8{fill:url(#SVGID_8_);}
	.st9{fill:url(#SVGID_9_);}
	.st10{fill:url(#SVGID_10_);}
	.st11{fill:url(#SVGID_11_);}
	.st12{fill:url(#SVGID_12_);}
	.st13{fill:url(#SVGID_13_);}
	.st14{fill:url(#SVGID_14_);}
	.st15{fill:url(#SVGID_15_);}
	.st16{fill:url(#SVGID_16_);}
	.st17{opacity:0.2;fill:url(#SVGID_17_);enable-background:new    ;}
	.st18{fill:url(#SVGID_18_);}
	.st19{fill:url(#SVGID_19_);}
	.st20{opacity:0.25;fill:url(#SVGID_20_);enable-background:new    ;}
	.st21{fill:url(#SVGID_21_);}
	.st22{fill:url(#SVGID_22_);}
	.st23{opacity:0.2;fill:url(#SVGID_23_);enable-background:new    ;}
	.st24{fill:url(#SVGID_24_);}
	.st25{fill-rule:evenodd;clip-rule:evenodd;fill:#000747;}
</style>
<g>
	<g>
		<g>
			<path class="st0" d="M218.6,106.7l-1.2-2.6h-5.6l-1.2,2.6H209l4.9-10.7h1.4l5,10.7H218.6z M212.3,102.8h4.5l-2.3-5.1L212.3,102.8
				z"/>
			<path class="st0" d="M237.6,101v5c-0.5,0.2-1.1,0.4-1.8,0.5c-0.7,0.1-1.4,0.2-2.2,0.2c-1.1,0-2.1-0.2-2.9-0.7
				c-0.8-0.4-1.4-1.1-1.9-1.9c-0.4-0.8-0.6-1.8-0.6-2.9c0-1.1,0.2-2.1,0.6-2.9c0.4-0.8,1.1-1.4,1.9-1.9c0.8-0.4,1.8-0.7,2.8-0.7
				c0.8,0,1.5,0.1,2.2,0.3c0.7,0.2,1.2,0.5,1.7,1l-0.6,1.2c-0.5-0.4-1-0.7-1.6-0.9c-0.5-0.2-1.1-0.3-1.7-0.3c-1.2,0-2.1,0.4-2.8,1.1
				c-0.6,0.7-0.9,1.7-0.9,3.1c0,1.4,0.3,2.4,1,3.2s1.6,1.1,2.9,1.1c0.8,0,1.7-0.1,2.4-0.4v-3h-2.6V101H237.6z"/>
			<path class="st0" d="M249,96h1.5v10.7h-1.2l-6.4-8.1v8.1h-1.5V96h1.2l6.4,8.1V96z"/>
			<path class="st0" d="M255.6,105.7c-0.8-0.7-1.1-1.8-1.1-3.3V96h1.6v6.5c0,1,0.2,1.7,0.7,2.2s1.2,0.8,2.2,0.8c1,0,1.7-0.3,2.2-0.8
				c0.5-0.5,0.7-1.3,0.7-2.2V96h1.6v6.4c0,1.4-0.4,2.5-1.1,3.3c-0.8,0.7-1.9,1.1-3.4,1.1C257.4,106.8,256.3,106.5,255.6,105.7z"/>
			<path class="st0" d="M278.7,99.5c0.5,0.3,0.9,0.8,1.2,1.4c0.3,0.6,0.4,1.3,0.4,2.1c0,0.8-0.1,1.5-0.4,2s-0.7,1-1.2,1.4
				s-1.1,0.5-1.8,0.5c-0.6,0-1.1-0.1-1.6-0.4s-0.8-0.6-1-1.1v4.6h-1.6v-8.7c0-0.8,0-1.5-0.1-2.1h1.5l0.2,1.4c0.2-0.5,0.5-0.9,1-1.2
				c0.5-0.3,1-0.4,1.7-0.4C277.6,99,278.2,99.1,278.7,99.5z M278.2,104.9c0.4-0.5,0.6-1.1,0.6-2c0-0.9-0.2-1.5-0.6-2
				c-0.4-0.5-0.9-0.7-1.7-0.7c-0.7,0-1.3,0.2-1.7,0.7c-0.4,0.5-0.6,1.1-0.6,2c0,0.9,0.2,1.5,0.6,2c0.4,0.5,0.9,0.7,1.7,0.7
				C277.2,105.6,277.8,105.4,278.2,104.9z"/>
			<path class="st0" d="M290.8,99.2v7.6h-1.6v-1.3c-0.2,0.5-0.6,0.8-1,1c-0.5,0.2-1,0.4-1.6,0.4c-0.7,0-1.3-0.2-1.8-0.5
				s-0.9-0.8-1.2-1.4s-0.4-1.3-0.4-2c0-0.8,0.1-1.5,0.4-2.1c0.3-0.6,0.7-1.1,1.2-1.4s1.1-0.5,1.8-0.5c0.6,0,1.1,0.1,1.6,0.4
				c0.4,0.2,0.8,0.6,1,1v-1.2H290.8z M288.6,104.9c0.4-0.5,0.6-1.1,0.6-2c0-0.9-0.2-1.5-0.6-2c-0.4-0.5-0.9-0.7-1.7-0.7
				c-0.7,0-1.3,0.2-1.7,0.7c-0.4,0.5-0.6,1.2-0.6,2c0,0.9,0.2,1.5,0.6,2s1,0.7,1.7,0.7C287.7,105.6,288.2,105.4,288.6,104.9z"/>
			<path class="st0" d="M295.8,106.3c-0.6-0.3-1-0.8-1.3-1.4c-0.3-0.6-0.5-1.3-0.5-2c0-0.8,0.2-1.5,0.5-2.1c0.3-0.6,0.8-1.1,1.4-1.4
				s1.3-0.5,2.1-0.5c0.6,0,1.1,0.1,1.6,0.3c0.5,0.2,0.9,0.4,1.2,0.7l-0.5,1.1c-0.7-0.6-1.5-0.8-2.2-0.8c-0.8,0-1.4,0.2-1.8,0.7
				c-0.4,0.5-0.6,1.1-0.6,2s0.2,1.5,0.6,2s1,0.7,1.8,0.7c0.8,0,1.5-0.3,2.2-0.8l0.5,1.1c-0.3,0.3-0.8,0.5-1.3,0.7s-1.1,0.3-1.6,0.3
				C297.1,106.8,296.4,106.7,295.8,106.3z"/>
			<path class="st0" d="M310.9,106.7h-2l-3.8-3.6v3.6h-1.6v-11h1.6v6.9l3.5-3.4h2l-3.8,3.6L310.9,106.7z"/>
			<path class="st0" d="M320.3,99.2v7.6h-1.6v-1.3c-0.2,0.5-0.6,0.8-1,1c-0.5,0.2-1,0.4-1.6,0.4c-0.7,0-1.3-0.2-1.8-0.5
				s-0.9-0.8-1.2-1.4s-0.4-1.3-0.4-2c0-0.8,0.1-1.5,0.4-2.1c0.3-0.6,0.7-1.1,1.2-1.4s1.1-0.5,1.8-0.5c0.6,0,1.1,0.1,1.6,0.4
				c0.4,0.2,0.8,0.6,1,1v-1.2H320.3z M318.2,104.9c0.4-0.5,0.6-1.1,0.6-2c0-0.9-0.2-1.5-0.6-2c-0.4-0.5-0.9-0.7-1.7-0.7
				c-0.7,0-1.3,0.2-1.7,0.7c-0.4,0.5-0.6,1.2-0.6,2c0,0.9,0.2,1.5,0.6,2s1,0.7,1.7,0.7C317.3,105.6,317.8,105.4,318.2,104.9z"/>
			<path class="st0" d="M331.3,99.2v7.4c0,1.1-0.3,2-0.9,2.6c-0.6,0.6-1.6,0.9-2.8,0.9c-1.2,0-2.2-0.2-3.1-0.8l0.3-1.2
				c0.5,0.2,1,0.4,1.4,0.6c0.5,0.1,0.9,0.2,1.4,0.2c1.5,0,2.2-0.7,2.2-2.2v-1.6c-0.2,0.4-0.6,0.8-1,1c-0.5,0.3-1,0.4-1.6,0.4
				c-0.7,0-1.3-0.2-1.8-0.5c-0.5-0.3-1-0.8-1.2-1.3c-0.3-0.6-0.4-1.2-0.4-2s0.1-1.4,0.4-2c0.3-0.6,0.7-1,1.2-1.3
				c0.5-0.3,1.1-0.5,1.8-0.5c0.6,0,1.1,0.1,1.6,0.4c0.5,0.2,0.8,0.6,1,1v-1.2H331.3z M329.1,104.6c0.4-0.5,0.6-1.1,0.6-1.9
				s-0.2-1.4-0.6-1.9s-1-0.7-1.7-0.7c-0.7,0-1.3,0.2-1.7,0.7s-0.6,1.1-0.6,1.9c0,0.8,0.2,1.4,0.6,1.9s1,0.7,1.7,0.7
				C328.1,105.3,328.7,105.1,329.1,104.6z"/>
			<path class="st0" d="M341.7,103H336c0.1,1.8,0.9,2.7,2.5,2.7c0.9,0,1.7-0.3,2.5-0.9l0.5,1.1c-0.4,0.3-0.8,0.5-1.3,0.7
				c-0.5,0.2-1.1,0.3-1.6,0.3c-1.3,0-2.2-0.3-3-1s-1.1-1.6-1.1-2.9c0-0.8,0.2-1.5,0.5-2.1c0.3-0.6,0.8-1.1,1.3-1.4
				c0.6-0.3,1.2-0.5,2-0.5c1.1,0,1.9,0.3,2.5,1s0.9,1.6,0.9,2.7V103z M336.8,100.6c-0.4,0.3-0.6,0.8-0.7,1.5h4.2
				c-0.1-0.6-0.3-1.1-0.6-1.5c-0.3-0.3-0.8-0.5-1.4-0.5C337.7,100.1,337.2,100.3,336.8,100.6z"/>
		</g>
		<g>
			<g>
				
					<linearGradient id="SVGID_1_" gradientUnits="userSpaceOnUse" x1="98.8605" y1="455.8635" x2="94.2712" y2="450.5093" gradientTransform="matrix(1 0 0 1 -8.0854 -395.1333)">
					<stop  offset="0" style="stop-color:#2B3B6A"/>
					<stop  offset="1" style="stop-color:#2B3B6A"/>
				</linearGradient>
				<polygon class="st1" points="84.7,56.8 91.8,56.5 88.3,63.2 				"/>
				
					<linearGradient id="SVGID_2_" gradientUnits="userSpaceOnUse" x1="138.3617" y1="458.1723" x2="138.3617" y2="494.9717" gradientTransform="matrix(1 0 0 1 -8.0854 -395.1333)">
					<stop  offset="0" style="stop-color:#2B3B6A"/>
					<stop  offset="7.040000e-02" style="stop-color:#2D4576"/>
					<stop  offset="0.2165" style="stop-color:#2E5589"/>
					<stop  offset="0.3608" style="stop-color:#2B5E97"/>
					<stop  offset="0.5" style="stop-color:#29629C"/>
					<stop  offset="0.6392" style="stop-color:#2B5E97"/>
					<stop  offset="0.7835" style="stop-color:#2E5589"/>
					<stop  offset="0.9296" style="stop-color:#2D4576"/>
					<stop  offset="1" style="stop-color:#2B3B6A"/>
				</linearGradient>
				<path class="st2" d="M115.4,58.4c26.1,4.2,29.8,10.7,29.8,10.7c0,0.4,0,0.8,0,1.2c0,0.2-0.1,0.4-0.2,0.7
					c-0.1,0.3-2.7,5.7-19.6,9.3L115.4,58.4z"/>
				
					<linearGradient id="SVGID_3_" gradientUnits="userSpaceOnUse" x1="56.5963" y1="497.7668" x2="68.5368" y2="476.5068" gradientTransform="matrix(1 0 0 1 -8.0854 -395.1333)">
					<stop  offset="0" style="stop-color:#252B59"/>
					<stop  offset="8.590000e-02" style="stop-color:#2B3A69"/>
					<stop  offset="0.2267" style="stop-color:#2E4A7C"/>
					<stop  offset="0.3658" style="stop-color:#2E5487"/>
					<stop  offset="0.5" style="stop-color:#2D578C"/>
					<stop  offset="0.6342" style="stop-color:#2E5487"/>
					<stop  offset="0.7733" style="stop-color:#2E4A7C"/>
					<stop  offset="0.9141" style="stop-color:#2B3A69"/>
					<stop  offset="1" style="stop-color:#252B59"/>
				</linearGradient>
				<path class="st3" d="M49.6,79.4c-5.9,15.7-2.9,20.6-2.7,21c0.1,0.2,0.2,0.4,0.4,0.5c0.4,0,0.8-0.1,1.2-0.2
					c0,0,10.7-0.5,23.2-18.3L49.6,79.4z"/>
				
					<linearGradient id="SVGID_4_" gradientUnits="userSpaceOnUse" x1="90.6789" y1="425.5876" x2="70.9149" y2="402.5294" gradientTransform="matrix(1 0 0 1 -8.0854 -395.1333)">
					<stop  offset="0" style="stop-color:#181844"/>
					<stop  offset="2.840000e-02" style="stop-color:#1E1E4C"/>
					<stop  offset="0.1353" style="stop-color:#283261"/>
					<stop  offset="0.2468" style="stop-color:#2D4172"/>
					<stop  offset="0.3647" style="stop-color:#2E4A7C"/>
					<stop  offset="0.5" style="stop-color:#2E4D7F"/>
					<stop  offset="0.6177" style="stop-color:#2D4576"/>
					<stop  offset="0.8125" style="stop-color:#273160"/>
					<stop  offset="1" style="stop-color:#181844"/>
				</linearGradient>
				<path class="st4" d="M88.6,19.5C74.3,3.9,67.4,4.8,67,4.8c-0.2,0-0.5,0.1-0.7,0.2c-0.5,0.2-1,1.8-1,1.8s-3,8.7,9.1,31.9
					L88.6,19.5z"/>
				
					<linearGradient id="SVGID_5_" gradientUnits="userSpaceOnUse" x1="129.7998" y1="500.2916" x2="114.5313" y2="451.1054" gradientTransform="matrix(1 0 0 1 -8.0854 -395.1333)">
					<stop  offset="0" style="stop-color:#181844"/>
					<stop  offset="2.840000e-02" style="stop-color:#1E1E4C"/>
					<stop  offset="0.1353" style="stop-color:#283261"/>
					<stop  offset="0.2468" style="stop-color:#2D4172"/>
					<stop  offset="0.3647" style="stop-color:#2E4A7C"/>
					<stop  offset="0.5" style="stop-color:#2E4D7F"/>
					<stop  offset="0.6177" style="stop-color:#2D4576"/>
					<stop  offset="0.8125" style="stop-color:#273160"/>
					<stop  offset="1" style="stop-color:#181844"/>
				</linearGradient>
				<path class="st5" d="M101.1,79.8c19.4,22.2,26.2,20.9,26.2,20.9c0.4,0.1,0.9,0.2,1.3,0.2c0.2-0.1,0.3-0.3,0.4-0.5
					c0.3-0.4,5.8-9.4-12.8-41.8L101.1,79.8z"/>
				
					<linearGradient id="SVGID_6_" gradientUnits="userSpaceOnUse" x1="61.4724" y1="458.1721" x2="61.4724" y2="494.9707" gradientTransform="matrix(1 0 0 1 -8.0854 -395.1333)">
					<stop  offset="0" style="stop-color:#2B3B6A"/>
					<stop  offset="7.040000e-02" style="stop-color:#2D4576"/>
					<stop  offset="0.2165" style="stop-color:#2E5589"/>
					<stop  offset="0.3608" style="stop-color:#2B5E97"/>
					<stop  offset="0.5" style="stop-color:#29629C"/>
					<stop  offset="0.6392" style="stop-color:#2B5E97"/>
					<stop  offset="0.7835" style="stop-color:#2E5589"/>
					<stop  offset="0.9296" style="stop-color:#2D4576"/>
					<stop  offset="1" style="stop-color:#2B3B6A"/>
				</linearGradient>
				<path class="st6" d="M76,83.2C36,81.5,31.2,71.5,31,71c-0.1-0.2-0.2-0.4-0.2-0.7c0.1-0.7,1.5-2,1.5-2s10.6-6.5,28.3-10L76,83.2z
					"/>
				
					<linearGradient id="SVGID_7_" gradientUnits="userSpaceOnUse" x1="81.7183" y1="422.0626" x2="96.1647" y2="422.0626" gradientTransform="matrix(1 0 0 1 -8.0854 -395.1333)">
					<stop  offset="0" style="stop-color:#2B3B6A"/>
					<stop  offset="1" style="stop-color:#2B3B6A"/>
				</linearGradient>
				<path class="st7" d="M87.5,18.3c-5,5.4-9.6,11.2-13.8,17.2h1c3.1-3.9,10.8-13.7,13.4-16.5L87.5,18.3z"/>
				
					<linearGradient id="SVGID_8_" gradientUnits="userSpaceOnUse" x1="100.7986" y1="437.3393" x2="100.7986" y2="402.6298" gradientTransform="matrix(1 0 0 1 -8.0854 -395.1333)">
					<stop  offset="0" style="stop-color:#252B59"/>
					<stop  offset="0.5" style="stop-color:#2D578C"/>
					<stop  offset="0.6934" style="stop-color:#2D5588"/>
					<stop  offset="0.8038" style="stop-color:#2E4F80"/>
					<stop  offset="0.8932" style="stop-color:#2D4474"/>
					<stop  offset="0.971" style="stop-color:#283463"/>
					<stop  offset="1" style="stop-color:#252B59"/>
				</linearGradient>
				<path class="st8" d="M103.6,36.3C114.1,11.6,110,6,110,6c-0.1-0.3-0.2-0.7-0.3-1c-0.2-0.1-0.4-0.1-0.7-0.2
					c-0.5-0.1-11.4-1.5-34.4,30.7L103.6,36.3z"/>
				
					<linearGradient id="SVGID_9_" gradientUnits="userSpaceOnUse" x1="69.0946" y1="504.7043" x2="132.5041" y2="408.8562" gradientTransform="matrix(1 0 0 1 -8.0854 -395.1333)">
					<stop  offset="0" style="stop-color:#2867A2"/>
					<stop  offset="8.239999e-02" style="stop-color:#177EBC"/>
					<stop  offset="0.1675" style="stop-color:#0E91D1"/>
					<stop  offset="0.2527" style="stop-color:#10A2E1"/>
					<stop  offset="0.337" style="stop-color:#18ACEA"/>
					<stop  offset="0.42" style="stop-color:#24B1ED"/>
					<stop  offset="0.5" style="stop-color:#28B1ED"/>
					<stop  offset="0.58" style="stop-color:#24B1ED"/>
					<stop  offset="0.663" style="stop-color:#18ACEA"/>
					<stop  offset="0.7473" style="stop-color:#10A2E1"/>
					<stop  offset="0.8325" style="stop-color:#0E91D1"/>
					<stop  offset="0.9176" style="stop-color:#177EBC"/>
					<stop  offset="1" style="stop-color:#2867A2"/>
				</linearGradient>
				<path class="st9" d="M87.8,98.3c-14.2,15.4-21,14.5-21.4,14.5c-0.6-0.2-1.2-0.5-1.7-0.8l-17.3-11c7.3-1.6,16.3-10.2,25.7-21.3
					L87.8,98.3z"/>
				
					<linearGradient id="SVGID_10_" gradientUnits="userSpaceOnUse" x1="63.3957" y1="506.6263" x2="88.5107" y2="484.1396" gradientTransform="matrix(1 0 0 1 -8.0854 -395.1333)">
					<stop  offset="0" style="stop-color:#2C5D95"/>
					<stop  offset="8.220001e-02" style="stop-color:#246EAB"/>
					<stop  offset="0.1808" style="stop-color:#1B79B9"/>
					<stop  offset="0.3007" style="stop-color:#1080C2"/>
					<stop  offset="0.5" style="stop-color:#0E81C5"/>
					<stop  offset="0.6993" style="stop-color:#1080C2"/>
					<stop  offset="0.8192" style="stop-color:#1B79B9"/>
					<stop  offset="0.9178" style="stop-color:#246EAB"/>
					<stop  offset="1" style="stop-color:#2C5D95"/>
				</linearGradient>
				<path class="st10" d="M88.4,98.9c-14.2,15.4-21,14.5-21.4,14.5c-0.6-0.2-1.2-0.5-1.7-0.8l-17.9-11.6c7.3-1.6,16.9-9.6,26.3-20.7
					L88.4,98.9z"/>
				
					<linearGradient id="SVGID_11_" gradientUnits="userSpaceOnUse" x1="61.1489" y1="408.1981" x2="119.4676" y2="505.3958" gradientTransform="matrix(1 0 0 1 -8.0854 -395.1333)">
					<stop  offset="0" style="stop-color:#2C5D95"/>
					<stop  offset="1.760000e-02" style="stop-color:#2A6199"/>
					<stop  offset="0.1407" style="stop-color:#1C79B7"/>
					<stop  offset="0.2631" style="stop-color:#0A8CCA"/>
					<stop  offset="0.3837" style="stop-color:#0B97D4"/>
					<stop  offset="0.5" style="stop-color:#0E9AD8"/>
					<stop  offset="0.6163" style="stop-color:#0B97D4"/>
					<stop  offset="0.7369" style="stop-color:#0A8CCA"/>
					<stop  offset="0.8593" style="stop-color:#1C79B7"/>
					<stop  offset="0.9824" style="stop-color:#2A6199"/>
					<stop  offset="1" style="stop-color:#2C5D95"/>
				</linearGradient>
				<path class="st11" d="M50.5,38.9c-6.3-16.2-3.2-21.3-3-21.6c0.4-0.5,0.9-0.9,1.4-1.2L66.3,5c-1.5,7.1,2.3,18,8.2,30.7L50.5,38.9
					z"/>
				
					<linearGradient id="SVGID_12_" gradientUnits="userSpaceOnUse" x1="124.2305" y1="504.8045" x2="86.7315" y2="457.5729" gradientTransform="matrix(1 0 0 1 -8.0854 -395.1333)">
					<stop  offset="0" style="stop-color:#2C5D95"/>
					<stop  offset="2.570000e-02" style="stop-color:#2A6199"/>
					<stop  offset="0.2053" style="stop-color:#1C79B7"/>
					<stop  offset="0.384" style="stop-color:#0A8CCA"/>
					<stop  offset="0.5599" style="stop-color:#0B97D4"/>
					<stop  offset="0.7296" style="stop-color:#0E9AD8"/>
					<stop  offset="0.7925" style="stop-color:#0B97D4"/>
					<stop  offset="0.8577" style="stop-color:#0A8CCA"/>
					<stop  offset="0.9239" style="stop-color:#1C79B7"/>
					<stop  offset="0.9905" style="stop-color:#2A6199"/>
					<stop  offset="1" style="stop-color:#2C5D95"/>
				</linearGradient>
				<path class="st12" d="M87,58.2c-8.7,0-17.4,0.7-26,1.9c0.3,0.5,4.3,7.2,7.2,11.7c27.8,42.8,40.8,41.1,41.4,41
					c0.6-0.2,1.2-0.5,1.7-0.8l17.3-11C116.8,98.4,100.4,79.2,87,58.2z"/>
				
					<linearGradient id="SVGID_13_" gradientUnits="userSpaceOnUse" x1="70.0452" y1="432.0114" x2="62.7441" y2="405.7276" gradientTransform="matrix(1 0 0 1 -8.0854 -395.1333)">
					<stop  offset="0" style="stop-color:#2C5D95"/>
					<stop  offset="8.220001e-02" style="stop-color:#246EAB"/>
					<stop  offset="0.1808" style="stop-color:#1B79B9"/>
					<stop  offset="0.3007" style="stop-color:#1080C2"/>
					<stop  offset="0.5" style="stop-color:#0E81C5"/>
					<stop  offset="0.6993" style="stop-color:#1080C2"/>
					<stop  offset="0.8192" style="stop-color:#1B79B9"/>
					<stop  offset="0.9178" style="stop-color:#246EAB"/>
					<stop  offset="1" style="stop-color:#2C5D95"/>
				</linearGradient>
				<path class="st13" d="M49.9,39.5c-6.3-16.2-3.2-21.3-3-21.6c0.4-0.5,0.9-0.9,1.4-1.2L66.3,5c-1.5,7.1,1.7,18.6,7.6,31.2
					L49.9,39.5z"/>
				
					<linearGradient id="SVGID_14_" gradientUnits="userSpaceOnUse" x1="152.7302" y1="449.7361" x2="38.9756" y2="449.7361" gradientTransform="matrix(1 0 0 1 -8.0854 -395.1333)">
					<stop  offset="0" style="stop-color:#2867A2"/>
					<stop  offset="1.280000e-02" style="stop-color:#256BA7"/>
					<stop  offset="0.1121" style="stop-color:#0B83C3"/>
					<stop  offset="0.2115" style="stop-color:#1797D8"/>
					<stop  offset="0.3099" style="stop-color:#25A3E2"/>
					<stop  offset="0.4066" style="stop-color:#27ABE7"/>
					<stop  offset="0.5" style="stop-color:#2AAEEA"/>
					<stop  offset="0.5934" style="stop-color:#27ABE7"/>
					<stop  offset="0.6901" style="stop-color:#25A3E2"/>
					<stop  offset="0.7885" style="stop-color:#1797D8"/>
					<stop  offset="0.8879" style="stop-color:#0B83C3"/>
					<stop  offset="0.9872" style="stop-color:#256BA7"/>
					<stop  offset="1" style="stop-color:#2867A2"/>
				</linearGradient>
				<path class="st14" d="M115.3,60.6c13.5,1.9,24.7,4.7,29.8,9.8V49.8c0-0.6-0.1-1.3-0.2-1.9c-0.1-0.3-2.7-5.6-19-9.1L115.3,60.6z"
					/>
				
					<linearGradient id="SVGID_15_" gradientUnits="userSpaceOnUse" x1="120.1217" y1="448.0752" x2="152.6351" y2="449.8274" gradientTransform="matrix(1 0 0 1 -8.0854 -395.1333)">
					<stop  offset="0" style="stop-color:#2E5284"/>
					<stop  offset="6.100000e-03" style="stop-color:#2E5486"/>
					<stop  offset="9.120000e-02" style="stop-color:#29649D"/>
					<stop  offset="0.1876" style="stop-color:#236FAD"/>
					<stop  offset="0.3049" style="stop-color:#1D77B6"/>
					<stop  offset="0.5" style="stop-color:#1C78B9"/>
					<stop  offset="0.6951" style="stop-color:#1D77B6"/>
					<stop  offset="0.8124" style="stop-color:#236FAD"/>
					<stop  offset="0.9088" style="stop-color:#29649D"/>
					<stop  offset="0.9939" style="stop-color:#2E5486"/>
					<stop  offset="1" style="stop-color:#2E5284"/>
				</linearGradient>
				<path class="st15" d="M115.3,59.8c13.5,1.9,24.7,5.5,29.8,10.6V49c0-0.6-0.1-1.3-0.2-1.9c-0.1-0.3-2.7-5.6-19-9.1L115.3,59.8z"
					/>
				
					<linearGradient id="SVGID_16_" gradientUnits="userSpaceOnUse" x1="38.8853" y1="448.1302" x2="97.5463" y2="448.1302" gradientTransform="matrix(1 0 0 1 -8.0854 -395.1333)">
					<stop  offset="0" style="stop-color:#2867A2"/>
					<stop  offset="2.250000e-02" style="stop-color:#256BA7"/>
					<stop  offset="0.1971" style="stop-color:#0B83C3"/>
					<stop  offset="0.3718" style="stop-color:#1797D8"/>
					<stop  offset="0.5447" style="stop-color:#25A3E2"/>
					<stop  offset="0.7147" style="stop-color:#27ABE7"/>
					<stop  offset="0.8788" style="stop-color:#2AAEEA"/>
					<stop  offset="0.9015" style="stop-color:#27ABE7"/>
					<stop  offset="0.9249" style="stop-color:#25A3E2"/>
					<stop  offset="0.9487" style="stop-color:#1797D8"/>
					<stop  offset="0.9728" style="stop-color:#0B83C3"/>
					<stop  offset="0.9969" style="stop-color:#256BA7"/>
					<stop  offset="1" style="stop-color:#2867A2"/>
				</linearGradient>
				<path class="st16" d="M103.1,36c-3-0.1-9.5-0.4-15.1-0.4c-51.1,0-56.7,11.8-57,12.4c-0.2,0.6-0.2,1.2-0.2,1.9v20.6
					c5-5,15.9-7.7,29.2-9.7c8.6-1.2,17.2-1.9,25.9-2c1.6,0,3.2,0,4.8,0C90.7,58.8,106.1,36.1,103.1,36z"/>
				
					<linearGradient id="SVGID_17_" gradientUnits="userSpaceOnUse" x1="80.1403" y1="432.9498" x2="58.0941" y2="429.8495" gradientTransform="matrix(1 0 0 1 -8.0854 -395.1333)">
					<stop  offset="0" style="stop-color:#2B3B6A"/>
					<stop  offset="1" style="stop-color:#2B3B6A"/>
				</linearGradient>
				<path class="st17" d="M73.9,34.4c-10.7,0.5-18.4,1.3-24.8,3.1l0.3,0.8c0.6-0.1,1.3-0.3,1.9-0.4c7.7-1.2,15.4-2,23.1-2.3
					L73.9,34.4z"/>
				
					<linearGradient id="SVGID_18_" gradientUnits="userSpaceOnUse" x1="102.5728" y1="451.8058" x2="40.2712" y2="443.0446" gradientTransform="matrix(1 0 0 1 -8.0854 -395.1333)">
					<stop  offset="0" style="stop-color:#2867A2"/>
					<stop  offset="3.820000e-02" style="stop-color:#2174B1"/>
					<stop  offset="0.1177" style="stop-color:#0B86C4"/>
					<stop  offset="0.2081" style="stop-color:#0A94D2"/>
					<stop  offset="0.3177" style="stop-color:#0C9BDB"/>
					<stop  offset="0.5" style="stop-color:#109EDE"/>
					<stop  offset="0.6823" style="stop-color:#0C9BDB"/>
					<stop  offset="0.7919" style="stop-color:#0A94D2"/>
					<stop  offset="0.8823" style="stop-color:#0B86C4"/>
					<stop  offset="0.9618" style="stop-color:#2174B1"/>
					<stop  offset="1" style="stop-color:#2867A2"/>
				</linearGradient>
				<path class="st18" d="M103.1,35.2c-3-0.1-9.5-0.4-15.1-0.4c-51.1,0-56.7,11.8-57,12.4c-0.2,0.6-0.2,1.2-0.2,1.9v21.4
					c5-5,15.9-8.5,29.2-10.5c8.6-1.2,17.2-1.9,25.9-2c1.6,0,3.2,0,4.8,0C93,58,106.1,35.4,103.1,35.2z"/>
				
					<linearGradient id="SVGID_19_" gradientUnits="userSpaceOnUse" x1="131.4479" y1="408.672" x2="101.821" y2="459.6962" gradientTransform="matrix(1 0 0 1 -8.0854 -395.1333)">
					<stop  offset="0" style="stop-color:#2867A2"/>
					<stop  offset="0.1238" style="stop-color:#177EBC"/>
					<stop  offset="0.2516" style="stop-color:#0E91D1"/>
					<stop  offset="0.3797" style="stop-color:#10A2E1"/>
					<stop  offset="0.5064" style="stop-color:#18ACEA"/>
					<stop  offset="0.631" style="stop-color:#24B1ED"/>
					<stop  offset="0.7513" style="stop-color:#28B1ED"/>
					<stop  offset="0.7911" style="stop-color:#24B1ED"/>
					<stop  offset="0.8324" style="stop-color:#18ACEA"/>
					<stop  offset="0.8743" style="stop-color:#10A2E1"/>
					<stop  offset="0.9167" style="stop-color:#0E91D1"/>
					<stop  offset="0.959" style="stop-color:#177EBC"/>
					<stop  offset="1" style="stop-color:#2867A2"/>
				</linearGradient>
				<path class="st19" d="M88,59.7c13.9-20.9,24.2-42.8,21.7-54.7l17.3,11c0.5,0.3,1,0.7,1.4,1.2c0.3,0.5,7.1,11.7-20.7,54.5
					c-2,3.2-3.9,6.9-4.6,7.2c-4.1-4-12.6-15.6-14.7-18.5C88.1,60,88,59.7,88,59.7z"/>
				
					<linearGradient id="SVGID_20_" gradientUnits="userSpaceOnUse" x1="135.1721" y1="434.3378" x2="124.3852" y2="454.5806" gradientTransform="matrix(1 0 0 1 -8.0854 -395.1333)">
					<stop  offset="0" style="stop-color:#2B3B6A"/>
					<stop  offset="1" style="stop-color:#2B3B6A"/>
				</linearGradient>
				<path class="st20" d="M126.5,38.1c-3.1,7.8-6.8,15.3-11.1,22.4l1.3,0.2c5.5-9.5,8.7-16.5,10.9-22.4L126.5,38.1z"/>
				
					<linearGradient id="SVGID_21_" gradientUnits="userSpaceOnUse" x1="130.4756" y1="409.7923" x2="100.7547" y2="465.5665" gradientTransform="matrix(1 0 0 1 -8.0854 -395.1333)">
					<stop  offset="0" style="stop-color:#2867A2"/>
					<stop  offset="3.820000e-02" style="stop-color:#2174B1"/>
					<stop  offset="0.1177" style="stop-color:#0B86C4"/>
					<stop  offset="0.2081" style="stop-color:#0A94D2"/>
					<stop  offset="0.3177" style="stop-color:#0C9BDB"/>
					<stop  offset="0.5" style="stop-color:#109EDE"/>
					<stop  offset="0.6823" style="stop-color:#0C9BDB"/>
					<stop  offset="0.7919" style="stop-color:#0A94D2"/>
					<stop  offset="0.8823" style="stop-color:#0B86C4"/>
					<stop  offset="0.9618" style="stop-color:#2174B1"/>
					<stop  offset="1" style="stop-color:#2867A2"/>
				</linearGradient>
				<path class="st21" d="M108.4,72.3c27.8-42.8,21-54,20.7-54.5c-0.4-0.5-0.9-0.9-1.4-1.2L109.7,5c2.5,11.8-7.4,34.6-21.2,55.5
					c4.6,7.1,9.4,14,14.5,19.9C104,79.3,106.5,75.2,108.4,72.3z"/>
				
					<linearGradient id="SVGID_22_" gradientUnits="userSpaceOnUse" x1="132.7816" y1="411.0487" x2="102.7991" y2="467.314" gradientTransform="matrix(1 0 0 1 -8.0854 -395.1333)">
					<stop  offset="0" style="stop-color:#2867A2"/>
					<stop  offset="3.820000e-02" style="stop-color:#2174B1"/>
					<stop  offset="0.1177" style="stop-color:#0B86C4"/>
					<stop  offset="0.2081" style="stop-color:#0A94D2"/>
					<stop  offset="0.3177" style="stop-color:#0C9BDB"/>
					<stop  offset="0.5" style="stop-color:#109EDE"/>
					<stop  offset="0.6823" style="stop-color:#0C9BDB"/>
					<stop  offset="0.7919" style="stop-color:#0A94D2"/>
					<stop  offset="0.8823" style="stop-color:#0B86C4"/>
					<stop  offset="0.9618" style="stop-color:#2174B1"/>
					<stop  offset="1" style="stop-color:#2867A2"/>
				</linearGradient>
				<path class="st22" d="M102.5,81.1c0.1-0.1,0.2-0.1,0.2-0.2C97.4,74.6,92.5,68.1,88,61.2c-0.1,0.1-0.2,0.2-0.2,0.4
					C87.7,61.6,97.4,76.9,102.5,81.1z"/>
				
					<linearGradient id="SVGID_23_" gradientUnits="userSpaceOnUse" x1="84.3914" y1="475.0244" x2="92.0817" y2="495.8587" gradientTransform="matrix(1 0 0 1 -8.0854 -395.1333)">
					<stop  offset="0" style="stop-color:#2B3B6A"/>
					<stop  offset="1" style="stop-color:#2B3B6A"/>
				</linearGradient>
				<path class="st23" d="M88,99.3C87.8,99.1,77.5,87,72.9,79.9l-0.8,0.9c4.6,6.7,9.7,13.1,15.3,19.2L88,99.3z"/>
				
					<linearGradient id="SVGID_24_" gradientUnits="userSpaceOnUse" x1="98.9951" y1="453.5965" x2="108.0486" y2="509.9615" gradientTransform="matrix(1 0 0 1 -8.0854 -395.1333)">
					<stop  offset="0" style="stop-color:#2E5284"/>
					<stop  offset="2.440000e-02" style="stop-color:#2C5C92"/>
					<stop  offset="8.880000e-02" style="stop-color:#2075B1"/>
					<stop  offset="0.1599" style="stop-color:#0B86C4"/>
					<stop  offset="0.2403" style="stop-color:#0A94D2"/>
					<stop  offset="0.3378" style="stop-color:#0E9CDA"/>
					<stop  offset="0.5" style="stop-color:#109EDE"/>
					<stop  offset="0.6718" style="stop-color:#0C9BDB"/>
					<stop  offset="0.7751" style="stop-color:#0A94D2"/>
					<stop  offset="0.8603" style="stop-color:#0B86C4"/>
					<stop  offset="0.9351" style="stop-color:#2174B1"/>
					<stop  offset="1" style="stop-color:#2C5D95"/>
				</linearGradient>
				<path class="st24" d="M102.7,80.9C97.4,74.6,92.5,68.1,88,61.2c-0.5-0.8-1.1-1.6-1.6-2.4c-8.7,0-17.4,0.7-26,1.9
					c0.3,0.5,4.3,7.2,7.2,11.7c27.8,42.8,40.8,41.1,41.4,41c0.6-0.2,1.2-0.5,1.7-0.8l17.9-11.6C121.3,99.4,111.9,91.6,102.7,80.9z"
					/>
			</g>
		</g>
	</g>
	<path class="st25" d="M201.1,37.5c3.2,0,5.6-0.7,7.3-2.3c1.5-1.5,2.3-4,2.3-7.4c0-4-2.3-6-6.8-6c-3.2,0-5.6,0.8-7.2,2.4
		c-1.5,1.5-2.3,4.1-2.3,7.5C194.3,35.6,196.6,37.5,201.1,37.5z"/>
	<g>
		<defs>
			<path id="SVGID_25_" d="M232.5,71.2c-1.4,1.5-3.1,2.3-5.1,2.3c-1.9,0-3.3-0.5-4.1-1.3c-0.8-0.8-1.2-1.6-1.2-2.5
				c0-0.8,0.1-1.5,0.2-2l1-6.1c0.7-4,3.2-6,7.3-6c2.2,0,3.6,0.7,4.2,2L232.5,71.2z M175.9,119.1c-2.7,4.8-5.1,7.2-7.3,7.1
				c-2.3-0.1-3.4-1.7-3.3-4.9c0.1-3.3,1.6-7.1,4.5-11.4c2.9-4.3,7.5-9,13.9-14.2C181.1,106.5,178.5,114.3,175.9,119.1z M336,71.3
				c0-0.3,0-0.6,0.1-0.9l4.5-25.5h-13.8L322,72.4c0,0.2-0.1,0.3-0.1,0.5c-1,0.5-2.1,0.8-3.2,0.8c-1.6,0-2.4-0.7-2.6-2.3
				c0-0.3,0-0.6,0.1-0.9l2-12.1c0.3-1.6,0.4-3.4,0.4-5.4c0-2-0.5-3.8-1.6-5.5c-1.6-2.4-5.2-3.6-10.6-3.6c-5.5,0-9.9,2.3-13.1,6.9
				c-0.9-4.6-4.9-6.9-12-6.9c-5.1,0-9.2,2-12.4,6l0.9-4.8H257l-5,28c-1,0.4-2.1,0.8-3.5,0.8c-1.4,0-2.1-0.7-2.1-2.1
				c0-0.4,0.1-0.7,0.1-1l4.5-25.5h-12.4l-0.4,2.4c-1.7-2.3-5.2-3.5-10.1-3.5s-9.1,1.4-12.2,4.4c-3.1,2.9-5.1,6.8-5.9,11.7l-1.5,8
				c-2.2,1.2-4.3,2.5-6.3,3.8c0.1-0.5,0.2-1,0.3-1.6l4.4-25.3h-13.8l-6.3,36.4c-12.8,9.4-21.5,17.4-26.2,23.9
				c-4.7,6.6-7.2,12.7-7.3,18.6c-0.1,4.2,1.1,7.6,3.7,10.3c2.5,2.6,5.9,4,10.2,4.2c8.9,0.3,16.3-5.8,22-18.1
				c4.4-9.4,7.9-21.3,10.8-35.9c2.9-2.2,5.8-4.4,8.6-6.4c1.5,4.8,5.7,7.2,12.7,7.2c5.3,0,9.3-2.2,12-6.6c0.6,4.4,3.9,6.6,9.9,6.6
				c2.6,0,5-0.7,7.2-2l-0.2,1h13.8l4.5-25.8c1.7-1.8,3.8-2.7,6-2.7c2.9,0,4.5,1.3,4.5,3.9c0,1,0,1.9-0.2,2.9l-3.8,21.7h13.8
				l4.5-25.1c1.7-2.2,3.9-3.3,6.7-3.3c2.8,0,4.2,1.3,4.2,3.9c0,1,0,1.9-0.2,2.9l-1.7,10c-0.2,1.3-0.3,2.4-0.3,3.5
				c0,6.1,3.8,9.3,11.1,9.3c2,0,3.9-0.4,5.7-1.3c0.1,0,0.1-0.1,0.2-0.1c1.8-0.9,3.1-1.9,4-2.7c0.1,0.2,0.2,0.4,0.3,0.6
				c1.4,2.3,4.6,3.4,9.5,3.4c3.2,0,6.1-1,8.7-3.1l0.4-9.2c-1,0.5-2.1,0.8-3.3,0.8C336.8,73.7,336.1,72.9,336,71.3z"/>
		</defs>
		<use xlink:href="#SVGID_25_"  style="overflow:visible;fill:#000747;"/>
		<clipPath id="SVGID_26_">
			<use xlink:href="#SVGID_25_"  style="overflow:visible;"/>
		</clipPath>
	</g>
	<path class="st25" d="M338,21.8c-3.2,0-5.6,0.8-7.2,2.4c-1.5,1.5-2.3,4.1-2.3,7.5c0,3.8,2.2,5.9,6.7,5.9c3.3,0,5.8-0.7,7.3-2.3
		c1.5-1.5,2.3-4,2.3-7.4C344.8,23.9,342.4,21.8,338,21.8z"/>
</g>
</svg>
