<?xml version="1.0" encoding="UTF-8" standalone="no"?>
<svg
   xmlns:dc="http://purl.org/dc/elements/1.1/"
   xmlns:cc="http://creativecommons.org/ns#"
   xmlns:rdf="http://www.w3.org/1999/02/22-rdf-syntax-ns#"
   xmlns:svg="http://www.w3.org/2000/svg"
   xmlns="http://www.w3.org/2000/svg"
   xml:space="preserve"
   enable-background="new 8.615 12.401 573.17 190.679"
   viewBox="8.615 12.401 573.17 190.679"
   height="190.679px"
   width="573.17px"
   y="0px"
   x="0px"
   id="Calque_1"
   version="1.1"><metadata
     id="metadata4599"><rdf:RDF><cc:Work
         rdf:about=""><dc:format>image/svg+xml</dc:format><dc:type
           rdf:resource="http://purl.org/dc/dcmitype/StillImage" /><dc:title></dc:title><cc:license
           rdf:resource="http://creativecommons.org/licenses/by-sa/4.0/" /><dc:creator><cc:Agent><dc:title>Savoir-faire Linux Inc.</dc:title></cc:Agent></dc:creator></cc:Work><cc:License
         rdf:about="http://creativecommons.org/licenses/by-sa/4.0/"><cc:permits
           rdf:resource="http://creativecommons.org/ns#Reproduction" /><cc:permits
           rdf:resource="http://creativecommons.org/ns#Distribution" /><cc:requires
           rdf:resource="http://creativecommons.org/ns#Notice" /><cc:requires
           rdf:resource="http://creativecommons.org/ns#Attribution" /><cc:permits
           rdf:resource="http://creativecommons.org/ns#DerivativeWorks" /><cc:requires
           rdf:resource="http://creativecommons.org/ns#ShareAlike" /></cc:License></rdf:RDF></metadata><defs
     id="defs4597" /><g
     id="g4554"><linearGradient
       gradientTransform="matrix(1 0 0 -1 2462.3994 1688.9619)"
       y2="1588.2163"
       x2="-2357.0378"
       y1="1578.8618"
       x1="-2349.0195"
       gradientUnits="userSpaceOnUse"
       id="SVGID_1_"><stop
         id="stop4062"
         style="stop-color:#0B5463"
         offset="0" /><stop
         id="stop4064"
         style="stop-color:#0B5463"
         offset="1" /></linearGradient><polygon
       id="polygon4067"
       points="102.813,103.16 115.141,102.737 108.976,114.383  "
       fill="url(#SVGID_1_)" /><linearGradient
       gradientTransform="matrix(1 0 0 -1 2462.3994 1688.9619)"
       y2="1510.5487"
       x2="-2280.0229"
       y1="1574.8296"
       x1="-2280.0229"
       gradientUnits="userSpaceOnUse"
       id="SVGID_2_"><stop
         id="stop4069"
         style="stop-color:#0B5463"
         offset="0" /><stop
         id="stop4071"
         style="stop-color:#0B6070"
         offset="0.0704" /><stop
         id="stop4073"
         style="stop-color:#0B7285"
         offset="0.2165" /><stop
         id="stop4075"
         style="stop-color:#0A7D91"
         offset="0.3608" /><stop
         id="stop4077"
         style="stop-color:#0A8195"
         offset="0.5" /><stop
         id="stop4079"
         style="stop-color:#0A7D91"
         offset="0.6392" /><stop
         id="stop4081"
         style="stop-color:#0B7285"
         offset="0.7835" /><stop
         id="stop4083"
         style="stop-color:#0B6070"
         offset="0.9296" /><stop
         id="stop4085"
         style="stop-color:#0B5463"
         offset="1" /></linearGradient><path
       id="path4088"
       d="M156.308,106.09c45.552,7.379,52.088,18.776,52.088,18.776c0-0.002,0.111,1.145,0,2.105   c-0.055,0.482-0.242,0.843-0.372,1.143c-0.261,0.602-4.765,10.004-34.201,16.2L156.308,106.09z"
       fill="url(#SVGID_2_)" /><linearGradient
       gradientTransform="matrix(1 0 0 -1 2462.3994 1688.9619)"
       y2="1542.8058"
       x2="-2401.9883"
       y1="1505.6714"
       x1="-2422.8447"
       gradientUnits="userSpaceOnUse"
       id="SVGID_3_"><stop
         id="stop4090"
         style="stop-color:#014251"
         offset="0" /><stop
         id="stop4092"
         style="stop-color:#025262"
         offset="0.0859" /><stop
         id="stop4094"
         style="stop-color:#046676"
         offset="0.2267" /><stop
         id="stop4096"
         style="stop-color:#057183"
         offset="0.3658" /><stop
         id="stop4098"
         style="stop-color:#057587"
         offset="0.5" /><stop
         id="stop4100"
         style="stop-color:#057183"
         offset="0.6342" /><stop
         id="stop4102"
         style="stop-color:#046676"
         offset="0.7733" /><stop
         id="stop4104"
         style="stop-color:#025262"
         offset="0.9141" /><stop
         id="stop4106"
         style="stop-color:#014251"
         offset="1" /></linearGradient><path
       id="path4109"
       d="M41.516,142.784c-10.369,27.344-5.049,36.055-4.692,36.596c0.181,0.271,0.349,0.668,0.755,0.936   c0.157,0.104,2.143-0.377,2.143-0.377S58.345,179,80.165,148L41.516,142.784z"
       fill="url(#SVGID_3_)" /><linearGradient
       gradientTransform="matrix(1 0 0 -1 2462.3994 1688.9619)"
       y2="1672.0242"
       x2="-2397.8364"
       y1="1631.7485"
       x1="-2363.3149"
       gradientUnits="userSpaceOnUse"
       id="SVGID_4_"><stop
         id="stop4111"
         style="stop-color:#0D283A"
         offset="0" /><stop
         id="stop4113"
         style="stop-color:#0C3042"
         offset="0.0284" /><stop
         id="stop4115"
         style="stop-color:#0B495A"
         offset="0.1353" /><stop
         id="stop4117"
         style="stop-color:#0A5B6C"
         offset="0.2468" /><stop
         id="stop4119"
         style="stop-color:#0A6676"
         offset="0.3647" /><stop
         id="stop4121"
         style="stop-color:#0A697A"
         offset="0.5" /><stop
         id="stop4123"
         style="stop-color:#0A6070"
         offset="0.6177" /><stop
         id="stop4125"
         style="stop-color:#0B4758"
         offset="0.8125" /><stop
         id="stop4127"
         style="stop-color:#0D283A"
         offset="1" /></linearGradient><path
       id="path4130"
       d="M109.549,38.144C84.568,10.769,72.487,12.34,71.788,12.455c-0.35,0.059-0.69,0.072-1.158,0.311   c-0.832,0.426-1.77,3.182-1.77,3.182s-5.283,15.117,15.867,55.791L109.549,38.144z"
       fill="url(#SVGID_4_)" /><linearGradient
       gradientTransform="matrix(1 0 0 -1 2462.3994 1688.9619)"
       y2="1587.1741"
       x2="-2321.6492"
       y1="1501.2603"
       x1="-2294.9795"
       gradientUnits="userSpaceOnUse"
       id="SVGID_5_"><stop
         id="stop4132"
         style="stop-color:#0D283A"
         offset="0" /><stop
         id="stop4134"
         style="stop-color:#0C3042"
         offset="0.0284" /><stop
         id="stop4136"
         style="stop-color:#0B495A"
         offset="0.1353" /><stop
         id="stop4138"
         style="stop-color:#0A5B6C"
         offset="0.2468" /><stop
         id="stop4140"
         style="stop-color:#0A6676"
         offset="0.3647" /><stop
         id="stop4142"
         style="stop-color:#0A697A"
         offset="0.5" /><stop
         id="stop4144"
         style="stop-color:#0A6070"
         offset="0.6177" /><stop
         id="stop4146"
         style="stop-color:#0B4758"
         offset="0.8125" /><stop
         id="stop4148"
         style="stop-color:#0D283A"
         offset="1" /></linearGradient><path
       id="path4151"
       d="M131.342,143.342c33.872,38.717,45.761,36.562,45.761,36.562s2.182,0.508,2.332,0.407   c0.405-0.269,0.572-0.659,0.753-0.937c0.482-0.729,10.052-16.424-22.444-72.979L131.342,143.342z"
       fill="url(#SVGID_5_)" /><linearGradient
       gradientTransform="matrix(1 0 0 -1 2462.3994 1688.9619)"
       y2="1510.5537"
       x2="-2414.3315"
       y1="1574.8315"
       x1="-2414.3315"
       gradientUnits="userSpaceOnUse"
       id="SVGID_6_"><stop
         id="stop4153"
         style="stop-color:#0B5463"
         offset="0" /><stop
         id="stop4155"
         style="stop-color:#0B6070"
         offset="0.0704" /><stop
         id="stop4157"
         style="stop-color:#0B7285"
         offset="0.2165" /><stop
         id="stop4159"
         style="stop-color:#0A7D91"
         offset="0.3608" /><stop
         id="stop4161"
         style="stop-color:#0A8195"
         offset="0.5" /><stop
         id="stop4163"
         style="stop-color:#0A7D91"
         offset="0.6392" /><stop
         id="stop4165"
         style="stop-color:#0B7285"
         offset="0.7835" /><stop
         id="stop4167"
         style="stop-color:#0B6070"
         offset="0.9296" /><stop
         id="stop4169"
         style="stop-color:#0B5463"
         offset="1" /></linearGradient><path
       id="path4172"
       d="M87.52,149.284c-69.822-2.939-78.172-20.347-78.529-21.17c-0.109-0.25-0.417-0.746-0.371-1.143   c0.145-1.237,2.695-3.438,2.695-3.438s18.578-11.404,49.362-17.543L87.52,149.284z"
       fill="url(#SVGID_6_)" /><linearGradient
       gradientTransform="matrix(1 0 0 -1 2462.3994 1688.9619)"
       y2="1637.9048"
       x2="-2353.7314"
       y1="1637.9048"
       x1="-2378.9653"
       gradientUnits="userSpaceOnUse"
       id="SVGID_7_"><stop
         id="stop4174"
         style="stop-color:#0B5463"
         offset="0" /><stop
         id="stop4176"
         style="stop-color:#0B5463"
         offset="1" /></linearGradient><path
       id="path4179"
       d="M107.614,36.053   c-6.985,7.438-15.034,17.199-24.18,30.008h1.784c5.405-6.887,18.892-23.848,23.45-28.838L107.614,36.053z"
       enable-background="new    "
       fill="url(#SVGID_7_)"
       opacity="0.4" /><linearGradient
       gradientTransform="matrix(1 0 0 -1 2462.3994 1688.9619)"
       y2="1671.8458"
       x2="-2345.6382"
       y1="1611.2212"
       x1="-2345.6382"
       gradientUnits="userSpaceOnUse"
       id="SVGID_8_"><stop
         id="stop4181"
         style="stop-color:#014251"
         offset="0" /><stop
         id="stop4183"
         style="stop-color:#057587"
         offset="0.5" /><stop
         id="stop4185"
         style="stop-color:#057384"
         offset="0.6934" /><stop
         id="stop4187"
         style="stop-color:#056B7C"
         offset="0.8038" /><stop
         id="stop4189"
         style="stop-color:#035E6E"
         offset="0.8932" /><stop
         id="stop4191"
         style="stop-color:#024B5B"
         offset="0.971" /><stop
         id="stop4193"
         style="stop-color:#014251"
         offset="1" /></linearGradient><path
       id="path4196"
       d="M135.817,67.5c18.261-43.152,11.11-53.051,11.11-53.051s-0.377-1.594-0.542-1.687   c-0.308-0.168-0.917-0.268-1.159-0.309c-0.884-0.148-19.868-2.605-60.008,53.604L135.817,67.5z"
       fill="url(#SVGID_8_)" /><linearGradient
       gradientTransform="matrix(1 0 0 -1 2462.3994 1688.9619)"
       y2="1660.9624"
       x2="-2290.2659"
       y1="1493.5552"
       x1="-2401.0161"
       gradientUnits="userSpaceOnUse"
       id="SVGID_9_"><stop
         id="stop4198"
         style="stop-color:#0B879A"
         offset="0" /><stop
         id="stop4200"
         style="stop-color:#379FB2"
         offset="0.0824" /><stop
         id="stop4202"
         style="stop-color:#5CB4C7"
         offset="0.1675" /><stop
         id="stop4204"
         style="stop-color:#79C5D7"
         offset="0.2527" /><stop
         id="stop4206"
         style="stop-color:#8DD1E3"
         offset="0.337" /><stop
         id="stop4208"
         style="stop-color:#9AD8EA"
         offset="0.42" /><stop
         id="stop4210"
         style="stop-color:#9EDAEC"
         offset="0.5" /><stop
         id="stop4212"
         style="stop-color:#9AD8EA"
         offset="0.58" /><stop
         id="stop4214"
         style="stop-color:#8DD1E3"
         offset="0.663" /><stop
         id="stop4216"
         style="stop-color:#79C5D7"
         offset="0.7473" /><stop
         id="stop4218"
         style="stop-color:#5CB4C7"
         offset="0.8325" /><stop
         id="stop4220"
         style="stop-color:#379FB2"
         offset="0.9176" /><stop
         id="stop4222"
         style="stop-color:#0B879A"
         offset="1" /></linearGradient><path
       id="path4225"
       d="M108.172,175.764c-24.74,26.97-36.709,25.414-37.406,25.3c-0.967-0.161-2.927-1.459-2.927-1.459   l-30.26-19.295c12.742-2.709,28.422-17.854,44.926-37.119L108.172,175.764z"
       fill="url(#SVGID_9_)" /><linearGradient
       gradientTransform="matrix(1 0 0 -1 2462.3994 1688.9619)"
       y2="1529.473"
       x2="-2367.1006"
       y1="1490.1938"
       x1="-2410.9707"
       gradientUnits="userSpaceOnUse"
       id="SVGID_10_"><stop
         id="stop4227"
         style="stop-color:#057B8F"
         offset="0" /><stop
         id="stop4229"
         style="stop-color:#038DA1"
         offset="0.0822" /><stop
         id="stop4231"
         style="stop-color:#029AB0"
         offset="0.1808" /><stop
         id="stop4233"
         style="stop-color:#01A2B8"
         offset="0.3007" /><stop
         id="stop4235"
         style="stop-color:#01A4BB"
         offset="0.5" /><stop
         id="stop4237"
         style="stop-color:#01A2B8"
         offset="0.6993" /><stop
         id="stop4239"
         style="stop-color:#029AB0"
         offset="0.8192" /><stop
         id="stop4241"
         style="stop-color:#038DA1"
         offset="0.9178" /><stop
         id="stop4243"
         style="stop-color:#057B8F"
         offset="1" /></linearGradient><path
       id="path4246"
       d="M109.192,176.788c-24.74,26.967-36.708,25.412-37.404,25.297c-0.969-0.162-2.928-1.459-2.928-1.459   L37.579,180.31c12.742-2.709,29.441-16.834,45.945-36.099L109.192,176.788z"
       fill="url(#SVGID_10_)" /><linearGradient
       gradientTransform="matrix(1 0 0 -1 2462.3994 1688.9619)"
       y2="1492.3595"
       x2="-2313.0361"
       y1="1662.1216"
       x1="-2414.8936"
       gradientUnits="userSpaceOnUse"
       id="SVGID_11_"><stop
         id="stop4248"
         style="stop-color:#057B8F"
         offset="0" /><stop
         id="stop4250"
         style="stop-color:#0A8093"
         offset="0.0176" /><stop
         id="stop4252"
         style="stop-color:#279AAD"
         offset="0.1407" /><stop
         id="stop4254"
         style="stop-color:#3BAEBF"
         offset="0.2631" /><stop
         id="stop4256"
         style="stop-color:#48B9CA"
         offset="0.3837" /><stop
         id="stop4258"
         style="stop-color:#4CBDCE"
         offset="0.5" /><stop
         id="stop4260"
         style="stop-color:#48B9CA"
         offset="0.6163" /><stop
         id="stop4262"
         style="stop-color:#3BAEBF"
         offset="0.7369" /><stop
         id="stop4264"
         style="stop-color:#279AAD"
         offset="0.8593" /><stop
         id="stop4266"
         style="stop-color:#0A8093"
         offset="0.9824" /><stop
         id="stop4268"
         style="stop-color:#057B8F"
         offset="1" /></linearGradient><path
       id="path4271"
       d="M43,71.947C32.01,43.65,37.482,34.689,37.844,34.14c0.541-0.815,2.524-2.08,2.524-2.08   l30.261-19.295c-2.627,12.354,4.059,31.447,14.324,53.541L43,71.947z"
       fill="url(#SVGID_11_)" /><linearGradient
       gradientTransform="matrix(1 0 0 -1 2462.3994 1688.9619)"
       y2="1575.8774"
       x2="-2370.2097"
       y1="1493.3774"
       x1="-2304.71"
       gradientUnits="userSpaceOnUse"
       id="SVGID_12_"><stop
         id="stop4273"
         style="stop-color:#057B8F"
         offset="0" /><stop
         id="stop4275"
         style="stop-color:#0A8093"
         offset="0.0257" /><stop
         id="stop4277"
         style="stop-color:#279AAD"
         offset="0.2053" /><stop
         id="stop4279"
         style="stop-color:#3BAEBF"
         offset="0.384" /><stop
         id="stop4281"
         style="stop-color:#48B9CA"
         offset="0.5599" /><stop
         id="stop4283"
         style="stop-color:#4CBDCE"
         offset="0.7296" /><stop
         id="stop4285"
         style="stop-color:#48B9CA"
         offset="0.7925" /><stop
         id="stop4287"
         style="stop-color:#3BAEBF"
         offset="0.8577" /><stop
         id="stop4289"
         style="stop-color:#279AAD"
         offset="0.9239" /><stop
         id="stop4291"
         style="stop-color:#0A8093"
         offset="0.9905" /><stop
         id="stop4293"
         style="stop-color:#057B8F"
         offset="1" /></linearGradient><path
       id="path4296"
       d="M106.755,105.635c-15.667,0.17-31.37,1.221-45.417,3.327c0.451,0.945,7.535,12.601,12.601,20.4   c48.579,74.805,71.339,71.862,72.307,71.7c0.968-0.159,2.928-1.457,2.928-1.457l30.262-19.293   C158.819,175.928,130.159,142.333,106.755,105.635z"
       fill="url(#SVGID_12_)" /><linearGradient
       gradientTransform="matrix(1 0 0 -1 2462.3994 1688.9619)"
       y2="1666.4395"
       x2="-2412.1094"
       y1="1620.5298"
       x1="-2399.3564"
       gradientUnits="userSpaceOnUse"
       id="SVGID_13_"><stop
         id="stop4298"
         style="stop-color:#057B8F"
         offset="0" /><stop
         id="stop4300"
         style="stop-color:#038DA1"
         offset="0.0822" /><stop
         id="stop4302"
         style="stop-color:#029AB0"
         offset="0.1808" /><stop
         id="stop4304"
         style="stop-color:#01A2B8"
         offset="0.3007" /><stop
         id="stop4306"
         style="stop-color:#01A4BB"
         offset="0.5" /><stop
         id="stop4308"
         style="stop-color:#01A2B8"
         offset="0.6993" /><stop
         id="stop4310"
         style="stop-color:#029AB0"
         offset="0.8192" /><stop
         id="stop4312"
         style="stop-color:#038DA1"
         offset="0.9178" /><stop
         id="stop4314"
         style="stop-color:#057B8F"
         offset="1" /></linearGradient><path
       id="path4317"
       d="M41.981,72.969c-10.99-28.299-5.519-37.26-5.157-37.809c0.542-0.816,2.524-2.08,2.524-2.08   l31.281-20.315c-2.627,12.354,3.038,32.469,13.303,54.562L41.981,72.969z"
       fill="url(#SVGID_13_)" /><linearGradient
       gradientTransform="matrix(1 0 0 -1 2462.3994 1688.9619)"
       y2="1589.5688"
       x2="-2453.6289"
       y1="1589.5688"
       x1="-2254.9268"
       gradientUnits="userSpaceOnUse"
       id="SVGID_14_"><stop
         id="stop4319"
         style="stop-color:#0B879A"
         offset="0" /><stop
         id="stop4321"
         style="stop-color:#118B9E"
         offset="0.0128" /><stop
         id="stop4323"
         style="stop-color:#36A5BA"
         offset="0.1121" /><stop
         id="stop4325"
         style="stop-color:#53BAD0"
         offset="0.2115" /><stop
         id="stop4327"
         style="stop-color:#67C8E0"
         offset="0.3099" /><stop
         id="stop4329"
         style="stop-color:#74D1E9"
         offset="0.4066" /><stop
         id="stop4331"
         style="stop-color:#78D4EC"
         offset="0.5" /><stop
         id="stop4333"
         style="stop-color:#74D1E9"
         offset="0.5934" /><stop
         id="stop4335"
         style="stop-color:#67C8E0"
         offset="0.6901" /><stop
         id="stop4337"
         style="stop-color:#53BAD0"
         offset="0.7885" /><stop
         id="stop4339"
         style="stop-color:#36A5BA"
         offset="0.8879" /><stop
         id="stop4341"
         style="stop-color:#118B9E"
         offset="0.9872" /><stop
         id="stop4343"
         style="stop-color:#0B879A"
         offset="1" /></linearGradient><path
       id="path4346"
       d="M156.279,109.819c23.614,3.405,43.153,8.191,52.116,17.152V91.047c0,0,0.02-2.35-0.372-3.25   c-0.259-0.594-4.659-9.783-33.169-15.98L156.279,109.819z"
       fill="url(#SVGID_14_)" /><linearGradient
       gradientTransform="matrix(1 0 0 -1 2462.3994 1688.9619)"
       y2="1589.4067"
       x2="-2255.0933"
       y1="1592.4673"
       x1="-2311.8843"
       gradientUnits="userSpaceOnUse"
       id="SVGID_15_"><stop
         id="stop4348"
         style="stop-color:#096F80"
         offset="0" /><stop
         id="stop4350"
         style="stop-color:#097181"
         offset="0.0061" /><stop
         id="stop4352"
         style="stop-color:#0B8395"
         offset="0.0912" /><stop
         id="stop4354"
         style="stop-color:#0C8FA4"
         offset="0.1876" /><stop
         id="stop4356"
         style="stop-color:#0D97AC"
         offset="0.3049" /><stop
         id="stop4358"
         style="stop-color:#0D99AF"
         offset="0.5" /><stop
         id="stop4360"
         style="stop-color:#0D97AC"
         offset="0.6951" /><stop
         id="stop4362"
         style="stop-color:#0C8FA4"
         offset="0.8124" /><stop
         id="stop4364"
         style="stop-color:#0B8395"
         offset="0.9088" /><stop
         id="stop4366"
         style="stop-color:#097181"
         offset="0.9939" /><stop
         id="stop4368"
         style="stop-color:#096F80"
         offset="1" /></linearGradient><path
       id="path4371"
       d="M156.279,108.448c23.614,3.405,43.153,9.562,52.116,18.523V89.676c0,0,0.02-2.35-0.372-3.25   c-0.259-0.594-4.659-9.783-33.169-15.979L156.279,108.448z"
       fill="url(#SVGID_15_)" /><linearGradient
       gradientTransform="matrix(1 0 0 -1 2462.3994 1688.9619)"
       y2="1592.3735"
       x2="-2351.3145"
       y1="1592.3735"
       x1="-2453.7793"
       gradientUnits="userSpaceOnUse"
       id="SVGID_16_"><stop
         id="stop4373"
         style="stop-color:#0B879A"
         offset="0" /><stop
         id="stop4375"
         style="stop-color:#118B9E"
         offset="0.0225" /><stop
         id="stop4377"
         style="stop-color:#36A5BA"
         offset="0.1971" /><stop
         id="stop4379"
         style="stop-color:#53BAD0"
         offset="0.3718" /><stop
         id="stop4381"
         style="stop-color:#67C8E0"
         offset="0.5447" /><stop
         id="stop4383"
         style="stop-color:#74D1E9"
         offset="0.7147" /><stop
         id="stop4385"
         style="stop-color:#78D4EC"
         offset="0.8788" /><stop
         id="stop4387"
         style="stop-color:#74D1E9"
         offset="0.9015" /><stop
         id="stop4389"
         style="stop-color:#67C8E0"
         offset="0.9249" /><stop
         id="stop4391"
         style="stop-color:#53BAD0"
         offset="0.9487" /><stop
         id="stop4393"
         style="stop-color:#36A5BA"
         offset="0.9728" /><stop
         id="stop4395"
         style="stop-color:#118B9E"
         offset="0.9969" /><stop
         id="stop4397"
         style="stop-color:#0B879A"
         offset="1" /></linearGradient><path
       id="path4400"
       d="M134.862,66.888c-5.318-0.258-16.663-0.682-26.354-0.682c-89.197,0-99.124,20.689-99.517,21.59   c-0.391,0.9-0.371,3.25-0.371,3.25v35.925c8.678-8.678,27.775-13.405,50.98-16.883c14.048-2.105,29.596-3.255,45.263-3.425   c2.771-0.029,5.546-0.029,8.315,0C113.178,106.665,140.18,67.146,134.862,66.888z"
       fill="url(#SVGID_16_)" /><linearGradient
       gradientTransform="matrix(1 0 0 -1 2462.3994 1688.9619)"
       y2="1624.3037"
       x2="-2420.2322"
       y1="1618.8882"
       x1="-2381.7217"
       gradientUnits="userSpaceOnUse"
       id="SVGID_17_"><stop
         id="stop4402"
         style="stop-color:#0B5463"
         offset="0" /><stop
         id="stop4404"
         style="stop-color:#0B5463"
         offset="1" /></linearGradient><path
       id="path4407"
       d="M83.947,64.115c-18.646,0.945-32.06,2.318-43.277,5.354   l0.536,1.471c1.021-0.166,2.295-0.514,3.332-0.67c12.669-1.9,26.317-3.637,40.416-3.963L83.947,64.115z"
       enable-background="new    "
       fill="url(#SVGID_17_)"
       opacity="0.2" /><linearGradient
       gradientTransform="matrix(1 0 0 -1 2462.3994 1688.9619)"
       y2="1601.2556"
       x2="-2451.3643"
       y1="1585.9517"
       x1="-2342.5381"
       gradientUnits="userSpaceOnUse"
       id="SVGID_18_"><stop
         id="stop4409"
         style="stop-color:#0B879A"
         offset="0" /><stop
         id="stop4411"
         style="stop-color:#1694A7"
         offset="0.0382" /><stop
         id="stop4413"
         style="stop-color:#26A8BA"
         offset="0.1177" /><stop
         id="stop4415"
         style="stop-color:#32B6C8"
         offset="0.2081" /><stop
         id="stop4417"
         style="stop-color:#39BED1"
         offset="0.3177" /><stop
         id="stop4419"
         style="stop-color:#3BC1D3"
         offset="0.5" /><stop
         id="stop4421"
         style="stop-color:#39BED1"
         offset="0.6823" /><stop
         id="stop4423"
         style="stop-color:#32B6C8"
         offset="0.7919" /><stop
         id="stop4425"
         style="stop-color:#26A8BA"
         offset="0.8823" /><stop
         id="stop4427"
         style="stop-color:#1694A7"
         offset="0.9618" /><stop
         id="stop4429"
         style="stop-color:#0B879A"
         offset="1" /></linearGradient><path
       id="path4432"
       d="M134.862,65.517c-5.318-0.258-16.663-0.682-26.354-0.682c-89.197,0-99.124,20.689-99.517,21.59   c-0.391,0.9-0.371,3.25-0.371,3.25v37.296c8.678-8.678,27.775-14.773,50.98-18.254c14.048-2.104,29.596-3.254,45.263-3.424   c2.771-0.029,5.546-0.029,8.315,0.002C113.178,105.294,140.18,65.775,134.862,65.517z"
       fill="url(#SVGID_18_)" /><linearGradient
       gradientTransform="matrix(1 0 0 -1 2462.3994 1688.9619)"
       y2="1572.1727"
       x2="-2343.8523"
       y1="1661.2954"
       x1="-2292.1035"
       gradientUnits="userSpaceOnUse"
       id="SVGID_19_"><stop
         id="stop4434"
         style="stop-color:#0B879A"
         offset="0" /><stop
         id="stop4436"
         style="stop-color:#379FB2"
         offset="0.1238" /><stop
         id="stop4438"
         style="stop-color:#5CB4C7"
         offset="0.2516" /><stop
         id="stop4440"
         style="stop-color:#79C5D7"
         offset="0.3797" /><stop
         id="stop4442"
         style="stop-color:#8DD1E3"
         offset="0.5064" /><stop
         id="stop4444"
         style="stop-color:#9AD8EA"
         offset="0.631" /><stop
         id="stop4446"
         style="stop-color:#9EDAEC"
         offset="0.7513" /><stop
         id="stop4448"
         style="stop-color:#9AD8EA"
         offset="0.7911" /><stop
         id="stop4450"
         style="stop-color:#8DD1E3"
         offset="0.8324" /><stop
         id="stop4452"
         style="stop-color:#79C5D7"
         offset="0.8743" /><stop
         id="stop4454"
         style="stop-color:#5CB4C7"
         offset="0.9167" /><stop
         id="stop4456"
         style="stop-color:#379FB2"
         offset="0.959" /><stop
         id="stop4458"
         style="stop-color:#0B879A"
         offset="1" /></linearGradient><path
       id="path4461"
       d="M108.502,108.35c24.314-36.528,42.304-74.786,37.882-95.585l30.262,19.293   c0,0,1.98,1.264,2.521,2.082c0.542,0.818,12.487,20.414-36.094,95.222c-3.575,5.504-6.885,11.989-8.104,12.592   C126.681,133.846,108.502,108.35,108.502,108.35z"
       fill="url(#SVGID_19_)" /><linearGradient
       gradientTransform="matrix(1 0 0 -1 2462.3994 1688.9619)"
       y2="1581.1045"
       x2="-2304.4409"
       y1="1616.4634"
       x1="-2285.5986"
       gradientUnits="userSpaceOnUse"
       id="SVGID_20_"><stop
         id="stop4463"
         style="stop-color:#0B5463"
         offset="0" /><stop
         id="stop4465"
         style="stop-color:#0B5463"
         offset="1" /></linearGradient><path
       id="path4468"
       d="M175.734,70.603   c-5.28,12.918-11.025,25.32-19.455,39.147l2.229,0.424c9.653-16.591,15.203-28.775,18.983-39.132L175.734,70.603z"
       enable-background="new    "
       fill="url(#SVGID_20_)"
       opacity="0.25" /><linearGradient
       gradientTransform="matrix(1 0 0 -1 2462.3994 1688.9619)"
       y2="1561.9183"
       x2="-2345.7146"
       y1="1659.3423"
       x1="-2293.7993"
       gradientUnits="userSpaceOnUse"
       id="SVGID_21_"><stop
         id="stop4470"
         style="stop-color:#0B879A"
         offset="0" /><stop
         id="stop4472"
         style="stop-color:#1694A7"
         offset="0.0382" /><stop
         id="stop4474"
         style="stop-color:#26A8BA"
         offset="0.1177" /><stop
         id="stop4476"
         style="stop-color:#32B6C8"
         offset="0.2081" /><stop
         id="stop4478"
         style="stop-color:#39BED1"
         offset="0.3177" /><stop
         id="stop4480"
         style="stop-color:#3BC1D3"
         offset="0.5" /><stop
         id="stop4482"
         style="stop-color:#39BED1"
         offset="0.6823" /><stop
         id="stop4484"
         style="stop-color:#32B6C8"
         offset="0.7919" /><stop
         id="stop4486"
         style="stop-color:#26A8BA"
         offset="0.8823" /><stop
         id="stop4488"
         style="stop-color:#1694A7"
         offset="0.9618" /><stop
         id="stop4490"
         style="stop-color:#0B879A"
         offset="1" /></linearGradient><path
       id="path4493"
       d="M144.094,130.381c48.582-74.808,36.636-94.4,36.094-95.222c-0.541-0.816-2.521-2.08-2.521-2.08   l-31.282-20.315c4.396,20.678-12.935,60.498-37.042,96.873c8.118,12.356,16.496,24.436,25.324,34.677   C136.426,142.471,140.834,135.398,144.094,130.381z"
       fill="url(#SVGID_21_)" /><linearGradient
       gradientTransform="matrix(1 0 0 -1 2462.3994 1688.9619)"
       y2="1558.8627"
       x2="-2342.1423"
       y1="1657.145"
       x1="-2289.7695"
       gradientUnits="userSpaceOnUse"
       id="SVGID_22_"><stop
         id="stop4495"
         style="stop-color:#0B879A"
         offset="0" /><stop
         id="stop4497"
         style="stop-color:#1694A7"
         offset="0.0382" /><stop
         id="stop4499"
         style="stop-color:#26A8BA"
         offset="0.1177" /><stop
         id="stop4501"
         style="stop-color:#32B6C8"
         offset="0.2081" /><stop
         id="stop4503"
         style="stop-color:#39BED1"
         offset="0.3177" /><stop
         id="stop4505"
         style="stop-color:#3BC1D3"
         offset="0.5" /><stop
         id="stop4507"
         style="stop-color:#39BED1"
         offset="0.6823" /><stop
         id="stop4509"
         style="stop-color:#32B6C8"
         offset="0.7919" /><stop
         id="stop4511"
         style="stop-color:#26A8BA"
         offset="0.8823" /><stop
         id="stop4513"
         style="stop-color:#1694A7"
         offset="0.9618" /><stop
         id="stop4515"
         style="stop-color:#0B879A"
         offset="1" /></linearGradient><path
       id="path4518"
       d="M133.788,145.667c0.107-0.055,0.26-0.191,0.43-0.375c-8.828-10.242-17.602-22.017-25.719-34.374   c-0.14,0.209-0.276,0.423-0.416,0.634C108.083,111.551,125.002,138.273,133.788,145.667z"
       fill="url(#SVGID_22_)" /><linearGradient
       gradientTransform="matrix(1 0 0 -1 2462.3994 1688.9619)"
       y2="1508.9988"
       x2="-2360.8638"
       y1="1545.3931"
       x1="-2374.2979"
       gradientUnits="userSpaceOnUse"
       id="SVGID_23_"><stop
         id="stop4520"
         style="stop-color:#0B5463"
         offset="0" /><stop
         id="stop4522"
         style="stop-color:#0B5463"
         offset="1" /></linearGradient><path
       id="path4525"
       d="M108.506,177.532   c-0.398-0.457-18.246-21.541-26.364-33.9l-1.325,1.514c10.186,14.547,19.059,25.396,26.666,33.479L108.506,177.532z"
       enable-background="new    "
       fill="url(#SVGID_23_)"
       opacity="0.2" /><linearGradient
       gradientTransform="matrix(1 0 0 -1 2462.3994 1688.9619)"
       y2="1484.3706"
       x2="-2332.9744"
       y1="1582.8257"
       x1="-2348.7886"
       gradientUnits="userSpaceOnUse"
       id="SVGID_24_"><stop
         id="stop4527"
         style="stop-color:#096F80"
         offset="0" /><stop
         id="stop4529"
         style="stop-color:#107B8C"
         offset="0.0244" /><stop
         id="stop4531"
         style="stop-color:#2095A6"
         offset="0.0888" /><stop
         id="stop4533"
         style="stop-color:#2CA8BA"
         offset="0.1599" /><stop
         id="stop4535"
         style="stop-color:#34B6C8"
         offset="0.2403" /><stop
         id="stop4537"
         style="stop-color:#39BFD0"
         offset="0.3378" /><stop
         id="stop4539"
         style="stop-color:#3BC1D3"
         offset="0.5" /><stop
         id="stop4541"
         style="stop-color:#39BED1"
         offset="0.6718" /><stop
         id="stop4543"
         style="stop-color:#33B6C8"
         offset="0.7751" /><stop
         id="stop4545"
         style="stop-color:#28A8BA"
         offset="0.8603" /><stop
         id="stop4547"
         style="stop-color:#1894A7"
         offset="0.9351" /><stop
         id="stop4549"
         style="stop-color:#057B8F"
         offset="1" /></linearGradient><path
       id="path4552"
       d="M134.217,145.292c-8.828-10.242-17.602-22.017-25.719-34.374c-0.929-1.415-1.853-2.833-2.763-4.261   c-15.667,0.17-31.37,1.219-45.418,3.324c0.451,0.946,7.536,12.602,12.601,20.398c48.58,74.808,71.339,71.865,72.308,71.703   c0.968-0.162,2.927-1.459,2.927-1.459l31.282-20.312C166.633,177.59,150.338,163.993,134.217,145.292z"
       fill="url(#SVGID_24_)" /></g><g
     id="g4568"><path
       id="path4556"
       d="M343.361,144.434h22.16L331.936,97.93l2.141-0.639c4.254-1.265,7.979-3.055,11.08-5.321   c3.072-2.249,5.529-4.831,7.293-7.667c1.795-2.877,3.125-5.902,3.955-8.993c0.832-3.104,1.254-6.431,1.254-9.878   c0-4.01-0.484-7.669-1.447-10.873c-0.945-3.176-2.166-5.828-3.621-7.88c-1.453-2.038-3.299-3.851-5.498-5.38   c-2.252-1.566-4.438-2.762-6.498-3.557c-2.09-0.808-4.526-1.46-7.26-1.945c-2.752-0.492-5.131-0.804-7.062-0.934   c-1.968-0.131-4.14-0.195-6.447-0.195h-46.498v109.767h16.861v-43.788h21.547L343.361,144.434z M290.185,85.371V49.86h23.754   c17.235,0,25.979,5.853,25.979,17.396c0,3.053-0.604,5.762-1.812,8.047c-1.197,2.288-2.761,4.107-4.627,5.412   c-1.812,1.271-4.146,2.271-6.908,2.976c-2.66,0.683-5.287,1.138-7.812,1.356c-2.465,0.215-5.344,0.322-8.559,0.322L290.185,85.371   L290.185,85.371z"
       fill="#535E5E" /><g
       id="g4562"><polygon
         id="polygon4558"
         points="377.693,34.668 377.693,53.037 396.461,53.037 396.461,42.297 396.461,34.668   "
         fill="#535E5E" /><rect
         id="rect4560"
         height="75.355"
         width="16.388"
         fill="#535E5E"
         y="69.081"
         x="378.887" /></g><path
       id="path4564"
       d="M461.328,83.839c2.494,0.852,4.33,1.846,5.615,3.04c1.283,1.192,2.297,2.726,3.018,4.558   c0.689,1.75,1.1,3.199,1.252,4.438c0.146,1.169,0.209,2.529,0.209,4.05v44.508h16.383v-44.75c0-3.497-0.182-6.688-0.54-9.495   c-0.351-2.707-1.138-5.615-2.322-8.641c-1.16-2.93-2.73-5.377-4.687-7.275c-1.947-1.9-4.705-3.521-8.188-4.814   c-3.521-1.307-7.771-1.967-12.646-1.967c-9.115,0-19.146,2.311-29.812,6.865l-1.373,0.584l-2.935-5.86h-11.104v75.354h16.379V87.47   l1.015-0.393c7.729-2.971,14.875-4.478,21.237-4.478C456.061,82.604,458.918,83.017,461.328,83.839z"
       fill="#535E5E" /><path
       id="path4566"
       d="M569.912,177.44c2.246-2.068,4.096-4.26,5.494-6.51c1.41-2.271,2.59-4.779,3.498-7.465   c0.92-2.699,1.562-5.346,1.92-7.854c0.354-2.535,0.541-5.199,0.541-7.924V69.081h-11.994L568,73.023l-1.555-0.646   c-7.771-3.243-15.076-4.886-21.729-4.886c-3.571,0-7.248,0.398-10.907,1.197c-3.636,0.785-7.421,2.182-11.257,4.15   c-3.811,1.955-7.219,4.412-10.141,7.306c-2.877,2.854-5.271,6.629-7.113,11.229c-1.852,4.604-2.789,9.863-2.789,15.625   c0,5.568,0.806,10.664,2.373,15.129c1.566,4.443,3.666,8.156,6.242,11.035c2.604,2.895,5.709,5.367,9.248,7.342   c3.562,1.98,7.264,3.41,11.021,4.25c9.812,2.188,20.924,1.555,31.473-2.211l2.113-0.756v2.963c0,2.863-0.187,5.52-0.535,7.9   c-0.365,2.438-1.17,5.016-2.396,7.627c-1.252,2.684-2.967,4.961-5.094,6.77c-2.115,1.801-5.018,3.291-8.613,4.439   c-3.561,1.129-7.803,1.703-12.604,1.703c-6.861,0-13.92-1.182-20.996-3.498l-1.85-0.676l-4.854,12.547l1.545,0.668   c8.832,3.438,18.32,5.189,28.146,5.189c5.01,0,9.646-0.432,13.783-1.273c4.108-0.85,7.688-2.004,10.629-3.447   C565.064,181.27,567.68,179.497,569.912,177.44z M563.936,128.993c-5.447,1.959-10.979,2.955-16.437,2.955   c-8.879,0-15.84-2.502-20.682-7.434c-4.834-4.916-7.287-11.273-7.287-18.872c0-7.319,2.432-13.259,7.229-17.661   c4.767-4.361,11.119-6.574,18.914-6.574c5.058,0,11.164,1.037,18.168,3.084l1.146,0.333v43.788L563.936,128.993z"
       fill="#535E5E" /></g><g
     id="g4592"><path
       id="path4570"
       d="M287.936,186.981l-2.072-5.762h-7.933l-2.03,5.762h-3.576l7.763-20.834h3.69l7.763,20.834H287.936z    M284.97,178.293l-1.944-5.646c-0.143-0.377-0.338-0.977-0.589-1.787c-0.251-0.812-0.423-1.41-0.518-1.787   c-0.255,1.164-0.629,2.436-1.121,3.816l-1.874,5.404H284.97z"
       fill="#758283" /><path
       id="path4572"
       d="M310.026,175.727h7.635v10.416c-1.248,0.404-2.447,0.693-3.599,0.863c-1.148,0.172-2.393,0.258-3.727,0.258   c-3.142,0-5.562-0.932-7.267-2.789c-1.703-1.857-2.556-4.48-2.556-7.869c0-3.34,0.959-5.953,2.881-7.842   c1.92-1.889,4.563-2.83,7.935-2.83c2.167,0,4.22,0.416,6.159,1.248l-1.192,2.822c-1.685-0.771-3.367-1.164-5.052-1.164   c-2.215,0-3.965,0.695-5.252,2.09c-1.286,1.391-1.932,3.291-1.932,5.703c0,2.535,0.58,4.465,1.737,5.783   c1.159,1.318,2.826,1.98,5.004,1.98c1.1,0,2.271-0.137,3.521-0.41v-5.354h-4.3L310.026,175.727L310.026,175.727z"
       fill="#758283" /><path
       id="path4574"
       d="M339.783,186.981h-4.158l-10.204-16.533h-0.113l0.07,0.922c0.133,1.76,0.199,3.369,0.199,4.826v10.785   h-3.08v-20.748h4.115l10.176,16.447h0.086c-0.021-0.219-0.057-1.012-0.113-2.377c-0.056-1.367-0.086-2.436-0.086-3.201v-10.869   h3.108V186.981z"
       fill="#758283" /><path
       id="path4576"
       d="M361.38,166.233v13.426c0,1.533-0.328,2.873-0.985,4.021c-0.656,1.148-1.606,2.033-2.854,2.652   c-1.244,0.619-2.73,0.932-4.464,0.932c-2.573,0-4.574-0.684-6.002-2.043c-1.431-1.361-2.146-3.234-2.146-5.621v-13.369h3.405   v13.129c0,1.713,0.398,2.977,1.193,3.789s2.015,1.221,3.66,1.221c3.196,0,4.798-1.68,4.798-5.037v-13.102h3.393L361.38,166.233   L361.38,166.233z"
       fill="#758283" /><path
       id="path4578"
       d="M381.554,187.264c-1.983,0-3.526-0.717-4.627-2.145h-0.196c0.133,1.324,0.196,2.129,0.196,2.412v6.43   h-3.334v-22.68h2.695c0.076,0.293,0.231,0.994,0.469,2.102h0.17c1.041-1.59,2.604-2.385,4.687-2.385   c1.959,0,3.481,0.709,4.576,2.129c1.094,1.418,1.641,3.41,1.641,5.977c0,2.564-0.559,4.562-1.668,6.004   C385.048,186.543,383.513,187.264,381.554,187.264z M380.745,173.725c-1.324,0-2.292,0.389-2.902,1.164   c-0.607,0.773-0.916,2.016-0.916,3.719v0.496c0,1.912,0.304,3.295,0.908,4.148c0.605,0.857,1.595,1.285,2.967,1.285   c1.154,0,2.043-0.473,2.668-1.42c0.625-0.945,0.938-2.293,0.938-4.045c0-1.76-0.312-3.09-0.932-3.994   C382.855,174.174,381.946,173.725,380.745,173.725z"
       fill="#758283" /><path
       id="path4580"
       d="M401.377,186.981l-0.667-2.188h-0.113c-0.758,0.955-1.519,1.605-2.284,1.951   c-0.767,0.346-1.75,0.52-2.95,0.52c-1.542,0-2.746-0.416-3.612-1.248c-0.865-0.834-1.298-2.014-1.298-3.533   c0-1.619,0.601-2.84,1.802-3.662c1.202-0.822,3.033-1.271,5.492-1.35l2.711-0.084v-0.84c0-1.002-0.234-1.752-0.702-2.25   c-0.468-0.494-1.192-0.742-2.179-0.742c-0.807,0-1.575,0.115-2.312,0.354c-0.735,0.238-1.445,0.518-2.129,0.838l-1.079-2.385   c0.854-0.443,1.783-0.781,2.798-1.016c1.013-0.23,1.969-0.35,2.865-0.35c1.996,0,3.502,0.438,4.521,1.309   c1.018,0.869,1.522,2.236,1.522,4.102v10.572h-2.385L401.377,186.981L401.377,186.981z M396.409,184.709   c1.211,0,2.184-0.34,2.917-1.016c0.731-0.678,1.101-1.625,1.101-2.846v-1.361l-2.016,0.084c-1.57,0.057-2.713,0.318-3.428,0.789   c-0.716,0.467-1.071,1.184-1.071,2.146c0,0.699,0.208,1.242,0.624,1.625C394.952,184.518,395.577,184.709,396.409,184.709z"
       fill="#758283" /><path
       id="path4582"
       d="M414.602,187.264c-2.375,0-4.181-0.691-5.414-2.078c-1.232-1.389-1.853-3.377-1.853-5.971   c0-2.639,0.646-4.67,1.938-6.088c1.291-1.42,3.154-2.129,5.599-2.129c1.656,0,3.146,0.309,4.471,0.922l-1.008,2.686   c-1.41-0.549-2.574-0.822-3.491-0.822c-2.716,0-4.072,1.801-4.072,5.406c0,1.76,0.34,3.082,1.018,3.967   c0.676,0.885,1.667,1.326,2.973,1.326c1.485,0,2.894-0.369,4.217-1.105v2.908c-0.598,0.352-1.231,0.604-1.907,0.752   C416.386,187.188,415.565,187.264,414.602,187.264z"
       fill="#758283" /><path
       id="path4584"
       d="M425.737,178.692l1.888-2.355l4.74-5.053h3.847l-6.315,6.74l6.715,8.955h-3.916l-5.039-6.883l-1.83,1.504   v5.379h-3.309v-22.082h3.309v10.771l-0.171,3.021h0.084L425.737,178.692L425.737,178.692z"
       fill="#758283" /><path
       id="path4586"
       d="M448.811,186.981l-0.666-2.188h-0.112c-0.758,0.955-1.521,1.605-2.285,1.951   c-0.769,0.346-1.75,0.52-2.952,0.52c-1.542,0-2.746-0.416-3.611-1.248c-0.863-0.834-1.299-2.014-1.299-3.533   c0-1.619,0.604-2.84,1.803-3.662c1.201-0.822,3.032-1.271,5.491-1.35l2.711-0.084v-0.84c0-1.002-0.231-1.752-0.7-2.25   c-0.47-0.494-1.193-0.742-2.181-0.742c-0.805,0-1.573,0.115-2.312,0.354c-0.738,0.236-1.448,0.518-2.129,0.838l-1.079-2.385   c0.852-0.443,1.782-0.781,2.796-1.016c1.012-0.23,1.968-0.35,2.867-0.35c1.994,0,3.502,0.438,4.52,1.309   c1.021,0.869,1.525,2.236,1.525,4.102v10.572h-2.387V186.981z M443.843,184.709c1.211,0,2.187-0.34,2.917-1.016   c0.733-0.678,1.104-1.625,1.104-2.846v-1.361l-2.019,0.084c-1.567,0.057-2.713,0.318-3.428,0.789   c-0.715,0.467-1.071,1.184-1.071,2.146c0,0.699,0.208,1.242,0.624,1.625C442.386,184.518,443.011,184.709,443.843,184.709z"
       fill="#758283" /><path
       id="path4588"
       d="M468.96,171.284v1.83l-2.682,0.496c0.245,0.332,0.448,0.738,0.606,1.221   c0.161,0.482,0.241,0.994,0.241,1.533c0,1.617-0.558,2.891-1.675,3.816c-1.116,0.928-2.653,1.393-4.611,1.393   c-0.502,0-0.957-0.039-1.361-0.113c-0.721,0.443-1.077,0.965-1.077,1.562c0,0.357,0.168,0.631,0.504,0.811   c0.336,0.182,0.953,0.271,1.852,0.271h2.739c1.73,0,3.046,0.369,3.945,1.104c0.896,0.738,1.349,1.803,1.349,3.193   c0,1.779-0.734,3.148-2.2,4.115c-1.467,0.965-3.586,1.445-6.355,1.445c-2.142,0-3.771-0.379-4.896-1.135   c-1.125-0.758-1.688-1.836-1.688-3.236c0-0.965,0.306-1.773,0.915-2.434c0.608-0.658,1.465-1.113,2.562-1.369   c-0.443-0.188-0.812-0.494-1.1-0.916c-0.289-0.42-0.437-0.863-0.437-1.326c0-0.586,0.166-1.084,0.497-1.488   c0.331-0.406,0.823-0.811,1.479-1.207c-0.813-0.352-1.477-0.92-1.979-1.709c-0.507-0.791-0.759-1.717-0.759-2.773   c0-1.703,0.536-3.023,1.609-3.961c1.071-0.939,2.604-1.404,4.592-1.404c0.442,0,0.908,0.031,1.396,0.092   c0.486,0.062,0.854,0.125,1.103,0.191h5.433V171.284z M456.627,189.42c0,0.721,0.324,1.273,0.972,1.66   c0.648,0.391,1.562,0.582,2.732,0.582c1.815,0,3.17-0.26,4.059-0.781c0.893-0.52,1.334-1.211,1.334-2.068   c0-0.684-0.24-1.166-0.729-1.455s-1.396-0.436-2.718-0.436h-2.526c-0.955,0-1.715,0.229-2.277,0.676   C456.908,188.045,456.627,188.655,456.627,189.42z M458.061,176.364c0,0.982,0.255,1.74,0.761,2.27   c0.506,0.531,1.229,0.799,2.179,0.799c1.931,0,2.896-1.031,2.896-3.098c0-1.02-0.237-1.811-0.718-2.359   c-0.479-0.559-1.204-0.83-2.179-0.83c-0.965,0-1.696,0.27-2.191,0.818C458.311,174.516,458.061,175.315,458.061,176.364z"
       fill="#758283" /><path
       id="path4590"
       d="M478.578,187.264c-2.44,0-4.352-0.711-5.727-2.139c-1.378-1.424-2.064-3.385-2.064-5.881   c0-2.562,0.639-4.58,1.915-6.047s3.033-2.199,5.266-2.199c2.072,0,3.709,0.629,4.91,1.889c1.202,1.26,1.803,2.988,1.803,5.193   v1.803h-10.459c0.048,1.523,0.459,2.693,1.234,3.514c0.775,0.818,1.869,1.229,3.278,1.229c0.927,0,1.79-0.088,2.591-0.262   c0.799-0.176,1.657-0.467,2.575-0.873v2.711c-0.813,0.387-1.641,0.662-2.473,0.822   C480.599,187.184,479.646,187.264,478.578,187.264z M477.968,173.526c-1.06,0-1.907,0.336-2.547,1.008   c-0.639,0.672-1.02,1.65-1.143,2.939h7.124c-0.021-1.299-0.331-2.277-0.938-2.943C479.859,173.86,479.028,173.526,477.968,173.526z   "
       fill="#758283" /></g></svg>