<?xml version="1.0" encoding="utf-8"?>
<!-- Generator: Adobe Illustrator 16.0.4, SVG Export Plug-In . SVG Version: 6.00 Build 0)  -->
<!DOCTYPE svg PUBLIC "-//W3C//DTD SVG 1.1//EN" "http://www.w3.org/Graphics/SVG/1.1/DTD/svg11.dtd">
<svg version="1.1" id="Calque_1" xmlns="http://www.w3.org/2000/svg" xmlns:xlink="http://www.w3.org/1999/xlink" x="0px" y="0px"
	 width="216px" height="216px" viewBox="0 0 216 216" enable-background="new 0 0 216 216" xml:space="preserve">
<g>
	<linearGradient id="SVGID_1_" gradientUnits="userSpaceOnUse" x1="112.8467" y1="110.8281" x2="104.8305" y2="101.4758">
		<stop  offset="0" style="stop-color:#0B5463"/>
		<stop  offset="1" style="stop-color:#0B5463"/>
	</linearGradient>
	<polygon fill="url(#SVGID_1_)" points="102.283,103.891 114.611,103.467 108.446,115.113 	"/>
	<linearGradient id="SVGID_2_" gradientUnits="userSpaceOnUse" x1="181.8457" y1="114.8608" x2="181.8457" y2="179.1394">
		<stop  offset="0" style="stop-color:#0B5463"/>
		<stop  offset="0.0704" style="stop-color:#0B6070"/>
		<stop  offset="0.2165" style="stop-color:#0B7285"/>
		<stop  offset="0.3608" style="stop-color:#0A7D91"/>
		<stop  offset="0.5" style="stop-color:#0A8195"/>
		<stop  offset="0.6392" style="stop-color:#0A7D91"/>
		<stop  offset="0.7835" style="stop-color:#0B7285"/>
		<stop  offset="0.9296" style="stop-color:#0B6070"/>
		<stop  offset="1" style="stop-color:#0B5463"/>
	</linearGradient>
	<path fill="url(#SVGID_2_)" d="M155.777,106.82c45.553,7.381,52.088,18.775,52.088,18.775c0-0.002,0.111,1.145,0,2.107
		c-0.055,0.482-0.242,0.842-0.371,1.141c-0.262,0.602-4.766,10.004-34.201,16.201L155.777,106.82z"/>
	<linearGradient id="SVGID_3_" gradientUnits="userSpaceOnUse" x1="39.0225" y1="184.0215" x2="59.8794" y2="146.886">
		<stop  offset="0" style="stop-color:#014251"/>
		<stop  offset="0.0859" style="stop-color:#025262"/>
		<stop  offset="0.2267" style="stop-color:#046676"/>
		<stop  offset="0.3658" style="stop-color:#057183"/>
		<stop  offset="0.5" style="stop-color:#057587"/>
		<stop  offset="0.6342" style="stop-color:#057183"/>
		<stop  offset="0.7733" style="stop-color:#046676"/>
		<stop  offset="0.9141" style="stop-color:#025262"/>
		<stop  offset="1" style="stop-color:#014251"/>
	</linearGradient>
	<path fill="url(#SVGID_3_)" d="M40.986,143.514c-10.369,27.344-5.049,36.055-4.692,36.596c0.181,0.271,0.349,0.668,0.755,0.932
		c0.157,0.104,2.143-0.377,2.143-0.377s18.623-0.936,40.443-31.941L40.986,143.514z"/>
	<linearGradient id="SVGID_4_" gradientUnits="userSpaceOnUse" x1="98.5557" y1="57.9443" x2="64.0335" y2="17.668">
		<stop  offset="0" style="stop-color:#0D283A"/>
		<stop  offset="0.0284" style="stop-color:#0C3042"/>
		<stop  offset="0.1353" style="stop-color:#0B495A"/>
		<stop  offset="0.2468" style="stop-color:#0A5B6C"/>
		<stop  offset="0.3647" style="stop-color:#0A6676"/>
		<stop  offset="0.5" style="stop-color:#0A697A"/>
		<stop  offset="0.6177" style="stop-color:#0A6070"/>
		<stop  offset="0.8125" style="stop-color:#0B4758"/>
		<stop  offset="1" style="stop-color:#0D283A"/>
	</linearGradient>
	<path fill="url(#SVGID_4_)" d="M109.02,38.875C84.038,11.5,71.957,13.07,71.258,13.186c-0.35,0.059-0.69,0.072-1.158,0.311
		c-0.832,0.426-1.77,3.182-1.77,3.182s-5.283,15.117,15.867,55.791L109.02,38.875z"/>
	<linearGradient id="SVGID_5_" gradientUnits="userSpaceOnUse" x1="166.8896" y1="188.4316" x2="140.2198" y2="102.5168">
		<stop  offset="0" style="stop-color:#0D283A"/>
		<stop  offset="0.0284" style="stop-color:#0C3042"/>
		<stop  offset="0.1353" style="stop-color:#0B495A"/>
		<stop  offset="0.2468" style="stop-color:#0A5B6C"/>
		<stop  offset="0.3647" style="stop-color:#0A6676"/>
		<stop  offset="0.5" style="stop-color:#0A697A"/>
		<stop  offset="0.6177" style="stop-color:#0A6070"/>
		<stop  offset="0.8125" style="stop-color:#0B4758"/>
		<stop  offset="1" style="stop-color:#0D283A"/>
	</linearGradient>
	<path fill="url(#SVGID_5_)" d="M130.812,144.072c33.871,38.717,45.762,36.561,45.762,36.561s2.182,0.508,2.332,0.41
		c0.404-0.266,0.572-0.662,0.752-0.934c0.482-0.73,10.053-16.422-22.443-72.979L130.812,144.072z"/>
	<linearGradient id="SVGID_6_" gradientUnits="userSpaceOnUse" x1="47.5376" y1="114.8604" x2="47.5376" y2="179.1376">
		<stop  offset="0" style="stop-color:#0B5463"/>
		<stop  offset="0.0704" style="stop-color:#0B6070"/>
		<stop  offset="0.2165" style="stop-color:#0B7285"/>
		<stop  offset="0.3608" style="stop-color:#0A7D91"/>
		<stop  offset="0.5" style="stop-color:#0A8195"/>
		<stop  offset="0.6392" style="stop-color:#0A7D91"/>
		<stop  offset="0.7835" style="stop-color:#0B7285"/>
		<stop  offset="0.9296" style="stop-color:#0B6070"/>
		<stop  offset="1" style="stop-color:#0B5463"/>
	</linearGradient>
	<path fill="url(#SVGID_6_)" d="M86.99,150.014c-69.822-2.939-78.172-20.346-78.529-21.17c-0.109-0.25-0.417-0.746-0.371-1.141
		c0.145-1.238,2.695-3.439,2.695-3.439s18.578-11.404,49.362-17.545L86.99,150.014z"/>
	<linearGradient id="SVGID_7_" gradientUnits="userSpaceOnUse" x1="82.9043" y1="51.7871" x2="108.1387" y2="51.7871">
		<stop  offset="0" style="stop-color:#0B5463"/>
		<stop  offset="1" style="stop-color:#0B5463"/>
	</linearGradient>
	<path opacity="0.4" fill="url(#SVGID_7_)" d="M107.084,36.783c-6.985,7.438-15.034,17.199-24.18,30.008h1.784
		c5.405-6.887,18.892-23.848,23.45-28.838L107.084,36.783z"/>
	<linearGradient id="SVGID_8_" gradientUnits="userSpaceOnUse" x1="116.2324" y1="78.4712" x2="116.2324" y2="17.8433">
		<stop  offset="0" style="stop-color:#014251"/>
		<stop  offset="0.5" style="stop-color:#057587"/>
		<stop  offset="0.6934" style="stop-color:#057384"/>
		<stop  offset="0.8038" style="stop-color:#056B7C"/>
		<stop  offset="0.8932" style="stop-color:#035E6E"/>
		<stop  offset="0.971" style="stop-color:#024B5B"/>
		<stop  offset="1" style="stop-color:#014251"/>
	</linearGradient>
	<path fill="url(#SVGID_8_)" d="M135.287,68.23c18.262-43.152,11.109-53.051,11.109-53.051s-0.377-1.594-0.541-1.684
		c-0.309-0.168-0.918-0.268-1.159-0.309c-0.884-0.148-19.868-2.605-60.008,53.604L135.287,68.23z"/>
	<linearGradient id="SVGID_9_" gradientUnits="userSpaceOnUse" x1="60.854" y1="196.1396" x2="171.613" y2="28.7191">
		<stop  offset="0" style="stop-color:#0B879A"/>
		<stop  offset="0.0824" style="stop-color:#379FB2"/>
		<stop  offset="0.1675" style="stop-color:#5CB4C7"/>
		<stop  offset="0.2527" style="stop-color:#79C5D7"/>
		<stop  offset="0.337" style="stop-color:#8DD1E3"/>
		<stop  offset="0.42" style="stop-color:#9AD8EA"/>
		<stop  offset="0.5" style="stop-color:#9EDAEC"/>
		<stop  offset="0.58" style="stop-color:#9AD8EA"/>
		<stop  offset="0.663" style="stop-color:#8DD1E3"/>
		<stop  offset="0.7473" style="stop-color:#79C5D7"/>
		<stop  offset="0.8325" style="stop-color:#5CB4C7"/>
		<stop  offset="0.9176" style="stop-color:#379FB2"/>
		<stop  offset="1" style="stop-color:#0B879A"/>
	</linearGradient>
	<path fill="url(#SVGID_9_)" d="M107.643,176.496c-24.74,26.969-36.709,25.414-37.406,25.299c-0.967-0.162-2.927-1.459-2.927-1.459
		l-30.261-19.295c12.742-2.709,28.422-17.855,44.926-37.119L107.643,176.496z"/>
	<linearGradient id="SVGID_10_" gradientUnits="userSpaceOnUse" x1="50.8989" y1="199.4961" x2="94.768" y2="160.218">
		<stop  offset="0" style="stop-color:#057B8F"/>
		<stop  offset="0.0822" style="stop-color:#038DA1"/>
		<stop  offset="0.1808" style="stop-color:#029AB0"/>
		<stop  offset="0.3007" style="stop-color:#01A2B8"/>
		<stop  offset="0.5" style="stop-color:#01A4BB"/>
		<stop  offset="0.6993" style="stop-color:#01A2B8"/>
		<stop  offset="0.8192" style="stop-color:#029AB0"/>
		<stop  offset="0.9178" style="stop-color:#038DA1"/>
		<stop  offset="1" style="stop-color:#057B8F"/>
	</linearGradient>
	<path fill="url(#SVGID_10_)" d="M108.662,177.518c-24.74,26.967-36.708,25.412-37.404,25.297c-0.969-0.162-2.928-1.459-2.928-1.459
		l-31.281-20.314c12.742-2.709,29.441-16.834,45.945-36.098L108.662,177.518z"/>
	<linearGradient id="SVGID_11_" gradientUnits="userSpaceOnUse" x1="46.9746" y1="27.5698" x2="148.8414" y2="197.3475">
		<stop  offset="0" style="stop-color:#057B8F"/>
		<stop  offset="0.0176" style="stop-color:#0A8093"/>
		<stop  offset="0.1407" style="stop-color:#279AAD"/>
		<stop  offset="0.2631" style="stop-color:#3BAEBF"/>
		<stop  offset="0.3837" style="stop-color:#48B9CA"/>
		<stop  offset="0.5" style="stop-color:#4CBDCE"/>
		<stop  offset="0.6163" style="stop-color:#48B9CA"/>
		<stop  offset="0.7369" style="stop-color:#3BAEBF"/>
		<stop  offset="0.8593" style="stop-color:#279AAD"/>
		<stop  offset="0.9824" style="stop-color:#0A8093"/>
		<stop  offset="1" style="stop-color:#057B8F"/>
	</linearGradient>
	<path fill="url(#SVGID_11_)" d="M42.471,72.678c-10.99-28.297-5.519-37.258-5.156-37.807c0.541-0.818,2.524-2.08,2.524-2.08
		L70.1,13.496c-2.627,12.354,4.059,31.447,14.324,53.541L42.471,72.678z"/>
	<linearGradient id="SVGID_12_" gradientUnits="userSpaceOnUse" x1="157.1602" y1="196.3154" x2="91.6597" y2="113.8148">
		<stop  offset="0" style="stop-color:#057B8F"/>
		<stop  offset="0.0257" style="stop-color:#0A8093"/>
		<stop  offset="0.2053" style="stop-color:#279AAD"/>
		<stop  offset="0.384" style="stop-color:#3BAEBF"/>
		<stop  offset="0.5599" style="stop-color:#48B9CA"/>
		<stop  offset="0.7296" style="stop-color:#4CBDCE"/>
		<stop  offset="0.7925" style="stop-color:#48B9CA"/>
		<stop  offset="0.8577" style="stop-color:#3BAEBF"/>
		<stop  offset="0.9239" style="stop-color:#279AAD"/>
		<stop  offset="0.9905" style="stop-color:#0A8093"/>
		<stop  offset="1" style="stop-color:#057B8F"/>
	</linearGradient>
	<path fill="url(#SVGID_12_)" d="M106.226,106.365c-15.667,0.17-31.37,1.221-45.417,3.326c0.451,0.945,7.535,12.602,12.601,20.4
		c48.579,74.805,71.339,71.863,72.308,71.701c0.967-0.16,2.928-1.457,2.928-1.457l30.262-19.293
		C158.289,176.66,129.629,143.062,106.226,106.365z"/>
	<linearGradient id="SVGID_13_" gradientUnits="userSpaceOnUse" x1="62.5137" y1="69.165" x2="49.7607" y2="23.2544">
		<stop  offset="0" style="stop-color:#057B8F"/>
		<stop  offset="0.0822" style="stop-color:#038DA1"/>
		<stop  offset="0.1808" style="stop-color:#029AB0"/>
		<stop  offset="0.3007" style="stop-color:#01A2B8"/>
		<stop  offset="0.5" style="stop-color:#01A4BB"/>
		<stop  offset="0.6993" style="stop-color:#01A2B8"/>
		<stop  offset="0.8192" style="stop-color:#029AB0"/>
		<stop  offset="0.9178" style="stop-color:#038DA1"/>
		<stop  offset="1" style="stop-color:#057B8F"/>
	</linearGradient>
	<path fill="url(#SVGID_13_)" d="M41.451,73.699c-10.99-28.299-5.519-37.26-5.157-37.809c0.542-0.816,2.524-2.08,2.524-2.08
		L70.1,13.496c-2.627,12.354,3.038,32.469,13.303,54.561L41.451,73.699z"/>
	<linearGradient id="SVGID_14_" gradientUnits="userSpaceOnUse" x1="206.9424" y1="100.1245" x2="8.2442" y2="100.1245">
		<stop  offset="0" style="stop-color:#0B879A"/>
		<stop  offset="0.0128" style="stop-color:#118B9E"/>
		<stop  offset="0.1121" style="stop-color:#36A5BA"/>
		<stop  offset="0.2115" style="stop-color:#53BAD0"/>
		<stop  offset="0.3099" style="stop-color:#67C8E0"/>
		<stop  offset="0.4066" style="stop-color:#74D1E9"/>
		<stop  offset="0.5" style="stop-color:#78D4EC"/>
		<stop  offset="0.5934" style="stop-color:#74D1E9"/>
		<stop  offset="0.6901" style="stop-color:#67C8E0"/>
		<stop  offset="0.7885" style="stop-color:#53BAD0"/>
		<stop  offset="0.8879" style="stop-color:#36A5BA"/>
		<stop  offset="0.9872" style="stop-color:#118B9E"/>
		<stop  offset="1" style="stop-color:#0B879A"/>
	</linearGradient>
	<path fill="url(#SVGID_14_)" d="M155.75,110.549c23.613,3.406,43.152,8.193,52.115,17.154V91.777c0,0,0.02-2.35-0.371-3.25
		c-0.26-0.594-4.66-9.783-33.17-15.98L155.75,110.549z"/>
	<linearGradient id="SVGID_15_" gradientUnits="userSpaceOnUse" x1="149.9844" y1="97.2241" x2="206.7763" y2="100.2847">
		<stop  offset="0" style="stop-color:#096F80"/>
		<stop  offset="0.0061" style="stop-color:#097181"/>
		<stop  offset="0.0912" style="stop-color:#0B8395"/>
		<stop  offset="0.1876" style="stop-color:#0C8FA4"/>
		<stop  offset="0.3049" style="stop-color:#0D97AC"/>
		<stop  offset="0.5" style="stop-color:#0D99AF"/>
		<stop  offset="0.6951" style="stop-color:#0D97AC"/>
		<stop  offset="0.8124" style="stop-color:#0C8FA4"/>
		<stop  offset="0.9088" style="stop-color:#0B8395"/>
		<stop  offset="0.9939" style="stop-color:#097181"/>
		<stop  offset="1" style="stop-color:#096F80"/>
	</linearGradient>
	<path fill="url(#SVGID_15_)" d="M155.75,109.178c23.613,3.406,43.152,9.564,52.115,18.525V90.406c0,0,0.02-2.35-0.371-3.25
		c-0.26-0.594-4.66-9.783-33.17-15.98L155.75,109.178z"/>
	<linearGradient id="SVGID_16_" gradientUnits="userSpaceOnUse" x1="8.0898" y1="97.3203" x2="110.5544" y2="97.3203">
		<stop  offset="0" style="stop-color:#0B879A"/>
		<stop  offset="0.0225" style="stop-color:#118B9E"/>
		<stop  offset="0.1971" style="stop-color:#36A5BA"/>
		<stop  offset="0.3718" style="stop-color:#53BAD0"/>
		<stop  offset="0.5447" style="stop-color:#67C8E0"/>
		<stop  offset="0.7147" style="stop-color:#74D1E9"/>
		<stop  offset="0.8788" style="stop-color:#78D4EC"/>
		<stop  offset="0.9015" style="stop-color:#74D1E9"/>
		<stop  offset="0.9249" style="stop-color:#67C8E0"/>
		<stop  offset="0.9487" style="stop-color:#53BAD0"/>
		<stop  offset="0.9728" style="stop-color:#36A5BA"/>
		<stop  offset="0.9969" style="stop-color:#118B9E"/>
		<stop  offset="1" style="stop-color:#0B879A"/>
	</linearGradient>
	<path fill="url(#SVGID_16_)" d="M134.332,67.619c-5.318-0.258-16.663-0.682-26.354-0.682c-89.197,0-99.124,20.689-99.517,21.59
		c-0.391,0.9-0.371,3.25-0.371,3.25v35.926c8.678-8.678,27.775-13.406,50.98-16.885c14.048-2.105,29.596-3.254,45.263-3.424
		c2.771-0.029,5.546-0.029,8.315,0C112.648,107.395,139.65,67.877,134.332,67.619z"/>
	<linearGradient id="SVGID_17_" gradientUnits="userSpaceOnUse" x1="80.1479" y1="70.8032" x2="41.6392" y2="65.3879">
		<stop  offset="0" style="stop-color:#0B5463"/>
		<stop  offset="1" style="stop-color:#0B5463"/>
	</linearGradient>
	<path opacity="0.2" fill="url(#SVGID_17_)" d="M83.417,64.846c-18.644,0.945-32.06,2.318-43.277,5.354l0.536,1.471
		c1.021-0.166,2.295-0.514,3.332-0.67c12.669-1.9,26.317-3.637,40.416-3.963L83.417,64.846z"/>
	<linearGradient id="SVGID_18_" gradientUnits="userSpaceOnUse" x1="119.3311" y1="103.7407" x2="10.5072" y2="88.4372">
		<stop  offset="0" style="stop-color:#0B879A"/>
		<stop  offset="0.0382" style="stop-color:#1694A7"/>
		<stop  offset="0.1177" style="stop-color:#26A8BA"/>
		<stop  offset="0.2081" style="stop-color:#32B6C8"/>
		<stop  offset="0.3177" style="stop-color:#39BED1"/>
		<stop  offset="0.5" style="stop-color:#3BC1D3"/>
		<stop  offset="0.6823" style="stop-color:#39BED1"/>
		<stop  offset="0.7919" style="stop-color:#32B6C8"/>
		<stop  offset="0.8823" style="stop-color:#26A8BA"/>
		<stop  offset="0.9618" style="stop-color:#1694A7"/>
		<stop  offset="1" style="stop-color:#0B879A"/>
	</linearGradient>
	<path fill="url(#SVGID_18_)" d="M134.332,66.248c-5.318-0.258-16.663-0.682-26.354-0.682c-89.197,0-99.124,20.689-99.517,21.59
		c-0.391,0.9-0.371,3.25-0.371,3.25v37.297c8.678-8.678,27.775-14.775,50.98-18.256c14.048-2.105,29.596-3.254,45.263-3.424
		c2.771-0.029,5.546-0.029,8.315,0.002C112.648,106.025,139.65,66.506,134.332,66.248z"/>
	<linearGradient id="SVGID_19_" gradientUnits="userSpaceOnUse" x1="169.7666" y1="28.3965" x2="118.0165" y2="117.5217">
		<stop  offset="0" style="stop-color:#0B879A"/>
		<stop  offset="0.1238" style="stop-color:#379FB2"/>
		<stop  offset="0.2516" style="stop-color:#5CB4C7"/>
		<stop  offset="0.3797" style="stop-color:#79C5D7"/>
		<stop  offset="0.5064" style="stop-color:#8DD1E3"/>
		<stop  offset="0.631" style="stop-color:#9AD8EA"/>
		<stop  offset="0.7513" style="stop-color:#9EDAEC"/>
		<stop  offset="0.7911" style="stop-color:#9AD8EA"/>
		<stop  offset="0.8324" style="stop-color:#8DD1E3"/>
		<stop  offset="0.8743" style="stop-color:#79C5D7"/>
		<stop  offset="0.9167" style="stop-color:#5CB4C7"/>
		<stop  offset="0.959" style="stop-color:#379FB2"/>
		<stop  offset="1" style="stop-color:#0B879A"/>
	</linearGradient>
	<path fill="url(#SVGID_19_)" d="M107.973,109.08c24.314-36.527,42.305-74.785,37.883-95.584l30.262,19.293
		c0,0,1.98,1.264,2.521,2.082s12.486,20.414-36.095,95.221c-3.575,5.504-6.885,11.99-8.103,12.592
		C126.151,134.578,107.973,109.08,107.973,109.08z"/>
	<linearGradient id="SVGID_20_" gradientUnits="userSpaceOnUse" x1="176.2725" y1="73.228" x2="157.4306" y2="108.5867">
		<stop  offset="0" style="stop-color:#0B5463"/>
		<stop  offset="1" style="stop-color:#0B5463"/>
	</linearGradient>
	<path opacity="0.25" fill="url(#SVGID_20_)" d="M175.205,71.334c-5.281,12.918-11.025,25.32-19.455,39.146l2.229,0.424
		c9.654-16.59,15.203-28.775,18.984-39.131L175.205,71.334z"/>
	<linearGradient id="SVGID_21_" gradientUnits="userSpaceOnUse" x1="168.0703" y1="30.3545" x2="116.156" y2="127.7768">
		<stop  offset="0" style="stop-color:#0B879A"/>
		<stop  offset="0.0382" style="stop-color:#1694A7"/>
		<stop  offset="0.1177" style="stop-color:#26A8BA"/>
		<stop  offset="0.2081" style="stop-color:#32B6C8"/>
		<stop  offset="0.3177" style="stop-color:#39BED1"/>
		<stop  offset="0.5" style="stop-color:#3BC1D3"/>
		<stop  offset="0.6823" style="stop-color:#39BED1"/>
		<stop  offset="0.7919" style="stop-color:#32B6C8"/>
		<stop  offset="0.8823" style="stop-color:#26A8BA"/>
		<stop  offset="0.9618" style="stop-color:#1694A7"/>
		<stop  offset="1" style="stop-color:#0B879A"/>
	</linearGradient>
	<path fill="url(#SVGID_21_)" d="M143.564,131.111c48.582-74.807,36.637-94.4,36.094-95.221c-0.541-0.816-2.521-2.08-2.521-2.08
		l-31.281-20.314c4.395,20.678-12.936,60.498-37.042,96.871c8.118,12.357,16.496,24.436,25.324,34.678
		C135.896,143.201,140.305,136.129,143.564,131.111z"/>
	<linearGradient id="SVGID_22_" gradientUnits="userSpaceOnUse" x1="172.0977" y1="32.5488" x2="119.7263" y2="130.8288">
		<stop  offset="0" style="stop-color:#0B879A"/>
		<stop  offset="0.0382" style="stop-color:#1694A7"/>
		<stop  offset="0.1177" style="stop-color:#26A8BA"/>
		<stop  offset="0.2081" style="stop-color:#32B6C8"/>
		<stop  offset="0.3177" style="stop-color:#39BED1"/>
		<stop  offset="0.5" style="stop-color:#3BC1D3"/>
		<stop  offset="0.6823" style="stop-color:#39BED1"/>
		<stop  offset="0.7919" style="stop-color:#32B6C8"/>
		<stop  offset="0.8823" style="stop-color:#26A8BA"/>
		<stop  offset="0.9618" style="stop-color:#1694A7"/>
		<stop  offset="1" style="stop-color:#0B879A"/>
	</linearGradient>
	<path fill="url(#SVGID_22_)" d="M133.258,146.396c0.107-0.055,0.26-0.195,0.43-0.375c-8.828-10.242-17.602-22.016-25.719-34.373
		c-0.14,0.209-0.276,0.422-0.416,0.633C107.553,112.281,124.473,139.004,133.258,146.396z"/>
	<linearGradient id="SVGID_23_" gradientUnits="userSpaceOnUse" x1="87.5732" y1="144.2969" x2="101.0062" y2="180.6887">
		<stop  offset="0" style="stop-color:#0B5463"/>
		<stop  offset="1" style="stop-color:#0B5463"/>
	</linearGradient>
	<path opacity="0.2" fill="url(#SVGID_23_)" d="M107.977,178.262c-0.398-0.457-18.246-21.541-26.364-33.9l-1.325,1.51
		c10.186,14.547,19.059,25.395,26.666,33.479L107.977,178.262z"/>
	<linearGradient id="SVGID_24_" gradientUnits="userSpaceOnUse" x1="113.082" y1="106.8682" x2="128.8959" y2="205.3224">
		<stop  offset="0" style="stop-color:#096F80"/>
		<stop  offset="0.0244" style="stop-color:#107B8C"/>
		<stop  offset="0.0888" style="stop-color:#2095A6"/>
		<stop  offset="0.1599" style="stop-color:#2CA8BA"/>
		<stop  offset="0.2403" style="stop-color:#34B6C8"/>
		<stop  offset="0.3378" style="stop-color:#39BFD0"/>
		<stop  offset="0.5" style="stop-color:#3BC1D3"/>
		<stop  offset="0.6718" style="stop-color:#39BED1"/>
		<stop  offset="0.7751" style="stop-color:#33B6C8"/>
		<stop  offset="0.8603" style="stop-color:#28A8BA"/>
		<stop  offset="0.9351" style="stop-color:#1894A7"/>
		<stop  offset="1" style="stop-color:#057B8F"/>
	</linearGradient>
	<path fill="url(#SVGID_24_)" d="M133.688,146.021c-8.828-10.242-17.602-22.016-25.719-34.373c-0.929-1.416-1.853-2.834-2.763-4.262
		c-15.667,0.17-31.37,1.219-45.418,3.324c0.451,0.947,7.536,12.602,12.601,20.4c48.58,74.807,71.339,71.865,72.308,71.703
		c0.968-0.162,2.927-1.459,2.927-1.459l31.283-20.312C166.104,178.32,149.809,164.723,133.688,146.021z"/>
</g>
</svg>
